<svg width="346" height="76" viewBox="0 0 346 76" fill="none" xmlns="http://www.w3.org/2000/svg">
<rect width="346" height="76" fill="#6C63FF"/>
<path d="M128.772 47.3C127.152 47.3 125.582 47.07 124.062 46.61C122.562 46.15 121.372 45.54 120.492 44.78L121.842 41.75C122.702 42.43 123.752 42.99 124.992 43.43C126.252 43.85 127.512 44.06 128.772 44.06C130.332 44.06 131.492 43.81 132.252 43.31C133.032 42.81 133.422 42.15 133.422 41.33C133.422 40.73 133.202 40.24 132.762 39.86C132.342 39.46 131.802 39.15 131.142 38.93C130.482 38.71 129.582 38.46 128.442 38.18C126.842 37.8 125.542 37.42 124.542 37.04C123.562 36.66 122.712 36.07 121.992 35.27C121.292 34.45 120.942 33.35 120.942 31.97C120.942 30.81 121.252 29.76 121.872 28.82C122.512 27.86 123.462 27.1 124.722 26.54C126.002 25.98 127.562 25.7 129.402 25.7C130.682 25.7 131.942 25.86 133.182 26.18C134.422 26.5 135.492 26.96 136.392 27.56L135.162 30.59C134.242 30.05 133.282 29.64 132.282 29.36C131.282 29.08 130.312 28.94 129.372 28.94C127.832 28.94 126.682 29.2 125.922 29.72C125.182 30.24 124.812 30.93 124.812 31.79C124.812 32.39 125.022 32.88 125.442 33.26C125.882 33.64 126.432 33.94 127.092 34.16C127.752 34.38 128.652 34.63 129.792 34.91C131.352 35.27 132.632 35.65 133.632 36.05C134.632 36.43 135.482 37.02 136.182 37.82C136.902 38.62 137.262 39.7 137.262 41.06C137.262 42.22 136.942 43.27 136.302 44.21C135.682 45.15 134.732 45.9 133.452 46.46C132.172 47.02 130.612 47.3 128.772 47.3ZM140.769 30.98H144.519V47H140.769V30.98ZM142.659 28.34C141.979 28.34 141.409 28.13 140.949 27.71C140.489 27.27 140.259 26.73 140.259 26.09C140.259 25.45 140.489 24.92 140.949 24.5C141.409 24.06 141.979 23.84 142.659 23.84C143.339 23.84 143.909 24.05 144.369 24.47C144.829 24.87 145.059 25.38 145.059 26C145.059 26.66 144.829 27.22 144.369 27.68C143.929 28.12 143.359 28.34 142.659 28.34ZM165.341 30.98V44.57C165.341 50.21 162.461 53.03 156.701 53.03C155.161 53.03 153.701 52.83 152.321 52.43C150.941 52.05 149.801 51.49 148.901 50.75L150.581 47.93C151.281 48.51 152.161 48.97 153.221 49.31C154.301 49.67 155.391 49.85 156.491 49.85C158.251 49.85 159.541 49.45 160.361 48.65C161.181 47.85 161.591 46.63 161.591 44.99V44.15C160.951 44.85 160.171 45.38 159.251 45.74C158.331 46.1 157.321 46.28 156.221 46.28C154.701 46.28 153.321 45.96 152.081 45.32C150.861 44.66 149.891 43.74 149.171 42.56C148.471 41.38 148.121 40.03 148.121 38.51C148.121 36.99 148.471 35.65 149.171 34.49C149.891 33.31 150.861 32.4 152.081 31.76C153.321 31.12 154.701 30.8 156.221 30.8C157.381 30.8 158.431 30.99 159.371 31.37C160.331 31.75 161.131 32.33 161.771 33.11V30.98H165.341ZM156.791 43.1C158.211 43.1 159.371 42.68 160.271 41.84C161.191 40.98 161.651 39.87 161.651 38.51C161.651 37.17 161.191 36.08 160.271 35.24C159.371 34.4 158.211 33.98 156.791 33.98C155.351 33.98 154.171 34.4 153.251 35.24C152.351 36.08 151.901 37.17 151.901 38.51C151.901 39.87 152.351 40.98 153.251 41.84C154.171 42.68 155.351 43.1 156.791 43.1ZM179.361 30.8C181.381 30.8 183.001 31.39 184.221 32.57C185.441 33.75 186.051 35.5 186.051 37.82V47H182.301V38.3C182.301 36.9 181.971 35.85 181.311 35.15C180.651 34.43 179.711 34.07 178.491 34.07C177.111 34.07 176.021 34.49 175.221 35.33C174.421 36.15 174.021 37.34 174.021 38.9V47H170.271V30.98H173.841V33.05C174.461 32.31 175.241 31.75 176.181 31.37C177.121 30.99 178.181 30.8 179.361 30.8ZM199.459 26H203.359V47H199.459V26ZM217.769 30.8C219.789 30.8 221.409 31.39 222.629 32.57C223.849 33.75 224.459 35.5 224.459 37.82V47H220.709V38.3C220.709 36.9 220.379 35.85 219.719 35.15C219.059 34.43 218.119 34.07 216.899 34.07C215.519 34.07 214.429 34.49 213.629 35.33C212.829 36.15 212.429 37.34 212.429 38.9V47H208.679V30.98H212.249V33.05C212.869 32.31 213.649 31.75 214.589 31.37C215.529 30.99 216.589 30.8 217.769 30.8Z" fill="white"/>
</svg>
