<svg width="444" height="187" viewBox="0 0 444 187" fill="none" xmlns="http://www.w3.org/2000/svg">
<rect x="1" y="118" width="442" height="68" fill="white" stroke="#3F3D56" stroke-width="2"/>
<path d="M38.28 142C40.96 142 43.06 142.64 44.58 143.92C46.1 145.2 46.86 146.96 46.86 149.2C46.86 151.44 46.1 153.2 44.58 154.48C43.06 155.74 40.96 156.37 38.28 156.37H32.64V163H30.42V142H38.28ZM38.22 154.42C40.3 154.42 41.89 153.97 42.99 153.07C44.09 152.15 44.64 150.86 44.64 149.2C44.64 147.5 44.09 146.2 42.99 145.3C41.89 144.38 40.3 143.92 38.22 143.92H32.64V154.42H38.22ZM56.5838 147.1C58.6438 147.1 60.2238 147.62 61.3238 148.66C62.4238 149.68 62.9738 151.2 62.9738 153.22V163H60.9338V160.54C60.4538 161.36 59.7438 162 58.8038 162.46C57.8838 162.92 56.7838 163.15 55.5038 163.15C53.7438 163.15 52.3438 162.73 51.3038 161.89C50.2638 161.05 49.7438 159.94 49.7438 158.56C49.7438 157.22 50.2238 156.14 51.1838 155.32C52.1638 154.5 53.7138 154.09 55.8338 154.09H60.8438V153.13C60.8438 151.77 60.4638 150.74 59.7038 150.04C58.9438 149.32 57.8338 148.96 56.3738 148.96C55.3738 148.96 54.4138 149.13 53.4938 149.47C52.5738 149.79 51.7838 150.24 51.1238 150.82L50.1638 149.23C50.9638 148.55 51.9238 148.03 53.0438 147.67C54.1638 147.29 55.3438 147.1 56.5838 147.1ZM55.8338 161.47C57.0338 161.47 58.0638 161.2 58.9238 160.66C59.7838 160.1 60.4238 159.3 60.8438 158.26V155.68H55.8938C53.1938 155.68 51.8438 156.62 51.8438 158.5C51.8438 159.42 52.1938 160.15 52.8938 160.69C53.5938 161.21 54.5738 161.47 55.8338 161.47ZM72.9891 163.15C71.7091 163.15 70.4791 162.97 69.2991 162.61C68.1391 162.23 67.2291 161.76 66.5691 161.2L67.5291 159.52C68.1891 160.04 69.0191 160.47 70.0191 160.81C71.0191 161.13 72.0591 161.29 73.1391 161.29C74.5791 161.29 75.6391 161.07 76.3191 160.63C77.0191 160.17 77.3691 159.53 77.3691 158.71C77.3691 158.13 77.1791 157.68 76.7991 157.36C76.4191 157.02 75.9391 156.77 75.3591 156.61C74.7791 156.43 74.0091 156.26 73.0491 156.1C71.7691 155.86 70.7391 155.62 69.9591 155.38C69.1791 155.12 68.5091 154.69 67.9491 154.09C67.4091 153.49 67.1391 152.66 67.1391 151.6C67.1391 150.28 67.6891 149.2 68.7891 148.36C69.8891 147.52 71.4191 147.1 73.3791 147.1C74.3991 147.1 75.4191 147.24 76.4391 147.52C77.4591 147.78 78.2991 148.13 78.9591 148.57L78.0291 150.28C76.7291 149.38 75.1791 148.93 73.3791 148.93C72.0191 148.93 70.9891 149.17 70.2891 149.65C69.6091 150.13 69.2691 150.76 69.2691 151.54C69.2691 152.14 69.4591 152.62 69.8391 152.98C70.2391 153.34 70.7291 153.61 71.3091 153.79C71.8891 153.95 72.6891 154.12 73.7091 154.3C74.9691 154.54 75.9791 154.78 76.7391 155.02C77.4991 155.26 78.1491 155.67 78.6891 156.25C79.2291 156.83 79.4991 157.63 79.4991 158.65C79.4991 160.03 78.9191 161.13 77.7591 161.95C76.6191 162.75 75.0291 163.15 72.9891 163.15ZM87.6668 163.15C86.3868 163.15 85.1568 162.97 83.9768 162.61C82.8168 162.23 81.9068 161.76 81.2468 161.2L82.2068 159.52C82.8668 160.04 83.6968 160.47 84.6968 160.81C85.6968 161.13 86.7368 161.29 87.8168 161.29C89.2568 161.29 90.3168 161.07 90.9968 160.63C91.6968 160.17 92.0468 159.53 92.0468 158.71C92.0468 158.13 91.8568 157.68 91.4768 157.36C91.0968 157.02 90.6168 156.77 90.0368 156.61C89.4568 156.43 88.6868 156.26 87.7268 156.1C86.4468 155.86 85.4168 155.62 84.6368 155.38C83.8568 155.12 83.1868 154.69 82.6268 154.09C82.0868 153.49 81.8168 152.66 81.8168 151.6C81.8168 150.28 82.3668 149.2 83.4668 148.36C84.5668 147.52 86.0968 147.1 88.0568 147.1C89.0768 147.1 90.0968 147.24 91.1168 147.52C92.1368 147.78 92.9768 148.13 93.6368 148.57L92.7068 150.28C91.4068 149.38 89.8568 148.93 88.0568 148.93C86.6968 148.93 85.6668 149.17 84.9668 149.65C84.2868 150.13 83.9468 150.76 83.9468 151.54C83.9468 152.14 84.1368 152.62 84.5168 152.98C84.9168 153.34 85.4068 153.61 85.9868 153.79C86.5668 153.95 87.3668 154.12 88.3868 154.3C89.6468 154.54 90.6568 154.78 91.4168 155.02C92.1768 155.26 92.8268 155.67 93.3668 156.25C93.9068 156.83 94.1768 157.63 94.1768 158.65C94.1768 160.03 93.5968 161.13 92.4368 161.95C91.2968 162.75 89.7068 163.15 87.6668 163.15ZM120.982 147.22L115.012 163H113.002L108.022 150.07L103.042 163H101.032L95.0916 147.22H97.1316L102.082 160.63L107.152 147.22H108.982L114.022 160.63L119.032 147.22H120.982ZM130.199 163.15C128.679 163.15 127.309 162.81 126.089 162.13C124.869 161.43 123.909 160.47 123.209 159.25C122.509 158.03 122.159 156.65 122.159 155.11C122.159 153.57 122.509 152.19 123.209 150.97C123.909 149.75 124.869 148.8 126.089 148.12C127.309 147.44 128.679 147.1 130.199 147.1C131.719 147.1 133.089 147.44 134.309 148.12C135.529 148.8 136.479 149.75 137.159 150.97C137.859 152.19 138.209 153.57 138.209 155.11C138.209 156.65 137.859 158.03 137.159 159.25C136.479 160.47 135.529 161.43 134.309 162.13C133.089 162.81 131.719 163.15 130.199 163.15ZM130.199 161.26C131.319 161.26 132.319 161.01 133.199 160.51C134.099 159.99 134.799 159.26 135.299 158.32C135.799 157.38 136.049 156.31 136.049 155.11C136.049 153.91 135.799 152.84 135.299 151.9C134.799 150.96 134.099 150.24 133.199 149.74C132.319 149.22 131.319 148.96 130.199 148.96C129.079 148.96 128.069 149.22 127.169 149.74C126.289 150.24 125.589 150.96 125.069 151.9C124.569 152.84 124.319 153.91 124.319 155.11C124.319 156.31 124.569 157.38 125.069 158.32C125.589 159.26 126.289 159.99 127.169 160.51C128.069 161.01 129.079 161.26 130.199 161.26ZM144.598 150.31C145.098 149.25 145.838 148.45 146.818 147.91C147.818 147.37 149.048 147.1 150.508 147.1V149.17L149.998 149.14C148.338 149.14 147.038 149.65 146.098 150.67C145.158 151.69 144.688 153.12 144.688 154.96V163H142.558V147.22H144.598V150.31ZM168.618 140.74V163H166.578V159.88C165.938 160.94 165.088 161.75 164.028 162.31C162.988 162.87 161.808 163.15 160.488 163.15C159.008 163.15 157.668 162.81 156.468 162.13C155.268 161.45 154.328 160.5 153.648 159.28C152.968 158.06 152.628 156.67 152.628 155.11C152.628 153.55 152.968 152.16 153.648 150.94C154.328 149.72 155.268 148.78 156.468 148.12C157.668 147.44 159.008 147.1 160.488 147.1C161.768 147.1 162.918 147.37 163.938 147.91C164.978 148.43 165.828 149.2 166.488 150.22V140.74H168.618ZM160.668 161.26C161.768 161.26 162.758 161.01 163.638 160.51C164.538 159.99 165.238 159.26 165.738 158.32C166.258 157.38 166.518 156.31 166.518 155.11C166.518 153.91 166.258 152.84 165.738 151.9C165.238 150.96 164.538 150.24 163.638 149.74C162.758 149.22 161.768 148.96 160.668 148.96C159.548 148.96 158.538 149.22 157.638 149.74C156.758 150.24 156.058 150.96 155.538 151.9C155.038 152.84 154.788 153.91 154.788 155.11C154.788 156.31 155.038 157.38 155.538 158.32C156.058 159.26 156.758 159.99 157.638 160.51C158.538 161.01 159.548 161.26 160.668 161.26ZM174.76 150.37C174.32 150.37 173.94 150.21 173.62 149.89C173.32 149.57 173.17 149.18 173.17 148.72C173.17 148.26 173.32 147.88 173.62 147.58C173.94 147.26 174.32 147.1 174.76 147.1C175.2 147.1 175.58 147.26 175.9 147.58C176.22 147.88 176.38 148.26 176.38 148.72C176.38 149.18 176.22 149.57 175.9 149.89C175.58 150.21 175.2 150.37 174.76 150.37ZM174.76 163.15C174.32 163.15 173.94 162.99 173.62 162.67C173.32 162.35 173.17 161.96 173.17 161.5C173.17 161.04 173.32 160.66 173.62 160.36C173.94 160.04 174.32 159.88 174.76 159.88C175.2 159.88 175.58 160.04 175.9 160.36C176.22 160.66 176.38 161.04 176.38 161.5C176.38 161.96 176.22 162.35 175.9 162.67C175.58 162.99 175.2 163.15 174.76 163.15Z" fill="black"/>
<rect x="1" y="1" width="442" height="68" fill="white" stroke="#3F3D56" stroke-width="2"/>
<path d="M45.27 43.08V45H30.42V24H44.82V25.92H32.64V33.39H43.5V35.28H32.64V43.08H45.27ZM48.2824 35.94H56.1424V37.8H48.2824V35.94ZM80.5875 29.1C82.5675 29.1 84.1175 29.67 85.2375 30.81C86.3775 31.95 86.9475 33.63 86.9475 35.85V45H84.8175V36.06C84.8175 34.42 84.4175 33.17 83.6175 32.31C82.8375 31.45 81.7275 31.02 80.2875 31.02C78.6475 31.02 77.3575 31.53 76.4175 32.55C75.4775 33.55 75.0075 34.94 75.0075 36.72V45H72.8775V36.06C72.8775 34.42 72.4775 33.17 71.6775 32.31C70.8975 31.45 69.7775 31.02 68.3175 31.02C66.6975 31.02 65.4075 31.53 64.4475 32.55C63.5075 33.55 63.0375 34.94 63.0375 36.72V45H60.9075V29.22H62.9475V32.1C63.5075 31.14 64.2875 30.4 65.2875 29.88C66.2875 29.36 67.4375 29.1 68.7375 29.1C70.0575 29.1 71.1975 29.38 72.1575 29.94C73.1375 30.5 73.8675 31.33 74.3475 32.43C74.9275 31.39 75.7575 30.58 76.8375 30C77.9375 29.4 79.1875 29.1 80.5875 29.1ZM98.2439 29.1C100.304 29.1 101.884 29.62 102.984 30.66C104.084 31.68 104.634 33.2 104.634 35.22V45H102.594V42.54C102.114 43.36 101.404 44 100.464 44.46C99.5439 44.92 98.4439 45.15 97.1639 45.15C95.4039 45.15 94.0039 44.73 92.9639 43.89C91.9239 43.05 91.4039 41.94 91.4039 40.56C91.4039 39.22 91.8839 38.14 92.8439 37.32C93.8239 36.5 95.3739 36.09 97.4939 36.09H102.504V35.13C102.504 33.77 102.124 32.74 101.364 32.04C100.604 31.32 99.4939 30.96 98.0339 30.96C97.0339 30.96 96.0739 31.13 95.1539 31.47C94.2339 31.79 93.4439 32.24 92.7839 32.82L91.8239 31.23C92.6239 30.55 93.5839 30.03 94.7039 29.67C95.8239 29.29 97.0039 29.1 98.2439 29.1ZM97.4939 43.47C98.6939 43.47 99.7239 43.2 100.584 42.66C101.444 42.1 102.084 41.3 102.504 40.26V37.68H97.5539C94.8539 37.68 93.5039 38.62 93.5039 40.5C93.5039 41.42 93.8539 42.15 94.5539 42.69C95.2539 43.21 96.2339 43.47 97.4939 43.47ZM110.419 29.22H112.549V45H110.419V29.22ZM111.499 25.77C111.059 25.77 110.689 25.62 110.389 25.32C110.089 25.02 109.939 24.66 109.939 24.24C109.939 23.84 110.089 23.49 110.389 23.19C110.689 22.89 111.059 22.74 111.499 22.74C111.939 22.74 112.309 22.89 112.609 23.19C112.909 23.47 113.059 23.81 113.059 24.21C113.059 24.65 112.909 25.02 112.609 25.32C112.309 25.62 111.939 25.77 111.499 25.77ZM118.476 22.74H120.606V45H118.476V22.74ZM139.904 29.1C141.964 29.1 143.544 29.62 144.644 30.66C145.744 31.68 146.294 33.2 146.294 35.22V45H144.254V42.54C143.774 43.36 143.064 44 142.124 44.46C141.204 44.92 140.104 45.15 138.824 45.15C137.064 45.15 135.664 44.73 134.624 43.89C133.584 43.05 133.064 41.94 133.064 40.56C133.064 39.22 133.544 38.14 134.504 37.32C135.484 36.5 137.034 36.09 139.154 36.09H144.164V35.13C144.164 33.77 143.784 32.74 143.024 32.04C142.264 31.32 141.154 30.96 139.694 30.96C138.694 30.96 137.734 31.13 136.814 31.47C135.894 31.79 135.104 32.24 134.444 32.82L133.484 31.23C134.284 30.55 135.244 30.03 136.364 29.67C137.484 29.29 138.664 29.1 139.904 29.1ZM139.154 43.47C140.354 43.47 141.384 43.2 142.244 42.66C143.104 42.1 143.744 41.3 144.164 40.26V37.68H139.214C136.514 37.68 135.164 38.62 135.164 40.5C135.164 41.42 135.514 42.15 136.214 42.69C136.914 43.21 137.894 43.47 139.154 43.47ZM166.538 22.74V45H164.498V41.88C163.858 42.94 163.008 43.75 161.948 44.31C160.908 44.87 159.728 45.15 158.408 45.15C156.928 45.15 155.588 44.81 154.388 44.13C153.188 43.45 152.248 42.5 151.568 41.28C150.888 40.06 150.548 38.67 150.548 37.11C150.548 35.55 150.888 34.16 151.568 32.94C152.248 31.72 153.188 30.78 154.388 30.12C155.588 29.44 156.928 29.1 158.408 29.1C159.688 29.1 160.838 29.37 161.858 29.91C162.898 30.43 163.748 31.2 164.408 32.22V22.74H166.538ZM158.588 43.26C159.688 43.26 160.678 43.01 161.558 42.51C162.458 41.99 163.158 41.26 163.658 40.32C164.178 39.38 164.438 38.31 164.438 37.11C164.438 35.91 164.178 34.84 163.658 33.9C163.158 32.96 162.458 32.24 161.558 31.74C160.678 31.22 159.688 30.96 158.588 30.96C157.468 30.96 156.458 31.22 155.558 31.74C154.678 32.24 153.978 32.96 153.458 33.9C152.958 34.84 152.708 35.91 152.708 37.11C152.708 38.31 152.958 39.38 153.458 40.32C153.978 41.26 154.678 41.99 155.558 42.51C156.458 43.01 157.468 43.26 158.588 43.26ZM186.87 22.74V45H184.83V41.88C184.19 42.94 183.34 43.75 182.28 44.31C181.24 44.87 180.06 45.15 178.74 45.15C177.26 45.15 175.92 44.81 174.72 44.13C173.52 43.45 172.58 42.5 171.9 41.28C171.22 40.06 170.88 38.67 170.88 37.11C170.88 35.55 171.22 34.16 171.9 32.94C172.58 31.72 173.52 30.78 174.72 30.12C175.92 29.44 177.26 29.1 178.74 29.1C180.02 29.1 181.17 29.37 182.19 29.91C183.23 30.43 184.08 31.2 184.74 32.22V22.74H186.87ZM178.92 43.26C180.02 43.26 181.01 43.01 181.89 42.51C182.79 41.99 183.49 41.26 183.99 40.32C184.51 39.38 184.77 38.31 184.77 37.11C184.77 35.91 184.51 34.84 183.99 33.9C183.49 32.96 182.79 32.24 181.89 31.74C181.01 31.22 180.02 30.96 178.92 30.96C177.8 30.96 176.79 31.22 175.89 31.74C175.01 32.24 174.31 32.96 173.79 33.9C173.29 34.84 173.04 35.91 173.04 37.11C173.04 38.31 173.29 39.38 173.79 40.32C174.31 41.26 175.01 41.99 175.89 42.51C176.79 43.01 177.8 43.26 178.92 43.26ZM194.842 32.31C195.342 31.25 196.082 30.45 197.062 29.91C198.062 29.37 199.292 29.1 200.752 29.1V31.17L200.242 31.14C198.582 31.14 197.282 31.65 196.342 32.67C195.402 33.69 194.932 35.12 194.932 36.96V45H192.802V29.22H194.842V32.31ZM218.202 37.77H205.002C205.122 39.41 205.752 40.74 206.892 41.76C208.032 42.76 209.472 43.26 211.212 43.26C212.192 43.26 213.092 43.09 213.912 42.75C214.732 42.39 215.442 41.87 216.042 41.19L217.242 42.57C216.542 43.41 215.662 44.05 214.602 44.49C213.562 44.93 212.412 45.15 211.152 45.15C209.532 45.15 208.092 44.81 206.832 44.13C205.592 43.43 204.622 42.47 203.922 41.25C203.222 40.03 202.872 38.65 202.872 37.11C202.872 35.57 203.202 34.19 203.862 32.97C204.542 31.75 205.462 30.8 206.622 30.12C207.802 29.44 209.122 29.1 210.582 29.1C212.042 29.1 213.352 29.44 214.512 30.12C215.672 30.8 216.582 31.75 217.242 32.97C217.902 34.17 218.232 35.55 218.232 37.11L218.202 37.77ZM210.582 30.93C209.062 30.93 207.782 31.42 206.742 32.4C205.722 33.36 205.142 34.62 205.002 36.18H216.192C216.052 34.62 215.462 33.36 214.422 32.4C213.402 31.42 212.122 30.93 210.582 30.93ZM226.798 45.15C225.518 45.15 224.288 44.97 223.108 44.61C221.948 44.23 221.038 43.76 220.378 43.2L221.338 41.52C221.998 42.04 222.828 42.47 223.828 42.81C224.828 43.13 225.868 43.29 226.948 43.29C228.388 43.29 229.448 43.07 230.128 42.63C230.828 42.17 231.178 41.53 231.178 40.71C231.178 40.13 230.988 39.68 230.608 39.36C230.228 39.02 229.748 38.77 229.168 38.61C228.588 38.43 227.818 38.26 226.858 38.1C225.578 37.86 224.548 37.62 223.768 37.38C222.988 37.12 222.318 36.69 221.758 36.09C221.218 35.49 220.948 34.66 220.948 33.6C220.948 32.28 221.498 31.2 222.598 30.36C223.698 29.52 225.228 29.1 227.188 29.1C228.208 29.1 229.228 29.24 230.248 29.52C231.268 29.78 232.108 30.13 232.768 30.57L231.838 32.28C230.538 31.38 228.988 30.93 227.188 30.93C225.828 30.93 224.798 31.17 224.098 31.65C223.418 32.13 223.078 32.76 223.078 33.54C223.078 34.14 223.268 34.62 223.648 34.98C224.048 35.34 224.538 35.61 225.118 35.79C225.698 35.95 226.498 36.12 227.518 36.3C228.778 36.54 229.788 36.78 230.548 37.02C231.308 37.26 231.958 37.67 232.498 38.25C233.038 38.83 233.308 39.63 233.308 40.65C233.308 42.03 232.728 43.13 231.568 43.95C230.428 44.75 228.838 45.15 226.798 45.15ZM241.475 45.15C240.195 45.15 238.965 44.97 237.785 44.61C236.625 44.23 235.715 43.76 235.055 43.2L236.015 41.52C236.675 42.04 237.505 42.47 238.505 42.81C239.505 43.13 240.545 43.29 241.625 43.29C243.065 43.29 244.125 43.07 244.805 42.63C245.505 42.17 245.855 41.53 245.855 40.71C245.855 40.13 245.665 39.68 245.285 39.36C244.905 39.02 244.425 38.77 243.845 38.61C243.265 38.43 242.495 38.26 241.535 38.1C240.255 37.86 239.225 37.62 238.445 37.38C237.665 37.12 236.995 36.69 236.435 36.09C235.895 35.49 235.625 34.66 235.625 33.6C235.625 32.28 236.175 31.2 237.275 30.36C238.375 29.52 239.905 29.1 241.865 29.1C242.885 29.1 243.905 29.24 244.925 29.52C245.945 29.78 246.785 30.13 247.445 30.57L246.515 32.28C245.215 31.38 243.665 30.93 241.865 30.93C240.505 30.93 239.475 31.17 238.775 31.65C238.095 32.13 237.755 32.76 237.755 33.54C237.755 34.14 237.945 34.62 238.325 34.98C238.725 35.34 239.215 35.61 239.795 35.79C240.375 35.95 241.175 36.12 242.195 36.3C243.455 36.54 244.465 36.78 245.225 37.02C245.985 37.26 246.635 37.67 247.175 38.25C247.715 38.83 247.985 39.63 247.985 40.65C247.985 42.03 247.405 43.13 246.245 43.95C245.105 44.75 243.515 45.15 241.475 45.15ZM252.133 32.37C251.693 32.37 251.313 32.21 250.993 31.89C250.693 31.57 250.543 31.18 250.543 30.72C250.543 30.26 250.693 29.88 250.993 29.58C251.313 29.26 251.693 29.1 252.133 29.1C252.573 29.1 252.953 29.26 253.273 29.58C253.593 29.88 253.753 30.26 253.753 30.72C253.753 31.18 253.593 31.57 253.273 31.89C252.953 32.21 252.573 32.37 252.133 32.37ZM252.133 45.15C251.693 45.15 251.313 44.99 250.993 44.67C250.693 44.35 250.543 43.96 250.543 43.5C250.543 43.04 250.693 42.66 250.993 42.36C251.313 42.04 251.693 41.88 252.133 41.88C252.573 41.88 252.953 42.04 253.273 42.36C253.593 42.66 253.753 43.04 253.753 43.5C253.753 43.96 253.593 44.35 253.273 44.67C252.953 44.99 252.573 45.15 252.133 45.15Z" fill="black"/>
</svg>
