<svg width="1233" height="1024" viewBox="0 0 1233 1024" fill="none" xmlns="http://www.w3.org/2000/svg">
<path d="M513 0H1233V1024H513V0Z" fill="#272636"/>
<circle cx="713" cy="996" r="200" fill="#6C63FF" fill-opacity="0.55"/>
<circle cx="821.5" cy="829.5" r="49.5" fill="#FF808E"/>
<path d="M44.68 224L35.4 252H29.88L22.96 231.28L15.92 252H10.36L1.08 224H6.48L13.44 245.28L20.68 224H25.48L32.56 245.4L39.72 224H44.68ZM66.9147 241.44C66.9147 241.787 66.888 242.28 66.8347 242.92H50.0747C50.368 244.493 51.128 245.747 52.3547 246.68C53.608 247.587 55.1547 248.04 56.9947 248.04C59.3414 248.04 61.2747 247.267 62.7947 245.72L65.4747 248.8C64.5147 249.947 63.3014 250.813 61.8347 251.4C60.368 251.987 58.7147 252.28 56.8747 252.28C54.528 252.28 52.4614 251.813 50.6747 250.88C48.888 249.947 47.5014 248.653 46.5147 247C45.5547 245.32 45.0747 243.427 45.0747 241.32C45.0747 239.24 45.5414 237.373 46.4747 235.72C47.4347 234.04 48.7547 232.733 50.4347 231.8C52.1147 230.867 54.008 230.4 56.1147 230.4C58.1947 230.4 60.048 230.867 61.6747 231.8C63.328 232.707 64.608 234 65.5147 235.68C66.448 237.333 66.9147 239.253 66.9147 241.44ZM56.1147 234.4C54.5147 234.4 53.1547 234.88 52.0347 235.84C50.9414 236.773 50.2747 238.027 50.0347 239.6H62.1547C61.9414 238.053 61.288 236.8 60.1947 235.84C59.1014 234.88 57.7414 234.4 56.1147 234.4ZM71.7175 222.32H76.7175V252H71.7175V222.32ZM93.08 252.28C90.8667 252.28 88.88 251.813 87.12 250.88C85.36 249.947 83.9867 248.653 83 247C82.0133 245.32 81.52 243.427 81.52 241.32C81.52 239.213 82.0133 237.333 83 235.68C83.9867 234.027 85.3467 232.733 87.08 231.8C88.84 230.867 90.84 230.4 93.08 230.4C95.1867 230.4 97.0267 230.827 98.6 231.68C100.2 232.533 101.4 233.76 102.2 235.36L98.36 237.6C97.7467 236.613 96.9733 235.88 96.04 235.4C95.1333 234.893 94.1333 234.64 93.04 234.64C91.1733 234.64 89.6267 235.253 88.4 236.48C87.1733 237.68 86.56 239.293 86.56 241.32C86.56 243.347 87.16 244.973 88.36 246.2C89.5867 247.4 91.1467 248 93.04 248C94.1333 248 95.1333 247.76 96.04 247.28C96.9733 246.773 97.7467 246.027 98.36 245.04L102.2 247.28C101.373 248.88 100.16 250.12 98.56 251C96.9867 251.853 95.16 252.28 93.08 252.28ZM115.81 252.28C113.65 252.28 111.703 251.813 109.97 250.88C108.236 249.947 106.876 248.653 105.89 247C104.93 245.32 104.45 243.427 104.45 241.32C104.45 239.213 104.93 237.333 105.89 235.68C106.876 234.027 108.236 232.733 109.97 231.8C111.703 230.867 113.65 230.4 115.81 230.4C117.996 230.4 119.956 230.867 121.69 231.8C123.423 232.733 124.77 234.027 125.73 235.68C126.716 237.333 127.21 239.213 127.21 241.32C127.21 243.427 126.716 245.32 125.73 247C124.77 248.653 123.423 249.947 121.69 250.88C119.956 251.813 117.996 252.28 115.81 252.28ZM115.81 248C117.65 248 119.17 247.387 120.37 246.16C121.57 244.933 122.17 243.32 122.17 241.32C122.17 239.32 121.57 237.707 120.37 236.48C119.17 235.253 117.65 234.64 115.81 234.64C113.97 234.64 112.45 235.253 111.25 236.48C110.076 237.707 109.49 239.32 109.49 241.32C109.49 243.32 110.076 244.933 111.25 246.16C112.45 247.387 113.97 248 115.81 248ZM158.951 230.4C161.644 230.4 163.778 231.187 165.351 232.76C166.924 234.307 167.711 236.64 167.711 239.76V252H162.711V240.4C162.711 238.533 162.298 237.133 161.471 236.2C160.644 235.24 159.458 234.76 157.911 234.76C156.231 234.76 154.884 235.32 153.871 236.44C152.858 237.533 152.351 239.107 152.351 241.16V252H147.351V240.4C147.351 238.533 146.938 237.133 146.111 236.2C145.284 235.24 144.098 234.76 142.551 234.76C140.844 234.76 139.484 235.307 138.471 236.4C137.484 237.493 136.991 239.08 136.991 241.16V252H131.991V230.64H136.751V233.36C137.551 232.4 138.551 231.667 139.751 231.16C140.951 230.653 142.284 230.4 143.751 230.4C145.351 230.4 146.764 230.707 147.991 231.32C149.244 231.907 150.231 232.787 150.951 233.96C151.831 232.84 152.964 231.973 154.351 231.36C155.738 230.72 157.271 230.4 158.951 230.4ZM194.376 241.44C194.376 241.787 194.349 242.28 194.296 242.92H177.536C177.829 244.493 178.589 245.747 179.816 246.68C181.069 247.587 182.616 248.04 184.456 248.04C186.802 248.04 188.736 247.267 190.256 245.72L192.936 248.8C191.976 249.947 190.762 250.813 189.296 251.4C187.829 251.987 186.176 252.28 184.336 252.28C181.989 252.28 179.922 251.813 178.136 250.88C176.349 249.947 174.962 248.653 173.976 247C173.016 245.32 172.536 243.427 172.536 241.32C172.536 239.24 173.002 237.373 173.936 235.72C174.896 234.04 176.216 232.733 177.896 231.8C179.576 230.867 181.469 230.4 183.576 230.4C185.656 230.4 187.509 230.867 189.136 231.8C190.789 232.707 192.069 234 192.976 235.68C193.909 237.333 194.376 239.253 194.376 241.44ZM183.576 234.4C181.976 234.4 180.616 234.88 179.496 235.84C178.402 236.773 177.736 238.027 177.496 239.6H189.616C189.402 238.053 188.749 236.8 187.656 235.84C186.562 234.88 185.202 234.4 183.576 234.4ZM230.553 237.44C232.1 237.947 233.326 238.8 234.233 240C235.14 241.173 235.593 242.64 235.593 244.4C235.593 246.827 234.66 248.707 232.793 250.04C230.926 251.347 228.206 252 224.633 252H210.713V224H223.833C227.14 224 229.686 224.653 231.473 225.96C233.26 227.24 234.153 229.013 234.153 231.28C234.153 232.667 233.833 233.893 233.193 234.96C232.553 236.027 231.673 236.853 230.553 237.44ZM215.913 228.08V235.8H223.273C225.086 235.8 226.473 235.48 227.433 234.84C228.42 234.173 228.913 233.213 228.913 231.96C228.913 230.68 228.42 229.72 227.433 229.08C226.473 228.413 225.086 228.08 223.273 228.08H215.913ZM224.313 247.92C228.34 247.92 230.353 246.573 230.353 243.88C230.353 241.187 228.34 239.84 224.313 239.84H215.913V247.92H224.313ZM248.823 230.4C251.969 230.4 254.369 231.16 256.023 232.68C257.703 234.173 258.543 236.44 258.543 239.48V252H253.823V249.4C253.209 250.333 252.329 251.053 251.183 251.56C250.063 252.04 248.703 252.28 247.103 252.28C245.503 252.28 244.103 252.013 242.903 251.48C241.703 250.92 240.769 250.16 240.103 249.2C239.463 248.213 239.143 247.107 239.143 245.88C239.143 243.96 239.849 242.427 241.263 241.28C242.703 240.107 244.956 239.52 248.023 239.52H253.543V239.2C253.543 237.707 253.089 236.56 252.183 235.76C251.303 234.96 249.983 234.56 248.223 234.56C247.023 234.56 245.836 234.747 244.663 235.12C243.516 235.493 242.543 236.013 241.743 236.68L239.783 233.04C240.903 232.187 242.249 231.533 243.823 231.08C245.396 230.627 247.063 230.4 248.823 230.4ZM248.143 248.64C249.396 248.64 250.503 248.36 251.463 247.8C252.449 247.213 253.143 246.387 253.543 245.32V242.84H248.383C245.503 242.84 244.063 243.787 244.063 245.68C244.063 246.587 244.423 247.307 245.143 247.84C245.863 248.373 246.863 248.64 248.143 248.64ZM274.955 252.28C272.742 252.28 270.755 251.813 268.995 250.88C267.235 249.947 265.862 248.653 264.875 247C263.888 245.32 263.395 243.427 263.395 241.32C263.395 239.213 263.888 237.333 264.875 235.68C265.862 234.027 267.222 232.733 268.955 231.8C270.715 230.867 272.715 230.4 274.955 230.4C277.062 230.4 278.902 230.827 280.475 231.68C282.075 232.533 283.275 233.76 284.075 235.36L280.235 237.6C279.622 236.613 278.848 235.88 277.915 235.4C277.008 234.893 276.008 234.64 274.915 234.64C273.048 234.64 271.502 235.253 270.275 236.48C269.048 237.68 268.435 239.293 268.435 241.32C268.435 243.347 269.035 244.973 270.235 246.2C271.462 247.4 273.022 248 274.915 248C276.008 248 277.008 247.76 277.915 247.28C278.848 246.773 279.622 246.027 280.235 245.04L284.075 247.28C283.248 248.88 282.035 250.12 280.435 251C278.862 251.853 277.035 252.28 274.955 252.28ZM296.922 242.84L293.202 246.36V252H288.202V222.32H293.202V240.24L303.562 230.64H309.562L300.642 239.6L310.402 252H304.322L296.922 242.84Z" fill="#6C63FF"/>
<circle cx="1245.5" cy="222.5" r="281.5" fill="#6C63FF" fill-opacity="0.75"/>
<circle cx="1069.5" cy="431.5" r="40.5" fill="#8ED16F"/>
</svg>
