<svg width="300" height="248" viewBox="0 0 300 248" fill="none" xmlns="http://www.w3.org/2000/svg">
<path opacity="0.1" d="M26.0526 114.365C21.9013 115.825 18.0268 119.358 16.9807 124.259C15.7934 129.89 18.5277 135.58 18.9179 141.354C20.1938 160.305 -2.98151 173.675 0.322914 192.298C1.63749 199.69 6.94561 205.139 12.179 209.622C20.5563 216.805 29.8497 223.148 40.131 224.941C55.751 227.661 72.0739 219.659 87.2593 224.718C99.5056 228.796 108.876 240.755 121.04 245.167C130.3 248.528 140.271 247.202 149.899 245.843C155.078 245.113 160.518 244.267 164.706 240.648C172.502 233.909 172.972 220.604 178.186 211.067C186.232 196.347 203.872 193.472 218.664 196.332C233.457 199.192 247.812 206.244 262.798 205.648C266 205.526 269.285 205.016 272.075 203.19C275.471 200.968 277.768 197.056 279.796 193.183C292.438 169.051 299.482 140.981 299.983 112.724C300.068 107.841 299.922 102.746 297.948 98.4236C295.458 92.9687 290.476 89.7125 285.495 87.5138C273.572 82.2645 260.401 81.4154 248.714 75.457C237.442 69.7161 228.309 59.6434 218.495 51.0276C199.031 33.9121 176.152 22.0668 152.208 16.6894C146.57 15.4232 140.72 14.5175 135.118 15.9803C128.664 17.6665 123.102 22.3469 118.101 27.3817C104.792 40.7881 94.1283 57.3167 81.8681 72.0041C73.4684 82.06 64.254 91.2912 54.334 99.5885C49.7869 103.393 44.9714 107.909 39.9152 110.722C35.2906 113.293 30.9428 112.646 26.0526 114.365Z" fill="#6C63FF"/>
<path d="M280.782 124.018C274.693 122.647 263.166 120.076 250.12 117.228C230.805 113.013 225.766 128.969 225.766 128.969C225.766 137.096 200.581 170.809 200.581 170.809L193.07 152.696C194.225 152.887 195.404 152.802 196.524 152.445C200.825 151.063 202.95 145.84 203.639 141.071C204.668 133.887 203.728 126.536 200.936 119.918C199.654 116.897 197.994 114.055 196.964 110.927C192.622 97.8008 200.144 82.6069 195.594 69.5313C193.715 64.1359 189.968 59.7595 187.377 54.7187C181.566 43.3829 181.815 29.2019 175.477 18.1908C169.532 7.86788 157.817 1.74861 146.595 3.11308C139.978 3.91746 135.248 6.4617 129.082 3.411C123.877 0.842935 117.627 -2.02901 112.267 2.01674C107.695 5.46665 106.917 12.2622 104.421 17.6337C100.037 27.0688 89.6367 33.2268 88.4134 43.6927C88.1118 46.2727 88.4134 48.948 87.7132 51.4386C85.7151 58.4785 77.014 60.5579 73.4494 66.841C69.9595 72.9901 73.4854 82.2882 79.978 84.0608C82.7455 84.8175 85.7234 84.3587 88.4881 85.1601C91.0813 85.9049 93.597 88.5147 93.1487 91.2407L87.3977 92.3668L70.8507 94.345L68.2907 94.5178C68.2907 94.5178 68.2907 94.5654 68.2907 94.6518L68.1523 94.6697L68.2879 94.7889C68.2879 95.0004 68.2879 95.3311 68.2879 95.7661C63.6302 97.7294 56.0832 102.97 53.2326 116.716C52.5796 119.853 51.26 122.785 49.3774 125.281C45.1348 130.912 38.0942 141.908 38.4872 152.463C39.0407 167.514 39.0407 173.535 57.5223 169.319C62.1911 168.256 67.2695 166.075 72.2538 163.412C72.5444 169.686 73.2999 175.838 74.8774 180.456C79.9171 195.206 69.2787 247.282 69.2787 247.282H172.018C172.018 247.282 163.339 216.578 154.942 200.926C148.995 189.837 151.192 183.131 152.98 180.161C154.53 177.636 155.688 174.857 156.409 171.932C156.713 170.648 157.009 169.191 157.264 167.577C159.154 169.242 161.172 170.738 163.455 171.631C165.569 172.457 167.974 172.683 170.114 172.045C174.492 177.807 179.382 184.126 184.615 190.692C204.771 215.977 210.37 200.324 210.37 200.324C210.37 200.324 230.805 158.484 233.617 145.84C236.429 133.197 242.576 133.798 242.576 133.798C259.424 138.383 274.358 131.728 281.296 127.724C281.634 127.531 281.907 127.231 282.079 126.864C282.251 126.497 282.313 126.081 282.256 125.675C282.2 125.268 282.028 124.891 281.764 124.594C281.499 124.297 281.156 124.096 280.782 124.018ZM72.907 131.582C74.3127 129.857 75.5206 127.957 76.5047 125.921H76.5573C76.0471 128.026 75.3893 130.085 74.5896 132.082C73.0204 132.407 72.0739 132.577 72.0739 132.577L72.907 131.582Z" fill="url(#paint0_linear)"/>
<path d="M111.533 4.69508C107.014 8.10924 106.245 14.8244 103.784 20.1512C99.4503 29.488 89.169 35.5864 87.9595 45.9421C87.6607 48.4952 87.9595 51.1437 87.2677 53.6045C85.2944 60.5729 76.6902 62.6315 73.1533 68.8491C69.7022 74.9326 73.1893 84.1353 79.6072 85.8901C82.3498 86.6408 85.2861 86.188 88.0204 86.9775C90.7547 87.767 93.4033 90.6509 92.4983 93.5317C91.8258 95.6768 89.454 96.8982 89.0223 99.1147C88.6459 101.021 89.8525 102.839 91.0204 104.322C92.5038 106.199 94.0868 108.046 96.0712 109.277C101.529 112.661 108.337 110.629 114.63 110.406C122.244 110.163 129.708 112.717 135.793 117.648C137.534 119.069 139.173 120.711 140.252 122.758C143.769 129.425 140.443 137.794 141.19 145.417C142.037 154.081 148.048 161.034 154.117 166.793C156.542 169.093 159.099 171.36 162.143 172.549C165.187 173.738 168.827 173.672 171.387 171.551C174.077 169.322 175.012 165.375 175.029 161.72C175.045 158.064 174.331 154.426 174.503 150.777C174.586 148.989 175.192 146.865 176.811 146.514C177.622 146.338 178.444 146.693 179.183 147.092C184.347 149.886 189.301 155.359 194.836 153.583C199.09 152.216 201.201 147.047 201.871 142.325C202.886 135.218 201.957 127.947 199.197 121.399C197.93 118.42 196.289 115.599 195.27 112.5C190.992 99.4842 198.423 84.4422 193.928 71.5095C192.071 66.1708 188.365 61.839 185.805 56.8489C180.049 45.6292 180.306 31.5942 174.038 20.6963C168.162 10.4777 156.578 4.42398 145.485 5.77355C138.943 6.569 134.269 9.0894 128.172 6.07147C123.024 3.53618 116.847 0.679128 111.533 4.69508Z" fill="#40243E"/>
<path d="M155.399 99.0672C155.399 99.0672 173.388 93.1088 180.583 127.667L198.849 171.759C198.849 171.759 223.757 138.393 223.757 130.349C223.757 130.349 228.738 114.559 247.834 118.73C260.734 121.548 272.116 124.092 278.147 125.448C278.514 125.53 278.848 125.732 279.105 126.025C279.362 126.319 279.528 126.69 279.582 127.089C279.636 127.488 279.575 127.895 279.407 128.256C279.239 128.616 278.972 128.912 278.642 129.103C271.784 133.066 257.02 139.653 240.362 135.115C240.362 135.115 234.273 134.52 231.506 147.032C228.738 159.545 208.535 200.956 208.535 200.956C208.535 200.956 203 216.447 183.074 191.422C163.148 166.397 148.203 144.947 148.203 144.947L155.399 99.0672Z" fill="#FFBCC8"/>
<path d="M155.399 103.238L153.013 111.696L150.655 120.062L145.989 136.605L123.849 141.074L116.634 136.119L107.797 130.051L100.178 124.39L88.9781 116.049L79.8452 95.4921C79.8452 95.4921 82.3637 95.0124 90.2151 93.4751L101.155 91.3212C108.711 89.8316 111.567 83.7779 112.438 77.6169C113.482 70.2404 111.672 62.7209 111.672 62.7209H139.624C139.624 62.7209 142.751 67.7855 142.261 76.5324C142.107 79.1208 141.687 81.6827 141.008 84.1711C138.55 93.3292 144.099 96.3858 147.863 97.3779C148.88 97.6559 149.922 97.8226 150.971 97.8754L155.399 103.238Z" fill="#FFBCC8"/>
<path opacity="0.1" d="M142.253 76.5325C137.969 79.944 132.824 81.8749 127.499 82.0696C122.173 82.2643 116.919 80.7137 112.43 77.6229C113.473 70.2464 111.663 62.7269 111.663 62.7269H139.615C139.615 62.7269 142.751 67.7706 142.253 76.5325Z" fill="black"/>
<path d="M126.616 81.1919C141.137 81.1919 152.908 68.5205 152.908 52.8895C152.908 37.2586 141.137 24.5872 126.616 24.5872C112.096 24.5872 100.325 37.2586 100.325 52.8895C100.325 68.5205 112.096 81.1919 126.616 81.1919Z" fill="#FFBCC8"/>
<path opacity="0.1" d="M155.399 103.238L153.013 111.696L150.655 120.062L145.989 136.605L123.849 141.074L116.634 136.119L107.797 130.051L100.178 124.39L88.9781 116.049L79.8452 95.4921C79.8452 95.4921 82.3637 95.0125 90.2151 93.4752C95.7502 110.054 102.752 116.227 109.07 118.229C112.848 119.421 116.379 119.123 119.194 118.676C122.812 118.053 126.511 118.256 130.051 119.272C138.547 121.816 143.02 116.945 145.369 110.763C147.107 106.19 147.683 100.896 147.86 97.3571C148.878 97.6351 149.919 97.8018 150.968 97.8546L155.399 103.238Z" fill="black"/>
<path d="M69.0518 247.431C69.0518 247.431 79.5684 195.891 74.5868 181.293C73.1615 177.122 72.4143 171.664 72.0794 166.016C71.2492 151.933 72.9263 136.605 72.9263 136.605C73.1643 136.107 73.3885 135.613 73.6043 135.115C74.1578 133.844 74.6449 132.601 75.0656 131.385C80.9964 114.207 73.6182 102.77 69.8765 98.3968C69.2764 97.6791 68.629 97.009 67.9392 96.3918L89.1108 93.8594C94.6763 111.052 101.814 117.395 108.234 119.427C112.012 120.619 115.543 120.321 118.358 119.874C121.976 119.251 125.675 119.454 129.215 120.47C137.711 123.014 142.184 118.143 144.533 111.961C147.45 104.287 147.09 94.5953 147.09 94.5953L159.268 98.4683C159.268 98.4683 158.194 105.648 157.222 115.083C156.993 117.297 156.769 119.632 156.566 122.031C155.736 132.035 155.244 143.097 156.223 150.604C157.219 158.023 156.864 165.58 155.18 172.853C154.469 175.748 153.325 178.499 151.793 180.998C150.024 183.935 147.852 190.576 153.73 201.554C162.032 217.046 170.612 247.434 170.612 247.434L69.0518 247.431Z" fill="#FF808E"/>
<path d="M159.135 98.6202C159.135 98.6202 169.189 115.602 155.996 130.2C142.804 144.798 148.065 124.241 148.065 124.241L151.386 100.408L159.135 98.6202Z" fill="#FF808E"/>
<path opacity="0.1" d="M69.8765 98.3968C70.6268 98.1412 71.3963 97.9558 72.1763 97.8427C75.7741 99.6898 77.7667 104.817 78.8488 110.171C79.5711 113.802 79.6084 117.552 78.9585 121.199C78.3086 124.846 76.9848 128.315 75.0656 131.4C80.9964 114.207 73.6182 102.77 69.8765 98.3968Z" fill="black"/>
<path opacity="0.1" d="M156.572 122.034C150.663 122.454 142.945 121.709 142.945 121.709C143.985 126.833 141.838 130.837 139.624 133.447C138.777 134.456 137.709 135.221 136.516 135.67C135.324 136.119 134.046 136.239 132.799 136.018C120.03 133.635 100.613 146.147 100.613 146.147C100.613 146.147 86.7251 158.222 72.0794 166.025C71.2491 151.942 72.9263 136.614 72.9263 136.614C73.1643 136.116 73.3884 135.622 73.6043 135.124C79.5213 133.933 101.019 129.226 105.306 122.314C105.943 121.286 106.967 120.324 108.24 119.43C111.901 116.88 117.76 114.881 123.331 113.421C130.265 111.59 137.446 111.1 144.539 111.973C147.584 112.349 150.597 112.981 153.55 113.865C154.84 114.249 156.085 114.663 157.228 115.095C160.361 116.287 162.735 117.619 163.148 119.037C163.704 120.943 160.546 121.754 156.572 122.034Z" fill="black"/>
<path opacity="0.1" d="M150.655 120.062C146.396 119.984 142.668 119.624 142.668 119.624C143.709 124.748 141.561 128.752 139.347 131.362C138.5 132.371 137.432 133.135 136.239 133.585C135.047 134.034 133.769 134.154 132.522 133.933C127.71 133.039 121.95 134.257 116.645 136.119L107.797 130.051L100.178 124.39C102.392 123.112 104.105 121.709 105.03 120.219C107.487 116.251 115.546 113.299 123.055 111.326C132.908 108.711 143.218 108.838 153.013 111.696L153.273 111.77C158.086 113.215 162.309 115.006 162.871 116.942C163.679 119.728 156.644 120.175 150.655 120.062Z" fill="black"/>
<path d="M71.8995 96.3471C71.8995 96.3471 57.4226 97.932 53.2021 118.134C52.5496 121.274 51.2333 124.21 49.3553 126.714C45.1597 132.294 38.2215 143.159 38.6089 153.589C39.1625 168.485 39.1625 174.444 57.4281 170.273C75.6938 166.102 100.325 144.652 100.325 144.652C100.325 144.652 119.742 132.16 132.511 134.523C133.758 134.743 135.036 134.623 136.228 134.174C137.42 133.725 138.489 132.96 139.336 131.951C141.55 129.342 143.711 125.338 142.657 120.213C142.657 120.213 164.244 122.299 162.86 117.532C162.306 115.596 158.075 113.805 153.262 112.363C143.391 109.434 132.986 109.28 123.043 111.916C115.521 113.892 107.476 116.844 105.019 120.809C100.037 128.853 71.8082 133.918 71.8082 133.918L72.6385 132.914C75.3194 129.654 77.2528 125.764 78.2833 121.554C79.3138 117.344 79.4127 112.933 78.5721 108.675C77.4927 103.321 75.5084 98.1942 71.8995 96.3471Z" fill="#FFBCC8"/>
<path d="M68.083 96.2368C68.083 96.2368 67.2528 132.285 79.7066 126.923C92.1604 121.56 82.4741 96.2368 82.4741 96.2368L76.9391 95.641L68.083 96.2368Z" fill="#FF808E"/>
<path opacity="0.1" d="M105.353 53.3752C113.564 52.394 121.662 50.5205 129.522 47.7833C131.543 47.0802 133.737 46.1447 134.681 44.101C134.925 43.5737 135.107 42.948 135.586 42.659C135.993 42.4118 136.496 42.4892 136.953 42.6024C139.651 43.2906 141.968 45.1109 144.539 46.2281C147.11 47.3453 150.384 47.6075 152.36 45.5101C154.693 43.0314 153.921 38.7712 152.385 35.6579C146.681 24.0748 133.319 18.7868 121.164 19.7461C119.457 19.8801 117.722 20.1274 116.183 20.9378C112.928 22.621 111.146 26.3658 109.383 29.7591C105.954 36.3402 87.824 55.4636 105.353 53.3752Z" fill="black"/>
<path d="M105.353 52.4814C113.564 51.5002 121.662 49.6267 129.522 46.8895C131.543 46.1864 133.737 45.2509 134.681 43.2072C134.925 42.6799 135.107 42.0542 135.586 41.7652C135.993 41.518 136.496 41.5954 136.953 41.7086C139.651 42.3968 141.968 44.2171 144.539 45.3343C147.11 46.4515 150.384 46.7137 152.36 44.6163C154.693 42.1376 153.921 37.8774 152.385 34.7641C146.681 23.181 133.319 17.893 121.164 18.8523C119.457 18.9863 117.722 19.2336 116.183 20.044C112.928 21.7272 111.146 25.472 109.383 28.8653C105.954 35.4464 87.824 54.5698 105.353 52.4814Z" fill="#40243E"/>
<path d="M283.74 84.0222H227.559C226.88 84.0222 226.229 84.3125 225.749 84.8293C225.269 85.3461 224.999 86.047 224.999 86.7779V122.23C224.999 122.961 225.269 123.662 225.749 124.179C226.229 124.696 226.88 124.986 227.559 124.986H283.74C284.419 124.986 285.07 124.696 285.55 124.179C286.03 123.662 286.3 122.961 286.3 122.23V86.7779C286.3 86.047 286.03 85.3461 285.55 84.8293C285.07 84.3125 284.419 84.0222 283.74 84.0222Z" fill="url(#paint1_linear)"/>
<path d="M282.284 84.5048H229.007C227.186 84.5048 225.71 86.0934 225.71 88.053V120.958C225.71 122.918 227.186 124.506 229.007 124.506H282.284C284.105 124.506 285.58 122.918 285.58 120.958V88.053C285.58 86.0934 284.105 84.5048 282.284 84.5048Z" fill="#6C63FF"/>
<path d="M285.58 91.5059H225.71V98.8407H285.58V91.5059Z" fill="#6C63FF"/>
<path opacity="0.3" d="M285.58 91.5059H225.71V98.8407H285.58V91.5059Z" fill="black"/>
<path d="M279.901 104.284H231.387V107.841H279.901V104.284Z" fill="#D6D6E3"/>
<path d="M235.413 121.84C238.036 121.84 240.162 119.551 240.162 116.728C240.162 113.904 238.036 111.615 235.413 111.615C232.791 111.615 230.664 113.904 230.664 116.728C230.664 119.551 232.791 121.84 235.413 121.84Z" fill="#6C63FF"/>
<path opacity="0.3" d="M235.413 121.84C238.036 121.84 240.162 119.551 240.162 116.728C240.162 113.904 238.036 111.615 235.413 111.615C232.791 111.615 230.664 113.904 230.664 116.728C230.664 119.551 232.791 121.84 235.413 121.84Z" fill="black"/>
<path opacity="0.05" d="M70.0205 134.073C70.0205 134.073 64.7622 137.079 63.8904 140.752C63.0186 144.425 61.9946 145.096 61.9946 145.096" fill="black"/>
<path opacity="0.05" d="M198.987 171.611C198.987 171.611 196.496 180.846 198.987 182.038V171.611Z" fill="black"/>
<path opacity="0.05" d="M74.7251 182.038C74.7251 182.038 96.3118 187.102 112.363 176.675H119.282C119.282 176.675 140.039 187.996 150.002 184.719" fill="black"/>
<path d="M227.963 164.124L223.777 174.448L242.466 183.228L246.651 172.905L227.963 164.124Z" fill="#8ED16F"/>
<path d="M239.092 175.657C239.566 174.487 238.189 172.711 236.017 171.69C233.844 170.669 231.698 170.79 231.224 171.96C230.749 173.13 232.126 174.907 234.299 175.928C236.471 176.948 238.617 176.827 239.092 175.657Z" fill="#8ED16F"/>
<path opacity="0.1" d="M239.092 175.657C239.566 174.487 238.189 172.711 236.017 171.69C233.844 170.669 231.698 170.79 231.224 171.96C230.749 173.13 232.126 174.907 234.299 175.928C236.471 176.948 238.617 176.827 239.092 175.657Z" fill="black"/>
<path d="M255.37 127.343L251.184 137.667L269.872 146.448L274.058 136.124L255.37 127.343Z" fill="#8ED16F"/>
<path d="M266.499 138.876C266.973 137.706 265.596 135.93 263.424 134.909C261.251 133.888 259.105 134.009 258.631 135.179C258.156 136.349 259.533 138.126 261.705 139.146C263.878 140.167 266.024 140.046 266.499 138.876Z" fill="#8ED16F"/>
<path opacity="0.1" d="M266.499 138.876C266.973 137.706 265.596 135.93 263.424 134.909C261.251 133.888 259.105 134.009 258.631 135.179C258.156 136.349 259.533 138.126 261.705 139.146C263.878 140.167 266.024 140.046 266.499 138.876Z" fill="black"/>
<path d="M288.565 164.707L278.297 166.874L282.219 188.415L292.488 186.248L288.565 164.707Z" fill="#8ED16F"/>
<path d="M286.088 181.122C287.252 180.877 287.826 178.647 287.37 176.143C286.914 173.639 285.601 171.808 284.437 172.053C283.273 172.299 282.699 174.528 283.155 177.032C283.611 179.537 284.924 181.368 286.088 181.122Z" fill="#8ED16F"/>
<path opacity="0.1" d="M286.088 181.122C287.252 180.877 287.826 178.647 287.37 176.143C286.914 173.639 285.601 171.808 284.437 172.053C283.273 172.299 282.699 174.528 283.155 177.032C283.611 179.537 284.924 181.368 286.088 181.122Z" fill="black"/>
<path d="M251.623 214.659L247.437 224.983L266.126 233.764L270.312 223.44L251.623 214.659Z" fill="#8ED16F"/>
<path d="M262.757 226.194C263.231 225.024 261.855 223.247 259.682 222.227C257.509 221.206 255.363 221.327 254.889 222.497C254.414 223.667 255.791 225.443 257.964 226.464C260.137 227.485 262.283 227.364 262.757 226.194Z" fill="#8ED16F"/>
<path opacity="0.1" d="M262.757 226.194C263.231 225.024 261.855 223.247 259.682 222.227C257.509 221.206 255.363 221.327 254.889 222.497C254.414 223.667 255.791 225.443 257.964 226.464C260.137 227.485 262.283 227.364 262.757 226.194Z" fill="black"/>
<path d="M205.446 204.903L201.26 215.227L219.949 224.008L224.135 213.684L205.446 204.903Z" fill="#8ED16F"/>
<path d="M216.577 216.437C217.052 215.267 215.675 213.491 213.503 212.47C211.33 211.449 209.184 211.57 208.709 212.74C208.235 213.911 209.612 215.687 211.784 216.708C213.957 217.729 216.103 217.607 216.577 216.437Z" fill="#8ED16F"/>
<path opacity="0.1" d="M216.577 216.437C217.052 215.267 215.675 213.491 213.503 212.47C211.33 211.449 209.184 211.57 208.709 212.74C208.235 213.911 209.612 215.687 211.784 216.708C213.957 217.729 216.103 217.607 216.577 216.437Z" fill="black"/>
<defs>
<linearGradient id="paint0_linear" x1="160.361" y1="247.282" x2="160.361" y2="0.00875475" gradientUnits="userSpaceOnUse">
<stop stop-color="#808080" stop-opacity="0.25"/>
<stop offset="0.54" stop-color="#808080" stop-opacity="0.12"/>
<stop offset="1" stop-color="#808080" stop-opacity="0.1"/>
</linearGradient>
<linearGradient id="paint1_linear" x1="60405.2" y1="18692.3" x2="60405.2" y2="13059.3" gradientUnits="userSpaceOnUse">
<stop stop-color="#808080" stop-opacity="0.25"/>
<stop offset="0.54" stop-color="#808080" stop-opacity="0.12"/>
<stop offset="1" stop-color="#808080" stop-opacity="0.1"/>
</linearGradient>
</defs>
</svg>
