<svg width="516" height="42" viewBox="0 0 516 42" fill="none" xmlns="http://www.w3.org/2000/svg">
<path d="M14.14 14V28H12.14V21.76H4.1V28H2.1V14H4.1V20.02H12.14V14H14.14ZM22.5905 28.12C21.5371 28.12 20.5905 27.8867 19.7505 27.42C18.9105 26.9533 18.2505 26.3133 17.7705 25.5C17.3038 24.6733 17.0705 23.74 17.0705 22.7C17.0705 21.66 17.3038 20.7333 17.7705 19.92C18.2505 19.0933 18.9105 18.4533 19.7505 18C20.5905 17.5333 21.5371 17.3 22.5905 17.3C23.6438 17.3 24.5838 17.5333 25.4105 18C26.2505 18.4533 26.9038 19.0933 27.3705 19.92C27.8505 20.7333 28.0905 21.66 28.0905 22.7C28.0905 23.74 27.8505 24.6733 27.3705 25.5C26.9038 26.3133 26.2505 26.9533 25.4105 27.42C24.5838 27.8867 23.6438 28.12 22.5905 28.12ZM22.5905 26.44C23.2705 26.44 23.8771 26.2867 24.4105 25.98C24.9571 25.66 25.3838 25.22 25.6905 24.66C25.9971 24.0867 26.1505 23.4333 26.1505 22.7C26.1505 21.9667 25.9971 21.32 25.6905 20.76C25.3838 20.1867 24.9571 19.7467 24.4105 19.44C23.8771 19.1333 23.2705 18.98 22.5905 18.98C21.9105 18.98 21.2971 19.1333 20.7505 19.44C20.2171 19.7467 19.7905 20.1867 19.4705 20.76C19.1638 21.32 19.0105 21.9667 19.0105 22.7C19.0105 23.4333 19.1638 24.0867 19.4705 24.66C19.7905 25.22 20.2171 25.66 20.7505 25.98C21.2971 26.2867 21.9105 26.44 22.5905 26.44ZM44.0058 17.3C45.3391 17.3 46.3924 17.6867 47.1658 18.46C47.9524 19.2333 48.3458 20.38 48.3458 21.9V28H46.4258V22.12C46.4258 21.0933 46.1858 20.32 45.7058 19.8C45.2391 19.28 44.5658 19.02 43.6858 19.02C42.7124 19.02 41.9391 19.3267 41.3658 19.94C40.7924 20.54 40.5058 21.4067 40.5058 22.54V28H38.5858V22.12C38.5858 21.0933 38.3458 20.32 37.8658 19.8C37.3991 19.28 36.7258 19.02 35.8458 19.02C34.8724 19.02 34.0991 19.3267 33.5258 19.94C32.9524 20.54 32.6658 21.4067 32.6658 22.54V28H30.7458V17.4H32.5858V18.98C32.9724 18.4333 33.4791 18.02 34.1058 17.74C34.7324 17.4467 35.4458 17.3 36.2458 17.3C37.0724 17.3 37.8058 17.4667 38.4458 17.8C39.0858 18.1333 39.5791 18.62 39.9258 19.26C40.3258 18.6467 40.8791 18.1667 41.5858 17.82C42.3058 17.4733 43.1124 17.3 44.0058 17.3ZM61.5172 22.76C61.5172 22.9067 61.5039 23.1 61.4772 23.34H52.8772C52.9972 24.2733 53.4039 25.0267 54.0972 25.6C54.8039 26.16 55.6772 26.44 56.7172 26.44C57.9839 26.44 59.0039 26.0133 59.7772 25.16L60.8372 26.4C60.3572 26.96 59.7572 27.3867 59.0372 27.68C58.3305 27.9733 57.5372 28.12 56.6572 28.12C55.5372 28.12 54.5439 27.8933 53.6772 27.44C52.8105 26.9733 52.1372 26.3267 51.6572 25.5C51.1905 24.6733 50.9572 23.74 50.9572 22.7C50.9572 21.6733 51.1839 20.7467 51.6372 19.92C52.1039 19.0933 52.7372 18.4533 53.5372 18C54.3505 17.5333 55.2639 17.3 56.2772 17.3C57.2905 17.3 58.1905 17.5333 58.9772 18C59.7772 18.4533 60.3972 19.0933 60.8372 19.92C61.2905 20.7467 61.5172 21.6933 61.5172 22.76ZM56.2772 18.92C55.3572 18.92 54.5839 19.2 53.9572 19.76C53.3439 20.32 52.9839 21.0533 52.8772 21.96H59.6772C59.5705 21.0667 59.2039 20.34 58.5772 19.78C57.9639 19.2067 57.1972 18.92 56.2772 18.92Z" fill="#3F3D56"/>
<path d="M272.02 24.5H264.58L263.04 28H260.98L267.32 14H269.3L275.66 28H273.56L272.02 24.5ZM271.32 22.9L268.3 16.04L265.28 22.9H271.32ZM283.088 17.3C284.115 17.3 285.035 17.5267 285.848 17.98C286.662 18.4333 287.295 19.0667 287.748 19.88C288.215 20.6933 288.448 21.6333 288.448 22.7C288.448 23.7667 288.215 24.7133 287.748 25.54C287.295 26.3533 286.662 26.9867 285.848 27.44C285.035 27.8933 284.115 28.12 283.088 28.12C282.302 28.12 281.582 27.9667 280.928 27.66C280.275 27.3533 279.735 26.9067 279.308 26.32V28H277.468V13.16H279.388V19C279.815 18.44 280.348 18.02 280.988 17.74C281.628 17.4467 282.328 17.3 283.088 17.3ZM282.928 26.44C283.608 26.44 284.215 26.2867 284.748 25.98C285.295 25.66 285.722 25.22 286.028 24.66C286.348 24.0867 286.508 23.4333 286.508 22.7C286.508 21.9667 286.348 21.32 286.028 20.76C285.722 20.1867 285.295 19.7467 284.748 19.44C284.215 19.1333 283.608 18.98 282.928 18.98C282.262 18.98 281.655 19.1333 281.108 19.44C280.562 19.7467 280.135 20.1867 279.828 20.76C279.522 21.32 279.368 21.9667 279.368 22.7C279.368 23.4333 279.522 24.0867 279.828 24.66C280.135 25.22 280.562 25.66 281.108 25.98C281.655 26.2867 282.262 26.44 282.928 26.44ZM295.641 28.12C294.588 28.12 293.641 27.8867 292.801 27.42C291.961 26.9533 291.301 26.3133 290.821 25.5C290.355 24.6733 290.121 23.74 290.121 22.7C290.121 21.66 290.355 20.7333 290.821 19.92C291.301 19.0933 291.961 18.4533 292.801 18C293.641 17.5333 294.588 17.3 295.641 17.3C296.695 17.3 297.635 17.5333 298.461 18C299.301 18.4533 299.955 19.0933 300.421 19.92C300.901 20.7333 301.141 21.66 301.141 22.7C301.141 23.74 300.901 24.6733 300.421 25.5C299.955 26.3133 299.301 26.9533 298.461 27.42C297.635 27.8867 296.695 28.12 295.641 28.12ZM295.641 26.44C296.321 26.44 296.928 26.2867 297.461 25.98C298.008 25.66 298.435 25.22 298.741 24.66C299.048 24.0867 299.201 23.4333 299.201 22.7C299.201 21.9667 299.048 21.32 298.741 20.76C298.435 20.1867 298.008 19.7467 297.461 19.44C296.928 19.1333 296.321 18.98 295.641 18.98C294.961 18.98 294.348 19.1333 293.801 19.44C293.268 19.7467 292.841 20.1867 292.521 20.76C292.215 21.32 292.061 21.9667 292.061 22.7C292.061 23.4333 292.215 24.0867 292.521 24.66C292.841 25.22 293.268 25.66 293.801 25.98C294.348 26.2867 294.961 26.44 295.641 26.44ZM313.677 17.4V28H311.857V26.4C311.47 26.9467 310.957 27.3733 310.317 27.68C309.69 27.9733 309.003 28.12 308.257 28.12C306.843 28.12 305.73 27.7333 304.917 26.96C304.103 26.1733 303.697 25.02 303.697 23.5V17.4H305.617V23.28C305.617 24.3067 305.863 25.0867 306.357 25.62C306.85 26.14 307.557 26.4 308.477 26.4C309.49 26.4 310.29 26.0933 310.877 25.48C311.463 24.8667 311.757 24 311.757 22.88V17.4H313.677ZM323.292 27.38C323.012 27.62 322.665 27.8067 322.252 27.94C321.838 28.06 321.412 28.12 320.972 28.12C319.905 28.12 319.078 27.8333 318.492 27.26C317.905 26.6867 317.612 25.8667 317.612 24.8V18.98H315.812V17.4H317.612V15.08H319.532V17.4H322.572V18.98H319.532V24.72C319.532 25.2933 319.672 25.7333 319.952 26.04C320.245 26.3467 320.658 26.5 321.192 26.5C321.778 26.5 322.278 26.3333 322.692 26L323.292 27.38Z" fill="#3F3D56"/>
<path d="M119.36 28.16C117.96 28.16 116.693 27.8533 115.56 27.24C114.44 26.6133 113.56 25.76 112.92 24.68C112.28 23.5867 111.96 22.36 111.96 21C111.96 19.64 112.28 18.42 112.92 17.34C113.56 16.2467 114.447 15.3933 115.58 14.78C116.713 14.1533 117.98 13.84 119.38 13.84C120.473 13.84 121.473 14.0267 122.38 14.4C123.287 14.76 124.06 15.3 124.7 16.02L123.4 17.28C122.347 16.1733 121.033 15.62 119.46 15.62C118.42 15.62 117.48 15.8533 116.64 16.32C115.8 16.7867 115.14 17.4333 114.66 18.26C114.193 19.0733 113.96 19.9867 113.96 21C113.96 22.0133 114.193 22.9333 114.66 23.76C115.14 24.5733 115.8 25.2133 116.64 25.68C117.48 26.1467 118.42 26.38 119.46 26.38C121.02 26.38 122.333 25.82 123.4 24.7L124.7 25.96C124.06 26.68 123.28 27.2267 122.36 27.6C121.453 27.9733 120.453 28.16 119.36 28.16ZM131.364 28.12C130.311 28.12 129.364 27.8867 128.524 27.42C127.684 26.9533 127.024 26.3133 126.544 25.5C126.077 24.6733 125.844 23.74 125.844 22.7C125.844 21.66 126.077 20.7333 126.544 19.92C127.024 19.0933 127.684 18.4533 128.524 18C129.364 17.5333 130.311 17.3 131.364 17.3C132.417 17.3 133.357 17.5333 134.184 18C135.024 18.4533 135.677 19.0933 136.144 19.92C136.624 20.7333 136.864 21.66 136.864 22.7C136.864 23.74 136.624 24.6733 136.144 25.5C135.677 26.3133 135.024 26.9533 134.184 27.42C133.357 27.8867 132.417 28.12 131.364 28.12ZM131.364 26.44C132.044 26.44 132.651 26.2867 133.184 25.98C133.731 25.66 134.157 25.22 134.464 24.66C134.771 24.0867 134.924 23.4333 134.924 22.7C134.924 21.9667 134.771 21.32 134.464 20.76C134.157 20.1867 133.731 19.7467 133.184 19.44C132.651 19.1333 132.044 18.98 131.364 18.98C130.684 18.98 130.071 19.1333 129.524 19.44C128.991 19.7467 128.564 20.1867 128.244 20.76C127.937 21.32 127.784 21.9667 127.784 22.7C127.784 23.4333 127.937 24.0867 128.244 24.66C128.564 25.22 128.991 25.66 129.524 25.98C130.071 26.2867 130.684 26.44 131.364 26.44ZM145.179 17.3C146.526 17.3 147.593 17.6933 148.379 18.48C149.179 19.2533 149.579 20.3933 149.579 21.9V28H147.659V22.12C147.659 21.0933 147.413 20.32 146.919 19.8C146.426 19.28 145.719 19.02 144.799 19.02C143.759 19.02 142.939 19.3267 142.339 19.94C141.739 20.54 141.439 21.4067 141.439 22.54V28H139.519V17.4H141.359V19C141.746 18.4533 142.266 18.0333 142.919 17.74C143.586 17.4467 144.339 17.3 145.179 17.3ZM159.093 27.38C158.813 27.62 158.466 27.8067 158.053 27.94C157.639 28.06 157.213 28.12 156.773 28.12C155.706 28.12 154.879 27.8333 154.293 27.26C153.706 26.6867 153.413 25.8667 153.413 24.8V18.98H151.613V17.4H153.413V15.08H155.333V17.4H158.373V18.98H155.333V24.72C155.333 25.2933 155.473 25.7333 155.753 26.04C156.046 26.3467 156.459 26.5 156.993 26.5C157.579 26.5 158.079 26.3333 158.493 26L159.093 27.38ZM165.274 17.3C166.74 17.3 167.86 17.66 168.634 18.38C169.42 19.1 169.814 20.1733 169.814 21.6V28H167.994V26.6C167.674 27.0933 167.214 27.4733 166.614 27.74C166.027 27.9933 165.327 28.12 164.514 28.12C163.327 28.12 162.374 27.8333 161.654 27.26C160.947 26.6867 160.594 25.9333 160.594 25C160.594 24.0667 160.934 23.32 161.614 22.76C162.294 22.1867 163.374 21.9 164.854 21.9H167.894V21.52C167.894 20.6933 167.654 20.06 167.174 19.62C166.694 19.18 165.987 18.96 165.054 18.96C164.427 18.96 163.814 19.0667 163.214 19.28C162.614 19.48 162.107 19.7533 161.694 20.1L160.894 18.66C161.44 18.22 162.094 17.8867 162.854 17.66C163.614 17.42 164.42 17.3 165.274 17.3ZM164.834 26.64C165.567 26.64 166.2 26.48 166.734 26.16C167.267 25.8267 167.654 25.36 167.894 24.76V23.28H164.934C163.307 23.28 162.494 23.8267 162.494 24.92C162.494 25.4533 162.7 25.8733 163.114 26.18C163.527 26.4867 164.1 26.64 164.834 26.64ZM178.045 28.12C176.965 28.12 175.999 27.8867 175.145 27.42C174.305 26.9533 173.645 26.3133 173.165 25.5C172.685 24.6733 172.445 23.74 172.445 22.7C172.445 21.66 172.685 20.7333 173.165 19.92C173.645 19.0933 174.305 18.4533 175.145 18C175.999 17.5333 176.965 17.3 178.045 17.3C179.005 17.3 179.859 17.4933 180.605 17.88C181.365 18.2667 181.952 18.8267 182.365 19.56L180.905 20.5C180.572 19.9933 180.159 19.6133 179.665 19.36C179.172 19.1067 178.625 18.98 178.025 18.98C177.332 18.98 176.705 19.1333 176.145 19.44C175.599 19.7467 175.165 20.1867 174.845 20.76C174.539 21.32 174.385 21.9667 174.385 22.7C174.385 23.4467 174.539 24.1067 174.845 24.68C175.165 25.24 175.599 25.6733 176.145 25.98C176.705 26.2867 177.332 26.44 178.025 26.44C178.625 26.44 179.172 26.3133 179.665 26.06C180.159 25.8067 180.572 25.4267 180.905 24.92L182.365 25.84C181.952 26.5733 181.365 27.14 180.605 27.54C179.859 27.9267 179.005 28.12 178.045 28.12ZM190.948 27.38C190.668 27.62 190.321 27.8067 189.908 27.94C189.495 28.06 189.068 28.12 188.628 28.12C187.561 28.12 186.735 27.8333 186.148 27.26C185.561 26.6867 185.268 25.8667 185.268 24.8V18.98H183.468V17.4H185.268V15.08H187.188V17.4H190.228V18.98H187.188V24.72C187.188 25.2933 187.328 25.7333 187.608 26.04C187.901 26.3467 188.315 26.5 188.848 26.5C189.435 26.5 189.935 26.3333 190.348 26L190.948 27.38ZM208.52 17.4V28H206.7V26.4C206.314 26.9467 205.8 27.3733 205.16 27.68C204.534 27.9733 203.847 28.12 203.1 28.12C201.687 28.12 200.574 27.7333 199.76 26.96C198.947 26.1733 198.54 25.02 198.54 23.5V17.4H200.46V23.28C200.46 24.3067 200.707 25.0867 201.2 25.62C201.694 26.14 202.4 26.4 203.32 26.4C204.334 26.4 205.134 26.0933 205.72 25.48C206.307 24.8667 206.6 24 206.6 22.88V17.4H208.52ZM215.215 28.12C214.349 28.12 213.515 28.0067 212.715 27.78C211.915 27.54 211.289 27.24 210.835 26.88L211.635 25.36C212.102 25.6933 212.669 25.96 213.335 26.16C214.002 26.36 214.675 26.46 215.355 26.46C217.035 26.46 217.875 25.98 217.875 25.02C217.875 24.7 217.762 24.4467 217.535 24.26C217.309 24.0733 217.022 23.94 216.675 23.86C216.342 23.7667 215.862 23.6667 215.235 23.56C214.382 23.4267 213.682 23.2733 213.135 23.1C212.602 22.9267 212.142 22.6333 211.755 22.22C211.369 21.8067 211.175 21.2267 211.175 20.48C211.175 19.52 211.575 18.7533 212.375 18.18C213.175 17.5933 214.249 17.3 215.595 17.3C216.302 17.3 217.009 17.3867 217.715 17.56C218.422 17.7333 219.002 17.9667 219.455 18.26L218.635 19.78C217.769 19.22 216.749 18.94 215.575 18.94C214.762 18.94 214.142 19.0733 213.715 19.34C213.289 19.6067 213.075 19.96 213.075 20.4C213.075 20.7467 213.195 21.02 213.435 21.22C213.675 21.42 213.969 21.5667 214.315 21.66C214.675 21.7533 215.175 21.86 215.815 21.98C216.669 22.1267 217.355 22.2867 217.875 22.46C218.409 22.62 218.862 22.9 219.235 23.3C219.609 23.7 219.795 24.26 219.795 24.98C219.795 25.94 219.382 26.7067 218.555 27.28C217.742 27.84 216.629 28.12 215.215 28.12Z" fill="#3F3D56"/>
<rect x="374" width="142" height="42" rx="21" fill="#6C63FF"/>
<path d="M414.66 14H417.9V25.36H424.92V28H414.66V14ZM431.552 28.16C430.419 28.16 429.399 27.9267 428.492 27.46C427.599 26.98 426.899 26.32 426.392 25.48C425.886 24.64 425.632 23.6867 425.632 22.62C425.632 21.5533 425.886 20.6 426.392 19.76C426.899 18.92 427.599 18.2667 428.492 17.8C429.399 17.32 430.419 17.08 431.552 17.08C432.686 17.08 433.699 17.32 434.592 17.8C435.486 18.2667 436.186 18.92 436.692 19.76C437.199 20.6 437.452 21.5533 437.452 22.62C437.452 23.6867 437.199 24.64 436.692 25.48C436.186 26.32 435.486 26.98 434.592 27.46C433.699 27.9267 432.686 28.16 431.552 28.16ZM431.552 25.6C432.352 25.6 433.006 25.3333 433.512 24.8C434.032 24.2533 434.292 23.5267 434.292 22.62C434.292 21.7133 434.032 20.9933 433.512 20.46C433.006 19.9133 432.352 19.64 431.552 19.64C430.752 19.64 430.092 19.9133 429.572 20.46C429.052 20.9933 428.792 21.7133 428.792 22.62C428.792 23.5267 429.052 24.2533 429.572 24.8C430.092 25.3333 430.752 25.6 431.552 25.6ZM450.638 17.24V26.2C450.638 28.1733 450.124 29.64 449.098 30.6C448.071 31.56 446.571 32.04 444.598 32.04C443.558 32.04 442.571 31.9133 441.638 31.66C440.704 31.4067 439.931 31.04 439.318 30.56L440.558 28.32C441.011 28.6933 441.584 28.9867 442.278 29.2C442.971 29.4267 443.664 29.54 444.358 29.54C445.438 29.54 446.231 29.2933 446.738 28.8C447.258 28.32 447.518 27.5867 447.518 26.6V26.14C446.704 27.0333 445.571 27.48 444.118 27.48C443.131 27.48 442.224 27.2667 441.398 26.84C440.584 26.4 439.938 25.7867 439.458 25C438.978 24.2133 438.738 23.3067 438.738 22.28C438.738 21.2533 438.978 20.3467 439.458 19.56C439.938 18.7733 440.584 18.1667 441.398 17.74C442.224 17.3 443.131 17.08 444.118 17.08C445.678 17.08 446.864 17.5933 447.678 18.62V17.24H450.638ZM444.738 24.92C445.564 24.92 446.238 24.68 446.758 24.2C447.291 23.7067 447.558 23.0667 447.558 22.28C447.558 21.4933 447.291 20.86 446.758 20.38C446.238 19.8867 445.564 19.64 444.738 19.64C443.911 19.64 443.231 19.8867 442.698 20.38C442.164 20.86 441.898 21.4933 441.898 22.28C441.898 23.0667 442.164 23.7067 442.698 24.2C443.231 24.68 443.911 24.92 444.738 24.92ZM459.206 17.24H462.326V28H459.206V17.24ZM460.766 15.74C460.192 15.74 459.726 15.5733 459.366 15.24C459.006 14.9067 458.826 14.4933 458.826 14C458.826 13.5067 459.006 13.0933 459.366 12.76C459.726 12.4267 460.192 12.26 460.766 12.26C461.339 12.26 461.806 12.42 462.166 12.74C462.526 13.06 462.706 13.46 462.706 13.94C462.706 14.46 462.526 14.8933 462.166 15.24C461.806 15.5733 461.339 15.74 460.766 15.74ZM471.761 17.08C473.095 17.08 474.168 17.48 474.981 18.28C475.808 19.08 476.221 20.2667 476.221 21.84V28H473.101V22.32C473.101 21.4667 472.915 20.8333 472.541 20.42C472.168 19.9933 471.628 19.78 470.921 19.78C470.135 19.78 469.508 20.0267 469.041 20.52C468.575 21 468.341 21.72 468.341 22.68V28H465.221V17.24H468.201V18.5C468.615 18.0467 469.128 17.7 469.741 17.46C470.355 17.2067 471.028 17.08 471.761 17.08Z" fill="white"/>
</svg>
