<svg width="406" height="76" viewBox="0 0 406 76" fill="none" xmlns="http://www.w3.org/2000/svg">
<path d="M13.485 3.5V14H12.39V9.155H5.82V14H4.71V3.5H5.82V8.18H12.39V3.5H13.485ZM19.9121 14.075C19.1521 14.075 18.4671 13.905 17.8571 13.565C17.2471 13.215 16.7671 12.735 16.4171 12.125C16.0671 11.515 15.8921 10.825 15.8921 10.055C15.8921 9.285 16.0671 8.595 16.4171 7.985C16.7671 7.375 17.2471 6.9 17.8571 6.56C18.4671 6.22 19.1521 6.05 19.9121 6.05C20.6721 6.05 21.3571 6.22 21.9671 6.56C22.5771 6.9 23.0521 7.375 23.3921 7.985C23.7421 8.595 23.9171 9.285 23.9171 10.055C23.9171 10.825 23.7421 11.515 23.3921 12.125C23.0521 12.735 22.5771 13.215 21.9671 13.565C21.3571 13.905 20.6721 14.075 19.9121 14.075ZM19.9121 13.13C20.4721 13.13 20.9721 13.005 21.4121 12.755C21.8621 12.495 22.2121 12.13 22.4621 11.66C22.7121 11.19 22.8371 10.655 22.8371 10.055C22.8371 9.455 22.7121 8.92 22.4621 8.45C22.2121 7.98 21.8621 7.62 21.4121 7.37C20.9721 7.11 20.4721 6.98 19.9121 6.98C19.3521 6.98 18.8471 7.11 18.3971 7.37C17.9571 7.62 17.6071 7.98 17.3471 8.45C17.0971 8.92 16.9721 9.455 16.9721 10.055C16.9721 10.655 17.0971 11.19 17.3471 11.66C17.6071 12.13 17.9571 12.495 18.3971 12.755C18.8471 13.005 19.3521 13.13 19.9121 13.13ZM35.9314 6.05C36.9214 6.05 37.6964 6.335 38.2564 6.905C38.8264 7.475 39.1114 8.315 39.1114 9.425V14H38.0464V9.53C38.0464 8.71 37.8464 8.085 37.4464 7.655C37.0564 7.225 36.5014 7.01 35.7814 7.01C34.9614 7.01 34.3164 7.265 33.8464 7.775C33.3764 8.275 33.1414 8.97 33.1414 9.86V14H32.0764V9.53C32.0764 8.71 31.8764 8.085 31.4764 7.655C31.0864 7.225 30.5264 7.01 29.7964 7.01C28.9864 7.01 28.3414 7.265 27.8614 7.775C27.3914 8.275 27.1564 8.97 27.1564 9.86V14H26.0914V6.11H27.1114V7.55C27.3914 7.07 27.7814 6.7 28.2814 6.44C28.7814 6.18 29.3564 6.05 30.0064 6.05C30.6664 6.05 31.2364 6.19 31.7164 6.47C32.2064 6.75 32.5714 7.165 32.8114 7.715C33.1014 7.195 33.5164 6.79 34.0564 6.5C34.6064 6.2 35.2314 6.05 35.9314 6.05ZM48.8989 10.385H42.2989C42.3589 11.205 42.6739 11.87 43.2439 12.38C43.8139 12.88 44.5339 13.13 45.4039 13.13C45.8939 13.13 46.3439 13.045 46.7539 12.875C47.1639 12.695 47.5189 12.435 47.8189 12.095L48.4189 12.785C48.0689 13.205 47.6289 13.525 47.0989 13.745C46.5789 13.965 46.0039 14.075 45.3739 14.075C44.5639 14.075 43.8439 13.905 43.2139 13.565C42.5939 13.215 42.1089 12.735 41.7589 12.125C41.4089 11.515 41.2339 10.825 41.2339 10.055C41.2339 9.285 41.3989 8.595 41.7289 7.985C42.0689 7.375 42.5289 6.9 43.1089 6.56C43.6989 6.22 44.3589 6.05 45.0889 6.05C45.8189 6.05 46.4739 6.22 47.0539 6.56C47.6339 6.9 48.0889 7.375 48.4189 7.985C48.7489 8.585 48.9139 9.275 48.9139 10.055L48.8989 10.385ZM45.0889 6.965C44.3289 6.965 43.6889 7.21 43.1689 7.7C42.6589 8.18 42.3689 8.81 42.2989 9.59H47.8939C47.8239 8.81 47.5289 8.18 47.0089 7.7C46.4989 7.21 45.8589 6.965 45.0889 6.965Z" fill="white"/>
<path d="M5.64 32.5C6.98 32.5 8.03 32.82 8.79 33.46C9.55 34.1 9.93 34.98 9.93 36.1C9.93 37.22 9.55 38.1 8.79 38.74C8.03 39.37 6.98 39.685 5.64 39.685H2.82V43H1.71V32.5H5.64ZM5.61 38.71C6.65 38.71 7.445 38.485 7.995 38.035C8.545 37.575 8.82 36.93 8.82 36.1C8.82 35.25 8.545 34.6 7.995 34.15C7.445 33.69 6.65 33.46 5.61 33.46H2.82V38.71H5.61ZM12.92 36.655C13.17 36.125 13.54 35.725 14.03 35.455C14.53 35.185 15.145 35.05 15.875 35.05V36.085L15.62 36.07C14.79 36.07 14.14 36.325 13.67 36.835C13.2 37.345 12.965 38.06 12.965 38.98V43H11.9V35.11H12.92V36.655ZM20.9551 43.075C20.1951 43.075 19.5101 42.905 18.9001 42.565C18.2901 42.215 17.8101 41.735 17.4601 41.125C17.1101 40.515 16.9351 39.825 16.9351 39.055C16.9351 38.285 17.1101 37.595 17.4601 36.985C17.8101 36.375 18.2901 35.9 18.9001 35.56C19.5101 35.22 20.1951 35.05 20.9551 35.05C21.7151 35.05 22.4001 35.22 23.0101 35.56C23.6201 35.9 24.0951 36.375 24.4351 36.985C24.7851 37.595 24.9601 38.285 24.9601 39.055C24.9601 39.825 24.7851 40.515 24.4351 41.125C24.0951 41.735 23.6201 42.215 23.0101 42.565C22.4001 42.905 21.7151 43.075 20.9551 43.075ZM20.9551 42.13C21.5151 42.13 22.0151 42.005 22.4551 41.755C22.9051 41.495 23.2551 41.13 23.5051 40.66C23.7551 40.19 23.8801 39.655 23.8801 39.055C23.8801 38.455 23.7551 37.92 23.5051 37.45C23.2551 36.98 22.9051 36.62 22.4551 36.37C22.0151 36.11 21.5151 35.98 20.9551 35.98C20.3951 35.98 19.8901 36.11 19.4401 36.37C19.0001 36.62 18.6501 36.98 18.3901 37.45C18.1401 37.92 18.0151 38.455 18.0151 39.055C18.0151 39.655 18.1401 40.19 18.3901 40.66C18.6501 41.13 19.0001 41.495 19.4401 41.755C19.8901 42.005 20.3951 42.13 20.9551 42.13ZM25.9644 45.985C25.6344 45.985 25.3244 45.94 25.0344 45.85C24.7344 45.77 24.4894 45.645 24.2994 45.475L24.6744 44.665C24.9844 44.935 25.3944 45.07 25.9044 45.07C26.3244 45.07 26.6444 44.945 26.8644 44.695C27.0944 44.445 27.2094 44.075 27.2094 43.585V35.11H28.2744V43.585C28.2744 44.325 28.0744 44.91 27.6744 45.34C27.2744 45.77 26.7044 45.985 25.9644 45.985ZM27.7494 33.37C27.5294 33.37 27.3444 33.295 27.1944 33.145C27.0444 32.995 26.9694 32.815 26.9694 32.605C26.9694 32.405 27.0444 32.23 27.1944 32.08C27.3444 31.93 27.5294 31.855 27.7494 31.855C27.9694 31.855 28.1544 31.93 28.3044 32.08C28.4544 32.22 28.5294 32.39 28.5294 32.59C28.5294 32.81 28.4544 32.995 28.3044 33.145C28.1544 33.295 27.9694 33.37 27.7494 33.37ZM38.1206 39.385H31.5206C31.5806 40.205 31.8956 40.87 32.4656 41.38C33.0356 41.88 33.7556 42.13 34.6256 42.13C35.1156 42.13 35.5656 42.045 35.9756 41.875C36.3856 41.695 36.7406 41.435 37.0406 41.095L37.6406 41.785C37.2906 42.205 36.8506 42.525 36.3206 42.745C35.8006 42.965 35.2256 43.075 34.5956 43.075C33.7856 43.075 33.0656 42.905 32.4356 42.565C31.8156 42.215 31.3306 41.735 30.9806 41.125C30.6306 40.515 30.4556 39.825 30.4556 39.055C30.4556 38.285 30.6206 37.595 30.9506 36.985C31.2906 36.375 31.7506 35.9 32.3306 35.56C32.9206 35.22 33.5806 35.05 34.3106 35.05C35.0406 35.05 35.6956 35.22 36.2756 35.56C36.8556 35.9 37.3106 36.375 37.6406 36.985C37.9706 37.585 38.1356 38.275 38.1356 39.055L38.1206 39.385ZM34.3106 35.965C33.5506 35.965 32.9106 36.21 32.3906 36.7C31.8806 37.18 31.5906 37.81 31.5206 38.59H37.1156C37.0456 37.81 36.7506 37.18 36.2306 36.7C35.7206 36.21 35.0806 35.965 34.3106 35.965ZM43.5734 43.075C42.7934 43.075 42.0934 42.905 41.4734 42.565C40.8634 42.225 40.3834 41.75 40.0334 41.14C39.6834 40.52 39.5084 39.825 39.5084 39.055C39.5084 38.285 39.6834 37.595 40.0334 36.985C40.3834 36.375 40.8634 35.9 41.4734 35.56C42.0934 35.22 42.7934 35.05 43.5734 35.05C44.2534 35.05 44.8584 35.185 45.3884 35.455C45.9284 35.715 46.3534 36.1 46.6634 36.61L45.8684 37.15C45.6084 36.76 45.2784 36.47 44.8784 36.28C44.4784 36.08 44.0434 35.98 43.5734 35.98C43.0034 35.98 42.4884 36.11 42.0284 36.37C41.5784 36.62 41.2234 36.98 40.9634 37.45C40.7134 37.92 40.5884 38.455 40.5884 39.055C40.5884 39.665 40.7134 40.205 40.9634 40.675C41.2234 41.135 41.5784 41.495 42.0284 41.755C42.4884 42.005 43.0034 42.13 43.5734 42.13C44.0434 42.13 44.4784 42.035 44.8784 41.845C45.2784 41.655 45.6084 41.365 45.8684 40.975L46.6634 41.515C46.3534 42.025 45.9284 42.415 45.3884 42.685C44.8484 42.945 44.2434 43.075 43.5734 43.075ZM52.9984 42.52C52.7984 42.7 52.5484 42.84 52.2484 42.94C51.9584 43.03 51.6534 43.075 51.3334 43.075C50.5934 43.075 50.0234 42.875 49.6234 42.475C49.2234 42.075 49.0234 41.51 49.0234 40.78V36.01H47.6134V35.11H49.0234V33.385H50.0884V35.11H52.4884V36.01H50.0884V40.72C50.0884 41.19 50.2034 41.55 50.4334 41.8C50.6734 42.04 51.0134 42.16 51.4534 42.16C51.6734 42.16 51.8834 42.125 52.0834 42.055C52.2934 41.985 52.4734 41.885 52.6234 41.755L52.9984 42.52ZM57.0521 43.075C56.4121 43.075 55.7971 42.985 55.2071 42.805C54.6271 42.615 54.1721 42.38 53.8421 42.1L54.3221 41.26C54.6521 41.52 55.0671 41.735 55.5671 41.905C56.0671 42.065 56.5871 42.145 57.1271 42.145C57.8471 42.145 58.3771 42.035 58.7171 41.815C59.0671 41.585 59.2421 41.265 59.2421 40.855C59.2421 40.565 59.1471 40.34 58.9571 40.18C58.7671 40.01 58.5271 39.885 58.2371 39.805C57.9471 39.715 57.5621 39.63 57.0821 39.55C56.4421 39.43 55.9271 39.31 55.5371 39.19C55.1471 39.06 54.8121 38.845 54.5321 38.545C54.2621 38.245 54.1271 37.83 54.1271 37.3C54.1271 36.64 54.4021 36.1 54.9521 35.68C55.5021 35.26 56.2671 35.05 57.2471 35.05C57.7571 35.05 58.2671 35.12 58.7771 35.26C59.2871 35.39 59.7071 35.565 60.0371 35.785L59.5721 36.64C58.9221 36.19 58.1471 35.965 57.2471 35.965C56.5671 35.965 56.0521 36.085 55.7021 36.325C55.3621 36.565 55.1921 36.88 55.1921 37.27C55.1921 37.57 55.2871 37.81 55.4771 37.99C55.6771 38.17 55.9221 38.305 56.2121 38.395C56.5021 38.475 56.9021 38.56 57.4121 38.65C58.0421 38.77 58.5471 38.89 58.9271 39.01C59.3071 39.13 59.6321 39.335 59.9021 39.625C60.1721 39.915 60.3071 40.315 60.3071 40.825C60.3071 41.515 60.0171 42.065 59.4371 42.475C58.8671 42.875 58.0721 43.075 57.0521 43.075Z" fill="white"/>
<path d="M9.325 64.585C10.015 64.735 10.545 65.035 10.915 65.485C11.295 65.925 11.485 66.495 11.485 67.195C11.485 68.095 11.15 68.79 10.48 69.28C9.82 69.76 8.84 70 7.54 70H2.71V59.5H7.24C8.41 59.5 9.315 59.735 9.955 60.205C10.605 60.675 10.93 61.34 10.93 62.2C10.93 62.78 10.785 63.275 10.495 63.685C10.215 64.085 9.825 64.385 9.325 64.585ZM3.82 60.415V64.225H7.165C8.015 64.225 8.67 64.065 9.13 63.745C9.59 63.415 9.82 62.94 9.82 62.32C9.82 61.7 9.59 61.23 9.13 60.91C8.67 60.58 8.015 60.415 7.165 60.415H3.82ZM7.525 69.085C8.465 69.085 9.175 68.925 9.655 68.605C10.135 68.285 10.375 67.785 10.375 67.105C10.375 65.795 9.425 65.14 7.525 65.14H3.82V69.085H7.525ZM13.7936 58.87H14.8586V70H13.7936V58.87ZM21.0469 70.075C20.2869 70.075 19.6019 69.905 18.9919 69.565C18.3819 69.215 17.9019 68.735 17.5519 68.125C17.2019 67.515 17.0269 66.825 17.0269 66.055C17.0269 65.285 17.2019 64.595 17.5519 63.985C17.9019 63.375 18.3819 62.9 18.9919 62.56C19.6019 62.22 20.2869 62.05 21.0469 62.05C21.8069 62.05 22.4919 62.22 23.1019 62.56C23.7119 62.9 24.1869 63.375 24.5269 63.985C24.8769 64.595 25.0519 65.285 25.0519 66.055C25.0519 66.825 24.8769 67.515 24.5269 68.125C24.1869 68.735 23.7119 69.215 23.1019 69.565C22.4919 69.905 21.8069 70.075 21.0469 70.075ZM21.0469 69.13C21.6069 69.13 22.1069 69.005 22.5469 68.755C22.9969 68.495 23.3469 68.13 23.5969 67.66C23.8469 67.19 23.9719 66.655 23.9719 66.055C23.9719 65.455 23.8469 64.92 23.5969 64.45C23.3469 63.98 22.9969 63.62 22.5469 63.37C22.1069 63.11 21.6069 62.98 21.0469 62.98C20.4869 62.98 19.9819 63.11 19.5319 63.37C19.0919 63.62 18.7419 63.98 18.4819 64.45C18.2319 64.92 18.1069 65.455 18.1069 66.055C18.1069 66.655 18.2319 67.19 18.4819 67.66C18.7419 68.13 19.0919 68.495 19.5319 68.755C19.9819 69.005 20.4869 69.13 21.0469 69.13ZM34.5312 62.11V69.04C34.5312 70.38 34.2012 71.37 33.5412 72.01C32.8912 72.66 31.9062 72.985 30.5862 72.985C29.8562 72.985 29.1612 72.875 28.5012 72.655C27.8512 72.445 27.3212 72.15 26.9112 71.77L27.4512 70.96C27.8312 71.3 28.2912 71.565 28.8312 71.755C29.3812 71.945 29.9562 72.04 30.5562 72.04C31.5562 72.04 32.2912 71.805 32.7612 71.335C33.2312 70.875 33.4662 70.155 33.4662 69.175V68.17C33.1362 68.67 32.7012 69.05 32.1612 69.31C31.6312 69.57 31.0412 69.7 30.3912 69.7C29.6512 69.7 28.9762 69.54 28.3662 69.22C27.7662 68.89 27.2912 68.435 26.9412 67.855C26.6012 67.265 26.4312 66.6 26.4312 65.86C26.4312 65.12 26.6012 64.46 26.9412 63.88C27.2912 63.3 27.7662 62.85 28.3662 62.53C28.9662 62.21 29.6412 62.05 30.3912 62.05C31.0612 62.05 31.6662 62.185 32.2062 62.455C32.7462 62.725 33.1812 63.115 33.5112 63.625V62.11H34.5312ZM30.4962 68.755C31.0662 68.755 31.5812 68.635 32.0412 68.395C32.5012 68.145 32.8562 67.8 33.1062 67.36C33.3662 66.92 33.4962 66.42 33.4962 65.86C33.4962 65.3 33.3662 64.805 33.1062 64.375C32.8562 63.935 32.5012 63.595 32.0412 63.355C31.5912 63.105 31.0762 62.98 30.4962 62.98C29.9262 62.98 29.4112 63.1 28.9512 63.34C28.5012 63.58 28.1462 63.92 27.8862 64.36C27.6362 64.8 27.5112 65.3 27.5112 65.86C27.5112 66.42 27.6362 66.92 27.8862 67.36C28.1462 67.8 28.5012 68.145 28.9512 68.395C29.4112 68.635 29.9262 68.755 30.4962 68.755Z" fill="white"/>
<path d="M158.82 4.46V8.585H164.25V9.545H158.82V14H157.71V3.5H164.91V4.46H158.82ZM169.939 14.075C169.179 14.075 168.494 13.905 167.884 13.565C167.274 13.215 166.794 12.735 166.444 12.125C166.094 11.515 165.919 10.825 165.919 10.055C165.919 9.285 166.094 8.595 166.444 7.985C166.794 7.375 167.274 6.9 167.884 6.56C168.494 6.22 169.179 6.05 169.939 6.05C170.699 6.05 171.384 6.22 171.994 6.56C172.604 6.9 173.079 7.375 173.419 7.985C173.769 8.595 173.944 9.285 173.944 10.055C173.944 10.825 173.769 11.515 173.419 12.125C173.079 12.735 172.604 13.215 171.994 13.565C171.384 13.905 170.699 14.075 169.939 14.075ZM169.939 13.13C170.499 13.13 170.999 13.005 171.439 12.755C171.889 12.495 172.239 12.13 172.489 11.66C172.739 11.19 172.864 10.655 172.864 10.055C172.864 9.455 172.739 8.92 172.489 8.45C172.239 7.98 171.889 7.62 171.439 7.37C170.999 7.11 170.499 6.98 169.939 6.98C169.379 6.98 168.874 7.11 168.424 7.37C167.984 7.62 167.634 7.98 167.374 8.45C167.124 8.92 166.999 9.455 166.999 10.055C166.999 10.655 167.124 11.19 167.374 11.66C167.634 12.13 167.984 12.495 168.424 12.755C168.874 13.005 169.379 13.13 169.939 13.13ZM176.118 2.87H177.183V14H176.118V2.87ZM180.146 2.87H181.211V14H180.146V2.87ZM187.399 14.075C186.639 14.075 185.954 13.905 185.344 13.565C184.734 13.215 184.254 12.735 183.904 12.125C183.554 11.515 183.379 10.825 183.379 10.055C183.379 9.285 183.554 8.595 183.904 7.985C184.254 7.375 184.734 6.9 185.344 6.56C185.954 6.22 186.639 6.05 187.399 6.05C188.159 6.05 188.844 6.22 189.454 6.56C190.064 6.9 190.539 7.375 190.879 7.985C191.229 8.595 191.404 9.285 191.404 10.055C191.404 10.825 191.229 11.515 190.879 12.125C190.539 12.735 190.064 13.215 189.454 13.565C188.844 13.905 188.159 14.075 187.399 14.075ZM187.399 13.13C187.959 13.13 188.459 13.005 188.899 12.755C189.349 12.495 189.699 12.13 189.949 11.66C190.199 11.19 190.324 10.655 190.324 10.055C190.324 9.455 190.199 8.92 189.949 8.45C189.699 7.98 189.349 7.62 188.899 7.37C188.459 7.11 187.959 6.98 187.399 6.98C186.839 6.98 186.334 7.11 185.884 7.37C185.444 7.62 185.094 7.98 184.834 8.45C184.584 8.92 184.459 9.455 184.459 10.055C184.459 10.655 184.584 11.19 184.834 11.66C185.094 12.13 185.444 12.495 185.884 12.755C186.334 13.005 186.839 13.13 187.399 13.13ZM204.939 6.11L201.954 14H200.949L198.459 7.535L195.969 14H194.964L191.994 6.11H193.014L195.489 12.815L198.024 6.11H198.939L201.459 12.815L203.964 6.11H204.939ZM214.623 3.5C215.963 3.5 217.013 3.82 217.773 4.46C218.533 5.1 218.913 5.98 218.913 7.1C218.913 8.22 218.533 9.1 217.773 9.74C217.013 10.37 215.963 10.685 214.623 10.685H211.803V14H210.693V3.5H214.623ZM214.593 9.71C215.633 9.71 216.428 9.485 216.978 9.035C217.528 8.575 217.803 7.93 217.803 7.1C217.803 6.25 217.528 5.6 216.978 5.15C216.428 4.69 215.633 4.46 214.593 4.46H211.803V9.71H214.593ZM221.903 7.655C222.153 7.125 222.523 6.725 223.013 6.455C223.513 6.185 224.128 6.05 224.858 6.05V7.085L224.603 7.07C223.773 7.07 223.123 7.325 222.653 7.835C222.183 8.345 221.948 9.06 221.948 9.98V14H220.883V6.11H221.903V7.655ZM229.939 14.075C229.179 14.075 228.494 13.905 227.884 13.565C227.274 13.215 226.794 12.735 226.444 12.125C226.094 11.515 225.919 10.825 225.919 10.055C225.919 9.285 226.094 8.595 226.444 7.985C226.794 7.375 227.274 6.9 227.884 6.56C228.494 6.22 229.179 6.05 229.939 6.05C230.699 6.05 231.384 6.22 231.994 6.56C232.604 6.9 233.079 7.375 233.419 7.985C233.769 8.595 233.944 9.285 233.944 10.055C233.944 10.825 233.769 11.515 233.419 12.125C233.079 12.735 232.604 13.215 231.994 13.565C231.384 13.905 230.699 14.075 229.939 14.075ZM229.939 13.13C230.499 13.13 230.999 13.005 231.439 12.755C231.889 12.495 232.239 12.13 232.489 11.66C232.739 11.19 232.864 10.655 232.864 10.055C232.864 9.455 232.739 8.92 232.489 8.45C232.239 7.98 231.889 7.62 231.439 7.37C230.999 7.11 230.499 6.98 229.939 6.98C229.379 6.98 228.874 7.11 228.424 7.37C227.984 7.62 227.634 7.98 227.374 8.45C227.124 8.92 226.999 9.455 226.999 10.055C226.999 10.655 227.124 11.19 227.374 11.66C227.634 12.13 227.984 12.495 228.424 12.755C228.874 13.005 229.379 13.13 229.939 13.13ZM234.948 16.985C234.618 16.985 234.308 16.94 234.018 16.85C233.718 16.77 233.473 16.645 233.283 16.475L233.658 15.665C233.968 15.935 234.378 16.07 234.888 16.07C235.308 16.07 235.628 15.945 235.848 15.695C236.078 15.445 236.193 15.075 236.193 14.585V6.11H237.258V14.585C237.258 15.325 237.058 15.91 236.658 16.34C236.258 16.77 235.688 16.985 234.948 16.985ZM236.733 4.37C236.513 4.37 236.328 4.295 236.178 4.145C236.028 3.995 235.953 3.815 235.953 3.605C235.953 3.405 236.028 3.23 236.178 3.08C236.328 2.93 236.513 2.855 236.733 2.855C236.953 2.855 237.138 2.93 237.288 3.08C237.438 3.22 237.513 3.39 237.513 3.59C237.513 3.81 237.438 3.995 237.288 4.145C237.138 4.295 236.953 4.37 236.733 4.37ZM247.104 10.385H240.504C240.564 11.205 240.879 11.87 241.449 12.38C242.019 12.88 242.739 13.13 243.609 13.13C244.099 13.13 244.549 13.045 244.959 12.875C245.369 12.695 245.724 12.435 246.024 12.095L246.624 12.785C246.274 13.205 245.834 13.525 245.304 13.745C244.784 13.965 244.209 14.075 243.579 14.075C242.769 14.075 242.049 13.905 241.419 13.565C240.799 13.215 240.314 12.735 239.964 12.125C239.614 11.515 239.439 10.825 239.439 10.055C239.439 9.285 239.604 8.595 239.934 7.985C240.274 7.375 240.734 6.9 241.314 6.56C241.904 6.22 242.564 6.05 243.294 6.05C244.024 6.05 244.679 6.22 245.259 6.56C245.839 6.9 246.294 7.375 246.624 7.985C246.954 8.585 247.119 9.275 247.119 10.055L247.104 10.385ZM243.294 6.965C242.534 6.965 241.894 7.21 241.374 7.7C240.864 8.18 240.574 8.81 240.504 9.59H246.099C246.029 8.81 245.734 8.18 245.214 7.7C244.704 7.21 244.064 6.965 243.294 6.965ZM252.557 14.075C251.777 14.075 251.077 13.905 250.457 13.565C249.847 13.225 249.367 12.75 249.017 12.14C248.667 11.52 248.492 10.825 248.492 10.055C248.492 9.285 248.667 8.595 249.017 7.985C249.367 7.375 249.847 6.9 250.457 6.56C251.077 6.22 251.777 6.05 252.557 6.05C253.237 6.05 253.842 6.185 254.372 6.455C254.912 6.715 255.337 7.1 255.647 7.61L254.852 8.15C254.592 7.76 254.262 7.47 253.862 7.28C253.462 7.08 253.027 6.98 252.557 6.98C251.987 6.98 251.472 7.11 251.012 7.37C250.562 7.62 250.207 7.98 249.947 8.45C249.697 8.92 249.572 9.455 249.572 10.055C249.572 10.665 249.697 11.205 249.947 11.675C250.207 12.135 250.562 12.495 251.012 12.755C251.472 13.005 251.987 13.13 252.557 13.13C253.027 13.13 253.462 13.035 253.862 12.845C254.262 12.655 254.592 12.365 254.852 11.975L255.647 12.515C255.337 13.025 254.912 13.415 254.372 13.685C253.832 13.945 253.227 14.075 252.557 14.075ZM261.982 13.52C261.782 13.7 261.532 13.84 261.232 13.94C260.942 14.03 260.637 14.075 260.317 14.075C259.577 14.075 259.007 13.875 258.607 13.475C258.207 13.075 258.007 12.51 258.007 11.78V7.01H256.597V6.11H258.007V4.385H259.072V6.11H261.472V7.01H259.072V11.72C259.072 12.19 259.187 12.55 259.417 12.8C259.657 13.04 259.997 13.16 260.437 13.16C260.657 13.16 260.867 13.125 261.067 13.055C261.277 12.985 261.457 12.885 261.607 12.755L261.982 13.52Z" fill="white"/>
<path d="M154.82 34.46V38.585H160.25V39.545H154.82V44H153.71V33.5H160.91V34.46H154.82ZM165.415 36.05C166.445 36.05 167.235 36.31 167.785 36.83C168.335 37.34 168.61 38.1 168.61 39.11V44H167.59V42.77C167.35 43.18 166.995 43.5 166.525 43.73C166.065 43.96 165.515 44.075 164.875 44.075C163.995 44.075 163.295 43.865 162.775 43.445C162.255 43.025 161.995 42.47 161.995 41.78C161.995 41.11 162.235 40.57 162.715 40.16C163.205 39.75 163.98 39.545 165.04 39.545H167.545V39.065C167.545 38.385 167.355 37.87 166.975 37.52C166.595 37.16 166.04 36.98 165.31 36.98C164.81 36.98 164.33 37.065 163.87 37.235C163.41 37.395 163.015 37.62 162.685 37.91L162.205 37.115C162.605 36.775 163.085 36.515 163.645 36.335C164.205 36.145 164.795 36.05 165.415 36.05ZM165.04 43.235C165.64 43.235 166.155 43.1 166.585 42.83C167.015 42.55 167.335 42.15 167.545 41.63V40.34H165.07C163.72 40.34 163.045 40.81 163.045 41.75C163.045 42.21 163.22 42.575 163.57 42.845C163.92 43.105 164.41 43.235 165.04 43.235ZM178.732 36.11V46.91H177.667V42.515C177.337 43.025 176.912 43.415 176.392 43.685C175.882 43.945 175.307 44.075 174.667 44.075C173.917 44.075 173.242 43.91 172.642 43.58C172.052 43.24 171.587 42.765 171.247 42.155C170.907 41.545 170.737 40.845 170.737 40.055C170.737 39.275 170.907 38.58 171.247 37.97C171.587 37.36 172.057 36.89 172.657 36.56C173.257 36.22 173.927 36.05 174.667 36.05C175.327 36.05 175.917 36.19 176.437 36.47C176.967 36.75 177.392 37.15 177.712 37.67V36.11H178.732ZM174.757 43.13C175.307 43.13 175.802 43.005 176.242 42.755C176.692 42.495 177.042 42.13 177.292 41.66C177.552 41.19 177.682 40.655 177.682 40.055C177.682 39.455 177.552 38.925 177.292 38.465C177.042 37.995 176.692 37.63 176.242 37.37C175.802 37.11 175.307 36.98 174.757 36.98C174.197 36.98 173.692 37.11 173.242 37.37C172.802 37.63 172.452 37.995 172.192 38.465C171.942 38.925 171.817 39.455 171.817 40.055C171.817 40.655 171.942 41.19 172.192 41.66C172.452 42.13 172.802 42.495 173.242 42.755C173.692 43.005 174.197 43.13 174.757 43.13Z" fill="white"/>
<path d="M164.485 61.5V72H163.39V67.155H156.82V72H155.71V61.5H156.82V66.18H163.39V61.5H164.485ZM174.557 68.385H167.957C168.017 69.205 168.332 69.87 168.902 70.38C169.472 70.88 170.192 71.13 171.062 71.13C171.552 71.13 172.002 71.045 172.412 70.875C172.822 70.695 173.177 70.435 173.477 70.095L174.077 70.785C173.727 71.205 173.287 71.525 172.757 71.745C172.237 71.965 171.662 72.075 171.032 72.075C170.222 72.075 169.502 71.905 168.872 71.565C168.252 71.215 167.767 70.735 167.417 70.125C167.067 69.515 166.892 68.825 166.892 68.055C166.892 67.285 167.057 66.595 167.387 65.985C167.727 65.375 168.187 64.9 168.767 64.56C169.357 64.22 170.017 64.05 170.747 64.05C171.477 64.05 172.132 64.22 172.712 64.56C173.292 64.9 173.747 65.375 174.077 65.985C174.407 66.585 174.572 67.275 174.572 68.055L174.557 68.385ZM170.747 64.965C169.987 64.965 169.347 65.21 168.827 65.7C168.317 66.18 168.027 66.81 167.957 67.59H173.552C173.482 66.81 173.187 66.18 172.667 65.7C172.157 65.21 171.517 64.965 170.747 64.965ZM176.74 60.87H177.805V72H176.74V60.87ZM184.833 64.05C185.573 64.05 186.243 64.22 186.843 64.56C187.443 64.89 187.913 65.36 188.253 65.97C188.593 66.58 188.763 67.275 188.763 68.055C188.763 68.845 188.593 69.545 188.253 70.155C187.913 70.765 187.443 71.24 186.843 71.58C186.253 71.91 185.583 72.075 184.833 72.075C184.193 72.075 183.613 71.945 183.093 71.685C182.583 71.415 182.163 71.025 181.833 70.515V74.91H180.768V64.11H181.788V65.67C182.108 65.15 182.528 64.75 183.048 64.47C183.578 64.19 184.173 64.05 184.833 64.05ZM184.758 71.13C185.308 71.13 185.808 71.005 186.258 70.755C186.708 70.495 187.058 70.13 187.308 69.66C187.568 69.19 187.698 68.655 187.698 68.055C187.698 67.455 187.568 66.925 187.308 66.465C187.058 65.995 186.708 65.63 186.258 65.37C185.808 65.11 185.308 64.98 184.758 64.98C184.198 64.98 183.693 65.11 183.243 65.37C182.803 65.63 182.453 65.995 182.193 66.465C181.943 66.925 181.818 67.455 181.818 68.055C181.818 68.655 181.943 69.19 182.193 69.66C182.453 70.13 182.803 70.495 183.243 70.755C183.693 71.005 184.198 71.13 184.758 71.13Z" fill="white"/>
<path d="M329.27 14.09C328.23 14.09 327.29 13.86 326.45 13.4C325.62 12.94 324.965 12.305 324.485 11.495C324.015 10.675 323.78 9.76 323.78 8.75C323.78 7.74 324.015 6.83 324.485 6.02C324.965 5.2 325.625 4.56 326.465 4.1C327.305 3.64 328.245 3.41 329.285 3.41C330.065 3.41 330.785 3.54 331.445 3.8C332.105 4.06 332.665 4.44 333.125 4.94L332.42 5.645C331.6 4.815 330.565 4.4 329.315 4.4C328.485 4.4 327.73 4.59 327.05 4.97C326.37 5.35 325.835 5.87 325.445 6.53C325.065 7.19 324.875 7.93 324.875 8.75C324.875 9.57 325.065 10.31 325.445 10.97C325.835 11.63 326.37 12.15 327.05 12.53C327.73 12.91 328.485 13.1 329.315 13.1C330.575 13.1 331.61 12.68 332.42 11.84L333.125 12.545C332.665 13.045 332.1 13.43 331.43 13.7C330.77 13.96 330.05 14.09 329.27 14.09ZM338.14 14.075C337.38 14.075 336.695 13.905 336.085 13.565C335.475 13.215 334.995 12.735 334.645 12.125C334.295 11.515 334.12 10.825 334.12 10.055C334.12 9.285 334.295 8.595 334.645 7.985C334.995 7.375 335.475 6.9 336.085 6.56C336.695 6.22 337.38 6.05 338.14 6.05C338.9 6.05 339.585 6.22 340.195 6.56C340.805 6.9 341.28 7.375 341.62 7.985C341.97 8.595 342.145 9.285 342.145 10.055C342.145 10.825 341.97 11.515 341.62 12.125C341.28 12.735 340.805 13.215 340.195 13.565C339.585 13.905 338.9 14.075 338.14 14.075ZM338.14 13.13C338.7 13.13 339.2 13.005 339.64 12.755C340.09 12.495 340.44 12.13 340.69 11.66C340.94 11.19 341.065 10.655 341.065 10.055C341.065 9.455 340.94 8.92 340.69 8.45C340.44 7.98 340.09 7.62 339.64 7.37C339.2 7.11 338.7 6.98 338.14 6.98C337.58 6.98 337.075 7.11 336.625 7.37C336.185 7.62 335.835 7.98 335.575 8.45C335.325 8.92 335.2 9.455 335.2 10.055C335.2 10.655 335.325 11.19 335.575 11.66C335.835 12.13 336.185 12.495 336.625 12.755C337.075 13.005 337.58 13.13 338.14 13.13ZM348.339 6.05C349.329 6.05 350.114 6.34 350.694 6.92C351.284 7.49 351.579 8.325 351.579 9.425V14H350.514V9.53C350.514 8.71 350.309 8.085 349.899 7.655C349.489 7.225 348.904 7.01 348.144 7.01C347.294 7.01 346.619 7.265 346.119 7.775C345.629 8.275 345.384 8.97 345.384 9.86V14H344.319V6.11H345.339V7.565C345.629 7.085 346.029 6.715 346.539 6.455C347.059 6.185 347.659 6.05 348.339 6.05ZM358.625 13.52C358.425 13.7 358.175 13.84 357.875 13.94C357.585 14.03 357.28 14.075 356.96 14.075C356.22 14.075 355.65 13.875 355.25 13.475C354.85 13.075 354.65 12.51 354.65 11.78V7.01H353.24V6.11H354.65V4.385H355.715V6.11H358.115V7.01H355.715V11.72C355.715 12.19 355.83 12.55 356.06 12.8C356.3 13.04 356.64 13.16 357.08 13.16C357.3 13.16 357.51 13.125 357.71 13.055C357.92 12.985 358.1 12.885 358.25 12.755L358.625 13.52ZM363.324 6.05C364.354 6.05 365.144 6.31 365.694 6.83C366.244 7.34 366.519 8.1 366.519 9.11V14H365.499V12.77C365.259 13.18 364.904 13.5 364.434 13.73C363.974 13.96 363.424 14.075 362.784 14.075C361.904 14.075 361.204 13.865 360.684 13.445C360.164 13.025 359.904 12.47 359.904 11.78C359.904 11.11 360.144 10.57 360.624 10.16C361.114 9.75 361.889 9.545 362.949 9.545H365.454V9.065C365.454 8.385 365.264 7.87 364.884 7.52C364.504 7.16 363.949 6.98 363.219 6.98C362.719 6.98 362.239 7.065 361.779 7.235C361.319 7.395 360.924 7.62 360.594 7.91L360.114 7.115C360.514 6.775 360.994 6.515 361.554 6.335C362.114 6.145 362.704 6.05 363.324 6.05ZM362.949 13.235C363.549 13.235 364.064 13.1 364.494 12.83C364.924 12.55 365.244 12.15 365.454 11.63V10.34H362.979C361.629 10.34 360.954 10.81 360.954 11.75C360.954 12.21 361.129 12.575 361.479 12.845C361.829 13.105 362.319 13.235 362.949 13.235ZM372.711 14.075C371.931 14.075 371.231 13.905 370.611 13.565C370.001 13.225 369.521 12.75 369.171 12.14C368.821 11.52 368.646 10.825 368.646 10.055C368.646 9.285 368.821 8.595 369.171 7.985C369.521 7.375 370.001 6.9 370.611 6.56C371.231 6.22 371.931 6.05 372.711 6.05C373.391 6.05 373.996 6.185 374.526 6.455C375.066 6.715 375.491 7.1 375.801 7.61L375.006 8.15C374.746 7.76 374.416 7.47 374.016 7.28C373.616 7.08 373.181 6.98 372.711 6.98C372.141 6.98 371.626 7.11 371.166 7.37C370.716 7.62 370.361 7.98 370.101 8.45C369.851 8.92 369.726 9.455 369.726 10.055C369.726 10.665 369.851 11.205 370.101 11.675C370.361 12.135 370.716 12.495 371.166 12.755C371.626 13.005 372.141 13.13 372.711 13.13C373.181 13.13 373.616 13.035 374.016 12.845C374.416 12.655 374.746 12.365 375.006 11.975L375.801 12.515C375.491 13.025 375.066 13.415 374.526 13.685C373.986 13.945 373.381 14.075 372.711 14.075ZM382.136 13.52C381.936 13.7 381.686 13.84 381.386 13.94C381.096 14.03 380.791 14.075 380.471 14.075C379.731 14.075 379.161 13.875 378.761 13.475C378.361 13.075 378.161 12.51 378.161 11.78V7.01H376.751V6.11H378.161V4.385H379.226V6.11H381.626V7.01H379.226V11.72C379.226 12.19 379.341 12.55 379.571 12.8C379.811 13.04 380.151 13.16 380.591 13.16C380.811 13.16 381.021 13.125 381.221 13.055C381.431 12.985 381.611 12.885 381.761 12.755L382.136 13.52ZM392.456 14.09C391.096 14.09 390.036 13.7 389.276 12.92C388.516 12.14 388.136 11.005 388.136 9.515V3.5H389.246V9.47C389.246 10.69 389.521 11.6 390.071 12.2C390.621 12.8 391.416 13.1 392.456 13.1C393.506 13.1 394.306 12.8 394.856 12.2C395.406 11.6 395.681 10.69 395.681 9.47V3.5H396.761V9.515C396.761 11.005 396.381 12.14 395.621 12.92C394.871 13.7 393.816 14.09 392.456 14.09ZM401.996 14.075C401.356 14.075 400.741 13.985 400.151 13.805C399.571 13.615 399.116 13.38 398.786 13.1L399.266 12.26C399.596 12.52 400.011 12.735 400.511 12.905C401.011 13.065 401.531 13.145 402.071 13.145C402.791 13.145 403.321 13.035 403.661 12.815C404.011 12.585 404.186 12.265 404.186 11.855C404.186 11.565 404.091 11.34 403.901 11.18C403.711 11.01 403.471 10.885 403.181 10.805C402.891 10.715 402.506 10.63 402.026 10.55C401.386 10.43 400.871 10.31 400.481 10.19C400.091 10.06 399.756 9.845 399.476 9.545C399.206 9.245 399.071 8.83 399.071 8.3C399.071 7.64 399.346 7.1 399.896 6.68C400.446 6.26 401.211 6.05 402.191 6.05C402.701 6.05 403.211 6.12 403.721 6.26C404.231 6.39 404.651 6.565 404.981 6.785L404.516 7.64C403.866 7.19 403.091 6.965 402.191 6.965C401.511 6.965 400.996 7.085 400.646 7.325C400.306 7.565 400.136 7.88 400.136 8.27C400.136 8.57 400.231 8.81 400.421 8.99C400.621 9.17 400.866 9.305 401.156 9.395C401.446 9.475 401.846 9.56 402.356 9.65C402.986 9.77 403.491 9.89 403.871 10.01C404.251 10.13 404.576 10.335 404.846 10.625C405.116 10.915 405.251 11.315 405.251 11.825C405.251 12.515 404.961 13.065 404.381 13.475C403.811 13.875 403.016 14.075 401.996 14.075Z" fill="white"/>
</svg>
