<svg width="444" height="83" viewBox="0 0 444 83" fill="none" xmlns="http://www.w3.org/2000/svg">
<rect width="444" height="83" fill="#6C63FF"/>
<path d="M163.885 54.35C161.995 54.35 160.163 54.0817 158.39 53.545C156.64 53.0083 155.252 52.2967 154.225 51.41L155.8 47.875C156.803 48.6683 158.028 49.3217 159.475 49.835C160.945 50.325 162.415 50.57 163.885 50.57C165.705 50.57 167.058 50.2783 167.945 49.695C168.855 49.1117 169.31 48.3417 169.31 47.385C169.31 46.685 169.053 46.1133 168.54 45.67C168.05 45.2033 167.42 44.8417 166.65 44.585C165.88 44.3283 164.83 44.0367 163.5 43.71C161.633 43.2667 160.117 42.8233 158.95 42.38C157.807 41.9367 156.815 41.2483 155.975 40.315C155.158 39.3583 154.75 38.075 154.75 36.465C154.75 35.1117 155.112 33.8867 155.835 32.79C156.582 31.67 157.69 30.7833 159.16 30.13C160.653 29.4767 162.473 29.15 164.62 29.15C166.113 29.15 167.583 29.3367 169.03 29.71C170.477 30.0833 171.725 30.62 172.775 31.32L171.34 34.855C170.267 34.225 169.147 33.7467 167.98 33.42C166.813 33.0933 165.682 32.93 164.585 32.93C162.788 32.93 161.447 33.2333 160.56 33.84C159.697 34.4467 159.265 35.2517 159.265 36.255C159.265 36.955 159.51 37.5267 160 37.97C160.513 38.4133 161.155 38.7633 161.925 39.02C162.695 39.2767 163.745 39.5683 165.075 39.895C166.895 40.315 168.388 40.7583 169.555 41.225C170.722 41.6683 171.713 42.3567 172.53 43.29C173.37 44.2233 173.79 45.4833 173.79 47.07C173.79 48.4233 173.417 49.6483 172.67 50.745C171.947 51.8417 170.838 52.7167 169.345 53.37C167.852 54.0233 166.032 54.35 163.885 54.35ZM177.882 35.31H182.257V54H177.882V35.31ZM180.087 32.23C179.293 32.23 178.628 31.985 178.092 31.495C177.555 30.9817 177.287 30.3517 177.287 29.605C177.287 28.8583 177.555 28.24 178.092 27.75C178.628 27.2367 179.293 26.98 180.087 26.98C180.88 26.98 181.545 27.225 182.082 27.715C182.618 28.1817 182.887 28.7767 182.887 29.5C182.887 30.27 182.618 30.9233 182.082 31.46C181.568 31.9733 180.903 32.23 180.087 32.23ZM206.549 35.31V51.165C206.549 57.745 203.189 61.035 196.469 61.035C194.672 61.035 192.969 60.8017 191.359 60.335C189.749 59.8917 188.419 59.2383 187.369 58.375L189.329 55.085C190.146 55.7617 191.172 56.2983 192.409 56.695C193.669 57.115 194.941 57.325 196.224 57.325C198.277 57.325 199.782 56.8583 200.739 55.925C201.696 54.9917 202.174 53.5683 202.174 51.655V50.675C201.427 51.4917 200.517 52.11 199.444 52.53C198.371 52.95 197.192 53.16 195.909 53.16C194.136 53.16 192.526 52.7867 191.079 52.04C189.656 51.27 188.524 50.1967 187.684 48.82C186.867 47.4433 186.459 45.8683 186.459 44.095C186.459 42.3217 186.867 40.7583 187.684 39.405C188.524 38.0283 189.656 36.9667 191.079 36.22C192.526 35.4733 194.136 35.1 195.909 35.1C197.262 35.1 198.487 35.3217 199.584 35.765C200.704 36.2083 201.637 36.885 202.384 37.795V35.31H206.549ZM196.574 49.45C198.231 49.45 199.584 48.96 200.634 47.98C201.707 46.9767 202.244 45.6817 202.244 44.095C202.244 42.5317 201.707 41.26 200.634 40.28C199.584 39.3 198.231 38.81 196.574 38.81C194.894 38.81 193.517 39.3 192.444 40.28C191.394 41.26 190.869 42.5317 190.869 44.095C190.869 45.6817 191.394 46.9767 192.444 47.98C193.517 48.96 194.894 49.45 196.574 49.45ZM222.906 35.1C225.262 35.1 227.152 35.7883 228.576 37.165C229.999 38.5417 230.711 40.5833 230.711 43.29V54H226.336V43.85C226.336 42.2167 225.951 40.9917 225.181 40.175C224.411 39.335 223.314 38.915 221.891 38.915C220.281 38.915 219.009 39.405 218.076 40.385C217.142 41.3417 216.676 42.73 216.676 44.55V54H212.301V35.31H216.466V37.725C217.189 36.8617 218.099 36.2083 219.196 35.765C220.292 35.3217 221.529 35.1 222.906 35.1ZM264.028 35.31V54H259.863V51.62C259.163 52.46 258.288 53.1133 257.238 53.58C256.188 54.0233 255.057 54.245 253.843 54.245C251.347 54.245 249.375 53.5567 247.928 52.18C246.505 50.78 245.793 48.715 245.793 45.985V35.31H250.168V45.39C250.168 47.07 250.542 48.33 251.288 49.17C252.058 49.9867 253.143 50.395 254.543 50.395C256.107 50.395 257.343 49.9167 258.253 48.96C259.187 47.98 259.653 46.58 259.653 44.76V35.31H264.028ZM280.117 35.1C281.937 35.1 283.558 35.4967 284.982 36.29C286.428 37.0833 287.56 38.2033 288.377 39.65C289.193 41.0967 289.602 42.765 289.602 44.655C289.602 46.545 289.193 48.225 288.377 49.695C287.56 51.1417 286.428 52.2617 284.982 53.055C283.558 53.8483 281.937 54.245 280.117 54.245C277.597 54.245 275.602 53.405 274.132 51.725V60.79H269.757V35.31H273.922V37.76C274.645 36.8733 275.532 36.2083 276.582 35.765C277.655 35.3217 278.833 35.1 280.117 35.1ZM279.627 50.5C281.237 50.5 282.555 49.9633 283.582 48.89C284.632 47.8167 285.157 46.405 285.157 44.655C285.157 42.905 284.632 41.4933 283.582 40.42C282.555 39.3467 281.237 38.81 279.627 38.81C278.577 38.81 277.632 39.055 276.792 39.545C275.952 40.0117 275.287 40.6883 274.797 41.575C274.307 42.4617 274.062 43.4883 274.062 44.655C274.062 45.8217 274.307 46.8483 274.797 47.735C275.287 48.6217 275.952 49.31 276.792 49.8C277.632 50.2667 278.577 50.5 279.627 50.5Z" fill="white"/>
</svg>
