<svg width="346" height="70" viewBox="0 0 346 70" fill="none" xmlns="http://www.w3.org/2000/svg">
<rect width="346" height="70" rx="35" fill="#6C63FF"/>
<path d="M96.68 34.17H101.12V42.69C99.98 43.55 98.66 44.21 97.16 44.67C95.66 45.13 94.15 45.36 92.63 45.36C90.45 45.36 88.49 44.9 86.75 43.98C85.01 43.04 83.64 41.75 82.64 40.11C81.66 38.45 81.17 36.58 81.17 34.5C81.17 32.42 81.66 30.56 82.64 28.92C83.64 27.26 85.02 25.97 86.78 25.05C88.54 24.11 90.52 23.64 92.72 23.64C94.56 23.64 96.23 23.95 97.73 24.57C99.23 25.19 100.49 26.09 101.51 27.27L98.39 30.15C96.89 28.57 95.08 27.78 92.96 27.78C91.62 27.78 90.43 28.06 89.39 28.62C88.35 29.18 87.54 29.97 86.96 30.99C86.38 32.01 86.09 33.18 86.09 34.5C86.09 35.8 86.38 36.96 86.96 37.98C87.54 39 88.34 39.8 89.36 40.38C90.4 40.94 91.58 41.22 92.9 41.22C94.3 41.22 95.56 40.92 96.68 40.32V34.17ZM121.115 36.99C121.115 37.05 121.085 37.47 121.025 38.25H108.815C109.035 39.25 109.555 40.04 110.375 40.62C111.195 41.2 112.215 41.49 113.435 41.49C114.275 41.49 115.015 41.37 115.655 41.13C116.315 40.87 116.925 40.47 117.485 39.93L119.975 42.63C118.455 44.37 116.235 45.24 113.315 45.24C111.495 45.24 109.885 44.89 108.485 44.19C107.085 43.47 106.005 42.48 105.245 41.22C104.485 39.96 104.105 38.53 104.105 36.93C104.105 35.35 104.475 33.93 105.215 32.67C105.975 31.39 107.005 30.4 108.305 29.7C109.625 28.98 111.095 28.62 112.715 28.62C114.295 28.62 115.725 28.96 117.005 29.64C118.285 30.32 119.285 31.3 120.005 32.58C120.745 33.84 121.115 35.31 121.115 36.99ZM112.745 32.16C111.685 32.16 110.795 32.46 110.075 33.06C109.355 33.66 108.915 34.48 108.755 35.52H116.705C116.545 34.5 116.105 33.69 115.385 33.09C114.665 32.47 113.785 32.16 112.745 32.16ZM134.64 44.22C134.18 44.56 133.61 44.82 132.93 45C132.27 45.16 131.57 45.24 130.83 45.24C128.91 45.24 127.42 44.75 126.36 43.77C125.32 42.79 124.8 41.35 124.8 39.45V32.82H122.31V29.22H124.8V25.29H129.48V29.22H133.5V32.82H129.48V39.39C129.48 40.07 129.65 40.6 129.99 40.98C130.35 41.34 130.85 41.52 131.49 41.52C132.23 41.52 132.86 41.32 133.38 40.92L134.64 44.22ZM151.194 45.24C149.854 45.24 148.544 45.08 147.264 44.76C145.984 44.42 144.964 44 144.204 43.5L145.764 40.14C146.484 40.6 147.354 40.98 148.374 41.28C149.394 41.56 150.394 41.7 151.374 41.7C153.354 41.7 154.344 41.21 154.344 40.23C154.344 39.77 154.074 39.44 153.534 39.24C152.994 39.04 152.164 38.87 151.044 38.73C149.724 38.53 148.634 38.3 147.774 38.04C146.914 37.78 146.164 37.32 145.524 36.66C144.904 36 144.594 35.06 144.594 33.84C144.594 32.82 144.884 31.92 145.464 31.14C146.064 30.34 146.924 29.72 148.044 29.28C149.184 28.84 150.524 28.62 152.064 28.62C153.204 28.62 154.334 28.75 155.454 29.01C156.594 29.25 157.534 29.59 158.274 30.03L156.714 33.36C155.294 32.56 153.744 32.16 152.064 32.16C151.064 32.16 150.314 32.3 149.814 32.58C149.314 32.86 149.064 33.22 149.064 33.66C149.064 34.16 149.334 34.51 149.874 34.71C150.414 34.91 151.274 35.1 152.454 35.28C153.774 35.5 154.854 35.74 155.694 36C156.534 36.24 157.264 36.69 157.884 37.35C158.504 38.01 158.814 38.93 158.814 40.11C158.814 41.11 158.514 42 157.914 42.78C157.314 43.56 156.434 44.17 155.274 44.61C154.134 45.03 152.774 45.24 151.194 45.24ZM172.111 44.22C171.651 44.56 171.081 44.82 170.401 45C169.741 45.16 169.041 45.24 168.301 45.24C166.381 45.24 164.891 44.75 163.831 43.77C162.791 42.79 162.271 41.35 162.271 39.45V32.82H159.781V29.22H162.271V25.29H166.951V29.22H170.971V32.82H166.951V39.39C166.951 40.07 167.121 40.6 167.461 40.98C167.821 41.34 168.321 41.52 168.961 41.52C169.701 41.52 170.331 41.32 170.851 40.92L172.111 44.22ZM181.248 28.62C183.748 28.62 185.668 29.22 187.008 30.42C188.348 31.6 189.018 33.39 189.018 35.79V45H184.638V42.99C183.758 44.49 182.118 45.24 179.718 45.24C178.478 45.24 177.398 45.03 176.478 44.61C175.578 44.19 174.888 43.61 174.408 42.87C173.928 42.13 173.688 41.29 173.688 40.35C173.688 38.85 174.248 37.67 175.368 36.81C176.508 35.95 178.258 35.52 180.618 35.52H184.338C184.338 34.5 184.028 33.72 183.408 33.18C182.788 32.62 181.858 32.34 180.618 32.34C179.758 32.34 178.908 32.48 178.068 32.76C177.248 33.02 176.548 33.38 175.968 33.84L174.288 30.57C175.168 29.95 176.218 29.47 177.438 29.13C178.678 28.79 179.948 28.62 181.248 28.62ZM180.888 42.09C181.688 42.09 182.398 41.91 183.018 41.55C183.638 41.17 184.078 40.62 184.338 39.9V38.25H181.128C179.208 38.25 178.248 38.88 178.248 40.14C178.248 40.74 178.478 41.22 178.938 41.58C179.418 41.92 180.068 42.09 180.888 42.09ZM197.724 30.99C198.284 30.21 199.034 29.62 199.974 29.22C200.934 28.82 202.034 28.62 203.274 28.62V32.94C202.754 32.9 202.404 32.88 202.224 32.88C200.884 32.88 199.834 33.26 199.074 34.02C198.314 34.76 197.934 35.88 197.934 37.38V45H193.254V28.86H197.724V30.99ZM217.023 44.22C216.563 44.56 215.993 44.82 215.313 45C214.653 45.16 213.953 45.24 213.213 45.24C211.293 45.24 209.803 44.75 208.743 43.77C207.703 42.79 207.183 41.35 207.183 39.45V32.82H204.693V29.22H207.183V25.29H211.863V29.22H215.883V32.82H211.863V39.39C211.863 40.07 212.033 40.6 212.373 40.98C212.733 41.34 213.233 41.52 213.873 41.52C214.613 41.52 215.243 41.32 215.763 40.92L217.023 44.22ZM234.962 36.99C234.962 37.05 234.932 37.47 234.872 38.25H222.662C222.882 39.25 223.402 40.04 224.222 40.62C225.042 41.2 226.062 41.49 227.282 41.49C228.122 41.49 228.862 41.37 229.502 41.13C230.162 40.87 230.772 40.47 231.332 39.93L233.822 42.63C232.302 44.37 230.082 45.24 227.162 45.24C225.342 45.24 223.732 44.89 222.332 44.19C220.932 43.47 219.852 42.48 219.092 41.22C218.332 39.96 217.952 38.53 217.952 36.93C217.952 35.35 218.322 33.93 219.062 32.67C219.822 31.39 220.852 30.4 222.152 29.7C223.472 28.98 224.942 28.62 226.562 28.62C228.142 28.62 229.572 28.96 230.852 29.64C232.132 30.32 233.132 31.3 233.852 32.58C234.592 33.84 234.962 35.31 234.962 36.99ZM226.592 32.16C225.532 32.16 224.642 32.46 223.922 33.06C223.202 33.66 222.762 34.48 222.602 35.52H230.552C230.392 34.5 229.952 33.69 229.232 33.09C228.512 32.47 227.632 32.16 226.592 32.16ZM254.518 22.74V45H250.048V43.14C248.888 44.54 247.208 45.24 245.008 45.24C243.488 45.24 242.108 44.9 240.868 44.22C239.648 43.54 238.688 42.57 237.988 41.31C237.288 40.05 236.938 38.59 236.938 36.93C236.938 35.27 237.288 33.81 237.988 32.55C238.688 31.29 239.648 30.32 240.868 29.64C242.108 28.96 243.488 28.62 245.008 28.62C247.068 28.62 248.678 29.27 249.838 30.57V22.74H254.518ZM245.818 41.4C246.998 41.4 247.978 41 248.758 40.2C249.538 39.38 249.928 38.29 249.928 36.93C249.928 35.57 249.538 34.49 248.758 33.69C247.978 32.87 246.998 32.46 245.818 32.46C244.618 32.46 243.628 32.87 242.848 33.69C242.068 34.49 241.678 35.57 241.678 36.93C241.678 38.29 242.068 39.38 242.848 40.2C243.628 41 244.618 41.4 245.818 41.4Z" fill="white"/>
</svg>
