<svg width="238" height="100" viewBox="0 0 238 100" fill="none" xmlns="http://www.w3.org/2000/svg">
<path d="M236.417 14.1979V16.7152C236.418 16.9489 236.372 17.1802 236.284 17.3944C236.196 17.6085 236.066 17.8007 235.904 17.9587C235.741 18.1167 235.549 18.2369 235.341 18.3118C235.132 18.3867 234.91 18.4145 234.691 18.3935C232.255 18.1129 229.915 17.2306 227.859 15.8174C225.946 14.529 224.324 12.8101 223.109 10.7826C221.771 8.59354 220.938 6.10118 220.678 3.50746C220.659 3.27542 220.685 3.04155 220.755 2.82075C220.825 2.59995 220.938 2.39705 221.086 2.22497C221.234 2.05289 221.414 1.91541 221.615 1.82127C221.817 1.72713 222.034 1.6784 222.254 1.67818H224.629C225.013 1.67417 225.385 1.81838 225.677 2.08392C225.968 2.34947 226.158 2.71823 226.212 3.12147C226.312 3.92708 226.498 4.71809 226.766 5.4794C226.873 5.77974 226.896 6.10615 226.833 6.41995C226.77 6.73375 226.623 7.02179 226.41 7.24994L225.405 8.31562C226.532 10.4164 228.173 12.1558 230.155 13.3503L231.16 12.2847C231.375 12.0591 231.647 11.9036 231.943 11.8367C232.239 11.7697 232.547 11.7942 232.83 11.9071C233.549 12.1911 234.295 12.3882 235.055 12.4944C235.44 12.5519 235.791 12.7573 236.042 13.0713C236.293 13.3854 236.426 13.7863 236.417 14.1979Z" stroke="white" stroke-width="2" stroke-linecap="round" stroke-linejoin="round"/>
<g clip-path="url(#clip0)">
<path fill-rule="evenodd" clip-rule="evenodd" d="M228.5 42.6504C226.82 42.6504 225.209 43.3577 224.022 44.6166C222.834 45.8755 222.167 47.583 222.167 49.3634C222.167 51.963 223.762 54.4856 225.512 56.4432C226.371 57.404 227.232 58.1905 227.88 58.7371C228.121 58.9405 228.331 59.1099 228.5 59.242C228.669 59.1099 228.879 58.9405 229.12 58.7371C229.768 58.1905 230.629 57.404 231.488 56.4432C233.238 54.4856 234.833 51.963 234.833 49.3634C234.833 47.583 234.166 45.8755 232.978 44.6166C231.791 43.3577 230.18 42.6504 228.5 42.6504ZM228.5 60.2719C228.061 60.9701 228.061 60.97 228.06 60.9698L228.058 60.9682L228.053 60.9645L228.035 60.9515C228.019 60.9404 227.997 60.9244 227.969 60.9038C227.913 60.8625 227.832 60.8024 227.73 60.7244C227.527 60.5685 227.238 60.3409 226.894 60.0499C226.205 59.4689 225.285 58.6296 224.363 57.5974C222.55 55.5693 220.583 52.6376 220.583 49.3634C220.583 47.1379 221.417 45.0036 222.902 43.4299C224.387 41.8562 226.4 40.9722 228.5 40.9722C230.6 40.9722 232.613 41.8562 234.098 43.4299C235.583 45.0036 236.417 47.1379 236.417 49.3634C236.417 52.6376 234.45 55.5693 232.637 57.5974C231.715 58.6296 230.795 59.4689 230.106 60.0499C229.762 60.3409 229.473 60.5685 229.27 60.7244C229.168 60.8024 229.087 60.8625 229.031 60.9038C229.003 60.9244 228.981 60.9404 228.965 60.9515L228.947 60.9645L228.942 60.9682L228.94 60.9694C228.94 60.9696 228.939 60.9701 228.5 60.2719ZM228.5 60.2719L228.939 60.9701C228.673 61.158 228.326 61.1577 228.06 60.9698L228.5 60.2719Z" fill="white"/>
<path fill-rule="evenodd" clip-rule="evenodd" d="M228.5 47.6851C227.626 47.6851 226.917 48.4365 226.917 49.3633C226.917 50.2902 227.626 51.0416 228.5 51.0416C229.374 51.0416 230.083 50.2902 230.083 49.3633C230.083 48.4365 229.374 47.6851 228.5 47.6851ZM225.333 49.3633C225.333 47.5096 226.751 46.0068 228.5 46.0068C230.249 46.0068 231.667 47.5096 231.667 49.3633C231.667 51.2171 230.249 52.7198 228.5 52.7198C226.751 52.7198 225.333 51.2171 225.333 49.3633Z" fill="white"/>
</g>
<path fill-rule="evenodd" clip-rule="evenodd" d="M222.167 84.0567C221.733 84.0567 221.375 84.4362 221.375 84.8958V94.9652C221.375 95.4248 221.733 95.8043 222.167 95.8043H234.833C235.267 95.8043 235.625 95.4248 235.625 94.9652V84.8958C235.625 84.4362 235.267 84.0567 234.833 84.0567H222.167ZM219.792 84.8958C219.792 83.5093 220.859 82.3784 222.167 82.3784H234.833C236.141 82.3784 237.208 83.5093 237.208 84.8958V94.9652C237.208 96.3517 236.141 97.4826 234.833 97.4826H222.167C220.859 97.4826 219.792 96.3517 219.792 94.9652V84.8958Z" fill="white"/>
<path fill-rule="evenodd" clip-rule="evenodd" d="M219.935 84.4146C220.186 84.035 220.679 83.9426 221.037 84.2084L228.5 89.7454L235.963 84.2084C236.321 83.9426 236.815 84.035 237.065 84.4146C237.316 84.7943 237.229 85.3175 236.871 85.5833L228.954 91.4571C228.681 91.6594 228.319 91.6594 228.046 91.4571L220.129 85.5833C219.771 85.3175 219.684 84.7943 219.935 84.4146Z" fill="white"/>
<path d="M69.575 11.2H66.785V13.93H65.84V11.2H63.05V10.315H65.84V7.57H66.785V10.315H69.575V11.2ZM78.4021 15.04V16H71.0371V15.235L75.4021 10.96C75.9521 10.42 76.3221 9.955 76.5121 9.565C76.7121 9.165 76.8121 8.765 76.8121 8.365C76.8121 7.745 76.5971 7.265 76.1671 6.925C75.7471 6.575 75.1421 6.4 74.3521 6.4C73.1221 6.4 72.1671 6.79 71.4871 7.57L70.7221 6.91C71.1321 6.43 71.6521 6.06 72.2821 5.8C72.9221 5.54 73.6421 5.41 74.4421 5.41C75.5121 5.41 76.3571 5.665 76.9771 6.175C77.6071 6.675 77.9221 7.365 77.9221 8.245C77.9221 8.785 77.8021 9.305 77.5621 9.805C77.3221 10.305 76.8671 10.88 76.1971 11.53L72.6271 15.04H78.4021ZM83.3275 10C84.4275 10.06 85.2625 10.36 85.8325 10.9C86.4125 11.43 86.7025 12.125 86.7025 12.985C86.7025 13.585 86.5575 14.12 86.2675 14.59C85.9775 15.05 85.5475 15.415 84.9775 15.685C84.4075 15.955 83.7125 16.09 82.8925 16.09C82.1325 16.09 81.4125 15.97 80.7325 15.73C80.0625 15.48 79.5225 15.15 79.1125 14.74L79.6375 13.885C79.9875 14.245 80.4525 14.54 81.0325 14.77C81.6125 14.99 82.2325 15.1 82.8925 15.1C83.7525 15.1 84.4175 14.915 84.8875 14.545C85.3575 14.165 85.5925 13.645 85.5925 12.985C85.5925 12.335 85.3575 11.825 84.8875 11.455C84.4175 11.085 83.7075 10.9 82.7575 10.9H82.0075V10.105L84.9175 6.46H79.5475V5.5H86.2975V6.265L83.3275 10ZM97.1493 13.24H95.0493V16H93.9693V13.24H88.0443V12.46L93.6093 5.5H94.8093L89.4393 12.28H93.9993V9.85H95.0493V12.28H97.1493V13.24ZM104.804 5.5V6.265L100.409 16H99.2393L103.559 6.46H98.1593V8.425H97.0943V5.5H104.804ZM110.119 16.09C109.309 16.09 108.584 15.875 107.944 15.445C107.314 15.015 106.819 14.4 106.459 13.6C106.109 12.79 105.934 11.84 105.934 10.75C105.934 9.66 106.109 8.715 106.459 7.915C106.819 7.105 107.314 6.485 107.944 6.055C108.584 5.625 109.309 5.41 110.119 5.41C110.929 5.41 111.649 5.625 112.279 6.055C112.919 6.485 113.419 7.105 113.779 7.915C114.139 8.715 114.319 9.66 114.319 10.75C114.319 11.84 114.139 12.79 113.779 13.6C113.419 14.4 112.919 15.015 112.279 15.445C111.649 15.875 110.929 16.09 110.119 16.09ZM110.119 15.1C110.729 15.1 111.264 14.93 111.724 14.59C112.194 14.25 112.559 13.755 112.819 13.105C113.079 12.455 113.209 11.67 113.209 10.75C113.209 9.83 113.079 9.045 112.819 8.395C112.559 7.745 112.194 7.25 111.724 6.91C111.264 6.57 110.729 6.4 110.119 6.4C109.509 6.4 108.969 6.57 108.499 6.91C108.039 7.25 107.679 7.745 107.419 8.395C107.159 9.045 107.029 9.83 107.029 10.75C107.029 11.67 107.159 12.455 107.419 13.105C107.679 13.755 108.039 14.25 108.499 14.59C108.969 14.93 109.509 15.1 110.119 15.1ZM119.136 5.41C120.526 5.41 121.591 5.87 122.331 6.79C123.071 7.7 123.441 8.99 123.441 10.66C123.441 11.83 123.241 12.82 122.841 13.63C122.441 14.44 121.881 15.055 121.161 15.475C120.441 15.885 119.601 16.09 118.641 16.09C117.601 16.09 116.771 15.9 116.151 15.52L116.586 14.65C117.086 14.98 117.766 15.145 118.626 15.145C119.786 15.145 120.696 14.78 121.356 14.05C122.016 13.31 122.346 12.24 122.346 10.84C122.346 10.58 122.331 10.295 122.301 9.985C122.041 10.555 121.626 11 121.056 11.32C120.486 11.63 119.831 11.785 119.091 11.785C118.401 11.785 117.786 11.655 117.246 11.395C116.716 11.135 116.301 10.77 116.001 10.3C115.701 9.82 115.551 9.265 115.551 8.635C115.551 7.995 115.706 7.43 116.016 6.94C116.326 6.45 116.751 6.075 117.291 5.815C117.841 5.545 118.456 5.41 119.136 5.41ZM119.256 10.87C119.786 10.87 120.251 10.77 120.651 10.57C121.061 10.37 121.381 10.095 121.611 9.745C121.841 9.395 121.956 9.005 121.956 8.575C121.956 8.175 121.846 7.805 121.626 7.465C121.416 7.125 121.101 6.85 120.681 6.64C120.261 6.43 119.761 6.325 119.181 6.325C118.421 6.325 117.801 6.535 117.321 6.955C116.851 7.365 116.616 7.915 116.616 8.605C116.616 9.295 116.851 9.845 117.321 10.255C117.801 10.665 118.446 10.87 119.256 10.87ZM128.277 5.41C129.667 5.41 130.732 5.87 131.472 6.79C132.212 7.7 132.582 8.99 132.582 10.66C132.582 11.83 132.382 12.82 131.982 13.63C131.582 14.44 131.022 15.055 130.302 15.475C129.582 15.885 128.742 16.09 127.782 16.09C126.742 16.09 125.912 15.9 125.292 15.52L125.727 14.65C126.227 14.98 126.907 15.145 127.767 15.145C128.927 15.145 129.837 14.78 130.497 14.05C131.157 13.31 131.487 12.24 131.487 10.84C131.487 10.58 131.472 10.295 131.442 9.985C131.182 10.555 130.767 11 130.197 11.32C129.627 11.63 128.972 11.785 128.232 11.785C127.542 11.785 126.927 11.655 126.387 11.395C125.857 11.135 125.442 10.77 125.142 10.3C124.842 9.82 124.692 9.265 124.692 8.635C124.692 7.995 124.847 7.43 125.157 6.94C125.467 6.45 125.892 6.075 126.432 5.815C126.982 5.545 127.597 5.41 128.277 5.41ZM128.397 10.87C128.927 10.87 129.392 10.77 129.792 10.57C130.202 10.37 130.522 10.095 130.752 9.745C130.982 9.395 131.097 9.005 131.097 8.575C131.097 8.175 130.987 7.805 130.767 7.465C130.557 7.125 130.242 6.85 129.822 6.64C129.402 6.43 128.902 6.325 128.322 6.325C127.562 6.325 126.942 6.535 126.462 6.955C125.992 7.365 125.757 7.915 125.757 8.605C125.757 9.295 125.992 9.845 126.462 10.255C126.942 10.665 127.587 10.87 128.397 10.87ZM140.162 10.495C140.822 10.715 141.327 11.045 141.677 11.485C142.037 11.925 142.217 12.455 142.217 13.075C142.217 13.685 142.052 14.22 141.722 14.68C141.392 15.13 140.917 15.48 140.297 15.73C139.687 15.97 138.967 16.09 138.137 16.09C136.877 16.09 135.887 15.82 135.167 15.28C134.447 14.74 134.087 14.005 134.087 13.075C134.087 12.445 134.257 11.915 134.597 11.485C134.947 11.045 135.452 10.715 136.112 10.495C135.572 10.285 135.162 9.985 134.882 9.595C134.602 9.195 134.462 8.725 134.462 8.185C134.462 7.335 134.792 6.66 135.452 6.16C136.122 5.66 137.017 5.41 138.137 5.41C138.877 5.41 139.522 5.525 140.072 5.755C140.632 5.975 141.067 6.295 141.377 6.715C141.687 7.135 141.842 7.625 141.842 8.185C141.842 8.725 141.697 9.195 141.407 9.595C141.117 9.985 140.702 10.285 140.162 10.495ZM135.542 8.215C135.542 8.795 135.772 9.255 136.232 9.595C136.692 9.935 137.327 10.105 138.137 10.105C138.947 10.105 139.582 9.935 140.042 9.595C140.512 9.255 140.747 8.8 140.747 8.23C140.747 7.64 140.507 7.175 140.027 6.835C139.557 6.495 138.927 6.325 138.137 6.325C137.337 6.325 136.702 6.495 136.232 6.835C135.772 7.175 135.542 7.635 135.542 8.215ZM138.137 15.175C139.067 15.175 139.792 14.985 140.312 14.605C140.842 14.225 141.107 13.71 141.107 13.06C141.107 12.41 140.842 11.9 140.312 11.53C139.792 11.15 139.067 10.96 138.137 10.96C137.217 10.96 136.492 11.15 135.962 11.53C135.442 11.9 135.182 12.41 135.182 13.06C135.182 13.72 135.442 14.24 135.962 14.62C136.482 14.99 137.207 15.175 138.137 15.175ZM149.728 10.495C150.388 10.715 150.893 11.045 151.243 11.485C151.603 11.925 151.783 12.455 151.783 13.075C151.783 13.685 151.618 14.22 151.288 14.68C150.958 15.13 150.483 15.48 149.863 15.73C149.253 15.97 148.533 16.09 147.703 16.09C146.443 16.09 145.453 15.82 144.733 15.28C144.013 14.74 143.653 14.005 143.653 13.075C143.653 12.445 143.823 11.915 144.163 11.485C144.513 11.045 145.018 10.715 145.678 10.495C145.138 10.285 144.728 9.985 144.448 9.595C144.168 9.195 144.028 8.725 144.028 8.185C144.028 7.335 144.358 6.66 145.018 6.16C145.688 5.66 146.583 5.41 147.703 5.41C148.443 5.41 149.088 5.525 149.638 5.755C150.198 5.975 150.633 6.295 150.943 6.715C151.253 7.135 151.408 7.625 151.408 8.185C151.408 8.725 151.263 9.195 150.973 9.595C150.683 9.985 150.268 10.285 149.728 10.495ZM145.108 8.215C145.108 8.795 145.338 9.255 145.798 9.595C146.258 9.935 146.893 10.105 147.703 10.105C148.513 10.105 149.148 9.935 149.608 9.595C150.078 9.255 150.313 8.8 150.313 8.23C150.313 7.64 150.073 7.175 149.593 6.835C149.123 6.495 148.493 6.325 147.703 6.325C146.903 6.325 146.268 6.495 145.798 6.835C145.338 7.175 145.108 7.635 145.108 8.215ZM147.703 15.175C148.633 15.175 149.358 14.985 149.878 14.605C150.408 14.225 150.673 13.71 150.673 13.06C150.673 12.41 150.408 11.9 149.878 11.53C149.358 11.15 148.633 10.96 147.703 10.96C146.783 10.96 146.058 11.15 145.528 11.53C145.008 11.9 144.748 12.41 144.748 13.06C144.748 13.72 145.008 14.24 145.528 14.62C146.048 14.99 146.773 15.175 147.703 15.175ZM156.848 10C157.948 10.06 158.783 10.36 159.353 10.9C159.933 11.43 160.223 12.125 160.223 12.985C160.223 13.585 160.078 14.12 159.788 14.59C159.498 15.05 159.068 15.415 158.498 15.685C157.928 15.955 157.233 16.09 156.413 16.09C155.653 16.09 154.933 15.97 154.253 15.73C153.583 15.48 153.043 15.15 152.633 14.74L153.158 13.885C153.508 14.245 153.973 14.54 154.553 14.77C155.133 14.99 155.753 15.1 156.413 15.1C157.273 15.1 157.938 14.915 158.408 14.545C158.878 14.165 159.113 13.645 159.113 12.985C159.113 12.335 158.878 11.825 158.408 11.455C157.938 11.085 157.228 10.9 156.278 10.9H155.528V10.105L158.438 6.46H153.068V5.5H159.818V6.265L156.848 10ZM165.242 10C166.342 10.06 167.177 10.36 167.747 10.9C168.327 11.43 168.617 12.125 168.617 12.985C168.617 13.585 168.472 14.12 168.182 14.59C167.892 15.05 167.462 15.415 166.892 15.685C166.322 15.955 165.627 16.09 164.807 16.09C164.047 16.09 163.327 15.97 162.647 15.73C161.977 15.48 161.437 15.15 161.027 14.74L161.552 13.885C161.902 14.245 162.367 14.54 162.947 14.77C163.527 14.99 164.147 15.1 164.807 15.1C165.667 15.1 166.332 14.915 166.802 14.545C167.272 14.165 167.507 13.645 167.507 12.985C167.507 12.335 167.272 11.825 166.802 11.455C166.332 11.085 165.622 10.9 164.672 10.9H163.922V10.105L166.832 6.46H161.462V5.5H168.212V6.265L165.242 10ZM174.488 9.715C175.178 9.715 175.788 9.845 176.318 10.105C176.858 10.365 177.278 10.735 177.578 11.215C177.878 11.685 178.028 12.235 178.028 12.865C178.028 13.505 177.873 14.07 177.563 14.56C177.253 15.05 176.823 15.43 176.273 15.7C175.733 15.96 175.123 16.09 174.443 16.09C173.053 16.09 171.988 15.635 171.248 14.725C170.508 13.805 170.138 12.51 170.138 10.84C170.138 9.67 170.338 8.68 170.738 7.87C171.138 7.06 171.698 6.45 172.418 6.04C173.138 5.62 173.978 5.41 174.938 5.41C175.978 5.41 176.808 5.6 177.428 5.98L176.993 6.85C176.493 6.52 175.813 6.355 174.953 6.355C173.793 6.355 172.883 6.725 172.223 7.465C171.563 8.195 171.233 9.26 171.233 10.66C171.233 10.91 171.248 11.195 171.278 11.515C171.538 10.945 171.953 10.505 172.523 10.195C173.093 9.875 173.748 9.715 174.488 9.715ZM174.398 15.175C175.158 15.175 175.773 14.97 176.243 14.56C176.723 14.14 176.963 13.585 176.963 12.895C176.963 12.205 176.723 11.655 176.243 11.245C175.773 10.835 175.133 10.63 174.323 10.63C173.793 10.63 173.323 10.73 172.913 10.93C172.513 11.13 172.198 11.405 171.968 11.755C171.738 12.105 171.623 12.495 171.623 12.925C171.623 13.325 171.728 13.695 171.938 14.035C172.158 14.375 172.478 14.65 172.898 14.86C173.318 15.07 173.818 15.175 174.398 15.175ZM186.449 15.04V16H179.084V15.235L183.449 10.96C183.999 10.42 184.369 9.955 184.559 9.565C184.759 9.165 184.859 8.765 184.859 8.365C184.859 7.745 184.644 7.265 184.214 6.925C183.794 6.575 183.189 6.4 182.399 6.4C181.169 6.4 180.214 6.79 179.534 7.57L178.769 6.91C179.179 6.43 179.699 6.06 180.329 5.8C180.969 5.54 181.689 5.41 182.489 5.41C183.559 5.41 184.404 5.665 185.024 6.175C185.654 6.675 185.969 7.365 185.969 8.245C185.969 8.785 185.849 9.305 185.609 9.805C185.369 10.305 184.914 10.88 184.244 11.53L180.674 15.04H186.449Z" fill="white"/>
<path d="M82.71 44.5H83.82V54.04H89.7V55H82.71V44.5ZM94.1073 47.05C95.1373 47.05 95.9273 47.31 96.4773 47.83C97.0273 48.34 97.3023 49.1 97.3023 50.11V55H96.2823V53.77C96.0423 54.18 95.6873 54.5 95.2173 54.73C94.7573 54.96 94.2073 55.075 93.5673 55.075C92.6873 55.075 91.9873 54.865 91.4673 54.445C90.9473 54.025 90.6873 53.47 90.6873 52.78C90.6873 52.11 90.9273 51.57 91.4073 51.16C91.8973 50.75 92.6723 50.545 93.7323 50.545H96.2373V50.065C96.2373 49.385 96.0473 48.87 95.6673 48.52C95.2873 48.16 94.7323 47.98 94.0023 47.98C93.5023 47.98 93.0223 48.065 92.5623 48.235C92.1023 48.395 91.7073 48.62 91.3773 48.91L90.8973 48.115C91.2973 47.775 91.7773 47.515 92.3373 47.335C92.8973 47.145 93.4873 47.05 94.1073 47.05ZM93.7323 54.235C94.3323 54.235 94.8473 54.1 95.2773 53.83C95.7073 53.55 96.0273 53.15 96.2373 52.63V51.34H93.7623C92.4123 51.34 91.7373 51.81 91.7373 52.75C91.7373 53.21 91.9123 53.575 92.2623 53.845C92.6123 54.105 93.1023 54.235 93.7323 54.235ZM107.529 47.11V54.04C107.529 55.38 107.199 56.37 106.539 57.01C105.889 57.66 104.904 57.985 103.584 57.985C102.854 57.985 102.159 57.875 101.499 57.655C100.849 57.445 100.319 57.15 99.9093 56.77L100.449 55.96C100.829 56.3 101.289 56.565 101.829 56.755C102.379 56.945 102.954 57.04 103.554 57.04C104.554 57.04 105.289 56.805 105.759 56.335C106.229 55.875 106.464 55.155 106.464 54.175V53.17C106.134 53.67 105.699 54.05 105.159 54.31C104.629 54.57 104.039 54.7 103.389 54.7C102.649 54.7 101.974 54.54 101.364 54.22C100.764 53.89 100.289 53.435 99.9393 52.855C99.5993 52.265 99.4293 51.6 99.4293 50.86C99.4293 50.12 99.5993 49.46 99.9393 48.88C100.289 48.3 100.764 47.85 101.364 47.53C101.964 47.21 102.639 47.05 103.389 47.05C104.059 47.05 104.664 47.185 105.204 47.455C105.744 47.725 106.179 48.115 106.509 48.625V47.11H107.529ZM103.494 53.755C104.064 53.755 104.579 53.635 105.039 53.395C105.499 53.145 105.854 52.8 106.104 52.36C106.364 51.92 106.494 51.42 106.494 50.86C106.494 50.3 106.364 49.805 106.104 49.375C105.854 48.935 105.499 48.595 105.039 48.355C104.589 48.105 104.074 47.98 103.494 47.98C102.924 47.98 102.409 48.1 101.949 48.34C101.499 48.58 101.144 48.92 100.884 49.36C100.634 49.8 100.509 50.3 100.509 50.86C100.509 51.42 100.634 51.92 100.884 52.36C101.144 52.8 101.499 53.145 101.949 53.395C102.409 53.635 102.924 53.755 103.494 53.755ZM113.732 55.075C112.972 55.075 112.287 54.905 111.677 54.565C111.067 54.215 110.587 53.735 110.237 53.125C109.887 52.515 109.712 51.825 109.712 51.055C109.712 50.285 109.887 49.595 110.237 48.985C110.587 48.375 111.067 47.9 111.677 47.56C112.287 47.22 112.972 47.05 113.732 47.05C114.492 47.05 115.177 47.22 115.787 47.56C116.397 47.9 116.872 48.375 117.212 48.985C117.562 49.595 117.737 50.285 117.737 51.055C117.737 51.825 117.562 52.515 117.212 53.125C116.872 53.735 116.397 54.215 115.787 54.565C115.177 54.905 114.492 55.075 113.732 55.075ZM113.732 54.13C114.292 54.13 114.792 54.005 115.232 53.755C115.682 53.495 116.032 53.13 116.282 52.66C116.532 52.19 116.657 51.655 116.657 51.055C116.657 50.455 116.532 49.92 116.282 49.45C116.032 48.98 115.682 48.62 115.232 48.37C114.792 48.11 114.292 47.98 113.732 47.98C113.172 47.98 112.667 48.11 112.217 48.37C111.777 48.62 111.427 48.98 111.167 49.45C110.917 49.92 110.792 50.455 110.792 51.055C110.792 51.655 110.917 52.19 111.167 52.66C111.427 53.13 111.777 53.495 112.217 53.755C112.667 54.005 113.172 54.13 113.732 54.13ZM122.027 55.075C121.387 55.075 120.772 54.985 120.182 54.805C119.602 54.615 119.147 54.38 118.817 54.1L119.297 53.26C119.627 53.52 120.042 53.735 120.542 53.905C121.042 54.065 121.562 54.145 122.102 54.145C122.822 54.145 123.352 54.035 123.692 53.815C124.042 53.585 124.217 53.265 124.217 52.855C124.217 52.565 124.122 52.34 123.932 52.18C123.742 52.01 123.502 51.885 123.212 51.805C122.922 51.715 122.537 51.63 122.057 51.55C121.417 51.43 120.902 51.31 120.512 51.19C120.122 51.06 119.787 50.845 119.507 50.545C119.237 50.245 119.102 49.83 119.102 49.3C119.102 48.64 119.377 48.1 119.927 47.68C120.477 47.26 121.242 47.05 122.222 47.05C122.732 47.05 123.242 47.12 123.752 47.26C124.262 47.39 124.682 47.565 125.012 47.785L124.547 48.64C123.897 48.19 123.122 47.965 122.222 47.965C121.542 47.965 121.027 48.085 120.677 48.325C120.337 48.565 120.167 48.88 120.167 49.27C120.167 49.57 120.262 49.81 120.452 49.99C120.652 50.17 120.897 50.305 121.187 50.395C121.477 50.475 121.877 50.56 122.387 50.65C123.017 50.77 123.522 50.89 123.902 51.01C124.282 51.13 124.607 51.335 124.877 51.625C125.147 51.915 125.282 52.315 125.282 52.825C125.282 53.515 124.992 54.065 124.412 54.475C123.842 54.875 123.047 55.075 122.027 55.075ZM127.371 53.44C127.601 53.44 127.791 53.52 127.941 53.68C128.091 53.83 128.166 54.02 128.166 54.25C128.166 54.37 128.146 54.5 128.106 54.64C128.076 54.78 128.026 54.94 127.956 55.12L127.326 57.19H126.606L127.116 55.015C126.956 54.965 126.826 54.875 126.726 54.745C126.626 54.605 126.576 54.44 126.576 54.25C126.576 54.02 126.651 53.83 126.801 53.68C126.951 53.52 127.141 53.44 127.371 53.44ZM143.355 44.5V55H142.44L135.69 46.48V55H134.58V44.5H135.495L142.26 53.02V44.5H143.355ZM146.557 47.11H147.622V55H146.557V47.11ZM147.097 45.385C146.877 45.385 146.692 45.31 146.542 45.16C146.392 45.01 146.317 44.83 146.317 44.62C146.317 44.42 146.392 44.245 146.542 44.095C146.692 43.945 146.877 43.87 147.097 43.87C147.317 43.87 147.502 43.945 147.652 44.095C147.802 44.235 147.877 44.405 147.877 44.605C147.877 44.825 147.802 45.01 147.652 45.16C147.502 45.31 147.317 45.385 147.097 45.385ZM157.891 47.11V54.04C157.891 55.38 157.561 56.37 156.901 57.01C156.251 57.66 155.266 57.985 153.946 57.985C153.216 57.985 152.521 57.875 151.861 57.655C151.211 57.445 150.681 57.15 150.271 56.77L150.811 55.96C151.191 56.3 151.651 56.565 152.191 56.755C152.741 56.945 153.316 57.04 153.916 57.04C154.916 57.04 155.651 56.805 156.121 56.335C156.591 55.875 156.826 55.155 156.826 54.175V53.17C156.496 53.67 156.061 54.05 155.521 54.31C154.991 54.57 154.401 54.7 153.751 54.7C153.011 54.7 152.336 54.54 151.726 54.22C151.126 53.89 150.651 53.435 150.301 52.855C149.961 52.265 149.791 51.6 149.791 50.86C149.791 50.12 149.961 49.46 150.301 48.88C150.651 48.3 151.126 47.85 151.726 47.53C152.326 47.21 153.001 47.05 153.751 47.05C154.421 47.05 155.026 47.185 155.566 47.455C156.106 47.725 156.541 48.115 156.871 48.625V47.11H157.891ZM153.856 53.755C154.426 53.755 154.941 53.635 155.401 53.395C155.861 53.145 156.216 52.8 156.466 52.36C156.726 51.92 156.856 51.42 156.856 50.86C156.856 50.3 156.726 49.805 156.466 49.375C156.216 48.935 155.861 48.595 155.401 48.355C154.951 48.105 154.436 47.98 153.856 47.98C153.286 47.98 152.771 48.1 152.311 48.34C151.861 48.58 151.506 48.92 151.246 49.36C150.996 49.8 150.871 50.3 150.871 50.86C150.871 51.42 150.996 51.92 151.246 52.36C151.506 52.8 151.861 53.145 152.311 53.395C152.771 53.635 153.286 53.755 153.856 53.755ZM167.739 51.385H161.139C161.199 52.205 161.514 52.87 162.084 53.38C162.654 53.88 163.374 54.13 164.244 54.13C164.734 54.13 165.184 54.045 165.594 53.875C166.004 53.695 166.359 53.435 166.659 53.095L167.259 53.785C166.909 54.205 166.469 54.525 165.939 54.745C165.419 54.965 164.844 55.075 164.214 55.075C163.404 55.075 162.684 54.905 162.054 54.565C161.434 54.215 160.949 53.735 160.599 53.125C160.249 52.515 160.074 51.825 160.074 51.055C160.074 50.285 160.239 49.595 160.569 48.985C160.909 48.375 161.369 47.9 161.949 47.56C162.539 47.22 163.199 47.05 163.929 47.05C164.659 47.05 165.314 47.22 165.894 47.56C166.474 47.9 166.929 48.375 167.259 48.985C167.589 49.585 167.754 50.275 167.754 51.055L167.739 51.385ZM163.929 47.965C163.169 47.965 162.529 48.21 162.009 48.7C161.499 49.18 161.209 49.81 161.139 50.59H166.734C166.664 49.81 166.369 49.18 165.849 48.7C165.339 48.21 164.699 47.965 163.929 47.965ZM170.942 48.655C171.192 48.125 171.562 47.725 172.052 47.455C172.552 47.185 173.167 47.05 173.897 47.05V48.085L173.642 48.07C172.812 48.07 172.162 48.325 171.692 48.835C171.222 49.345 170.987 50.06 170.987 50.98V55H169.922V47.11H170.942V48.655ZM175.825 47.11H176.89V55H175.825V47.11ZM176.365 45.385C176.145 45.385 175.96 45.31 175.81 45.16C175.66 45.01 175.585 44.83 175.585 44.62C175.585 44.42 175.66 44.245 175.81 44.095C175.96 43.945 176.145 43.87 176.365 43.87C176.585 43.87 176.77 43.945 176.92 44.095C177.07 44.235 177.145 44.405 177.145 44.605C177.145 44.825 177.07 45.01 176.92 45.16C176.77 45.31 176.585 45.385 176.365 45.385ZM182.613 47.05C183.643 47.05 184.433 47.31 184.983 47.83C185.533 48.34 185.808 49.1 185.808 50.11V55H184.788V53.77C184.548 54.18 184.193 54.5 183.723 54.73C183.263 54.96 182.713 55.075 182.073 55.075C181.193 55.075 180.493 54.865 179.973 54.445C179.453 54.025 179.193 53.47 179.193 52.78C179.193 52.11 179.433 51.57 179.913 51.16C180.403 50.75 181.178 50.545 182.238 50.545H184.743V50.065C184.743 49.385 184.553 48.87 184.173 48.52C183.793 48.16 183.238 47.98 182.508 47.98C182.008 47.98 181.528 48.065 181.068 48.235C180.608 48.395 180.213 48.62 179.883 48.91L179.403 48.115C179.803 47.775 180.283 47.515 180.843 47.335C181.403 47.145 181.993 47.05 182.613 47.05ZM182.238 54.235C182.838 54.235 183.353 54.1 183.783 53.83C184.213 53.55 184.533 53.15 184.743 52.63V51.34H182.268C180.918 51.34 180.243 51.81 180.243 52.75C180.243 53.21 180.418 53.575 180.768 53.845C181.118 54.105 181.608 54.235 182.238 54.235Z" fill="white"/>
<path d="M3.6 96.075C2.96 96.075 2.345 95.985 1.755 95.805C1.175 95.615 0.72 95.38 0.39 95.1L0.87 94.26C1.2 94.52 1.615 94.735 2.115 94.905C2.615 95.065 3.135 95.145 3.675 95.145C4.395 95.145 4.925 95.035 5.265 94.815C5.615 94.585 5.79 94.265 5.79 93.855C5.79 93.565 5.695 93.34 5.505 93.18C5.315 93.01 5.075 92.885 4.785 92.805C4.495 92.715 4.11 92.63 3.63 92.55C2.99 92.43 2.475 92.31 2.085 92.19C1.695 92.06 1.36 91.845 1.08 91.545C0.81 91.245 0.675 90.83 0.675 90.3C0.675 89.64 0.95 89.1 1.5 88.68C2.05 88.26 2.815 88.05 3.795 88.05C4.305 88.05 4.815 88.12 5.325 88.26C5.835 88.39 6.255 88.565 6.585 88.785L6.12 89.64C5.47 89.19 4.695 88.965 3.795 88.965C3.115 88.965 2.6 89.085 2.25 89.325C1.91 89.565 1.74 89.88 1.74 90.27C1.74 90.57 1.835 90.81 2.025 90.99C2.225 91.17 2.47 91.305 2.76 91.395C3.05 91.475 3.45 91.56 3.96 91.65C4.59 91.77 5.095 91.89 5.475 92.01C5.855 92.13 6.18 92.335 6.45 92.625C6.72 92.915 6.855 93.315 6.855 93.825C6.855 94.515 6.565 95.065 5.985 95.475C5.415 95.875 4.62 96.075 3.6 96.075ZM12.0489 96.075C11.2889 96.075 10.6039 95.905 9.99387 95.565C9.38387 95.215 8.90387 94.735 8.55387 94.125C8.20387 93.515 8.02887 92.825 8.02887 92.055C8.02887 91.285 8.20387 90.595 8.55387 89.985C8.90387 89.375 9.38387 88.9 9.99387 88.56C10.6039 88.22 11.2889 88.05 12.0489 88.05C12.8089 88.05 13.4939 88.22 14.1039 88.56C14.7139 88.9 15.1889 89.375 15.5289 89.985C15.8789 90.595 16.0539 91.285 16.0539 92.055C16.0539 92.825 15.8789 93.515 15.5289 94.125C15.1889 94.735 14.7139 95.215 14.1039 95.565C13.4939 95.905 12.8089 96.075 12.0489 96.075ZM12.0489 95.13C12.6089 95.13 13.1089 95.005 13.5489 94.755C13.9989 94.495 14.3489 94.13 14.5989 93.66C14.8489 93.19 14.9739 92.655 14.9739 92.055C14.9739 91.455 14.8489 90.92 14.5989 90.45C14.3489 89.98 13.9989 89.62 13.5489 89.37C13.1089 89.11 12.6089 88.98 12.0489 88.98C11.4889 88.98 10.9839 89.11 10.5339 89.37C10.0939 89.62 9.74387 89.98 9.48387 90.45C9.23387 90.92 9.10887 91.455 9.10887 92.055C9.10887 92.655 9.23387 93.19 9.48387 93.66C9.74387 94.13 10.0939 94.495 10.5339 94.755C10.9839 95.005 11.4889 95.13 12.0489 95.13ZM28.0682 88.05C29.0582 88.05 29.8332 88.335 30.3932 88.905C30.9632 89.475 31.2482 90.315 31.2482 91.425V96H30.1832V91.53C30.1832 90.71 29.9832 90.085 29.5832 89.655C29.1932 89.225 28.6382 89.01 27.9182 89.01C27.0982 89.01 26.4532 89.265 25.9832 89.775C25.5132 90.275 25.2782 90.97 25.2782 91.86V96H24.2132V91.53C24.2132 90.71 24.0132 90.085 23.6132 89.655C23.2232 89.225 22.6632 89.01 21.9332 89.01C21.1232 89.01 20.4782 89.265 19.9982 89.775C19.5282 90.275 19.2932 90.97 19.2932 91.86V96H18.2282V88.11H19.2482V89.55C19.5282 89.07 19.9182 88.7 20.4182 88.44C20.9182 88.18 21.4932 88.05 22.1432 88.05C22.8032 88.05 23.3732 88.19 23.8532 88.47C24.3432 88.75 24.7082 89.165 24.9482 89.715C25.2382 89.195 25.6532 88.79 26.1932 88.5C26.7432 88.2 27.3682 88.05 28.0682 88.05ZM41.0357 92.385H34.4357C34.4957 93.205 34.8107 93.87 35.3807 94.38C35.9507 94.88 36.6707 95.13 37.5407 95.13C38.0307 95.13 38.4807 95.045 38.8907 94.875C39.3007 94.695 39.6557 94.435 39.9557 94.095L40.5557 94.785C40.2057 95.205 39.7657 95.525 39.2357 95.745C38.7157 95.965 38.1407 96.075 37.5107 96.075C36.7007 96.075 35.9807 95.905 35.3507 95.565C34.7307 95.215 34.2457 94.735 33.8957 94.125C33.5457 93.515 33.3707 92.825 33.3707 92.055C33.3707 91.285 33.5357 90.595 33.8657 89.985C34.2057 89.375 34.6657 88.9 35.2457 88.56C35.8357 88.22 36.4957 88.05 37.2257 88.05C37.9557 88.05 38.6107 88.22 39.1907 88.56C39.7707 88.9 40.2257 89.375 40.5557 89.985C40.8857 90.585 41.0507 91.275 41.0507 92.055L41.0357 92.385ZM37.2257 88.965C36.4657 88.965 35.8257 89.21 35.3057 89.7C34.7957 90.18 34.5057 90.81 34.4357 91.59H40.0307C39.9607 90.81 39.6657 90.18 39.1457 89.7C38.6357 89.21 37.9957 88.965 37.2257 88.965ZM46.4434 96.075C45.6834 96.075 44.9984 95.905 44.3884 95.565C43.7784 95.215 43.2984 94.735 42.9484 94.125C42.5984 93.515 42.4234 92.825 42.4234 92.055C42.4234 91.285 42.5984 90.595 42.9484 89.985C43.2984 89.375 43.7784 88.9 44.3884 88.56C44.9984 88.22 45.6834 88.05 46.4434 88.05C47.2034 88.05 47.8884 88.22 48.4984 88.56C49.1084 88.9 49.5834 89.375 49.9234 89.985C50.2734 90.595 50.4484 91.285 50.4484 92.055C50.4484 92.825 50.2734 93.515 49.9234 94.125C49.5834 94.735 49.1084 95.215 48.4984 95.565C47.8884 95.905 47.2034 96.075 46.4434 96.075ZM46.4434 95.13C47.0034 95.13 47.5034 95.005 47.9434 94.755C48.3934 94.495 48.7434 94.13 48.9934 93.66C49.2434 93.19 49.3684 92.655 49.3684 92.055C49.3684 91.455 49.2434 90.92 48.9934 90.45C48.7434 89.98 48.3934 89.62 47.9434 89.37C47.5034 89.11 47.0034 88.98 46.4434 88.98C45.8834 88.98 45.3784 89.11 44.9284 89.37C44.4884 89.62 44.1384 89.98 43.8784 90.45C43.6284 90.92 43.5034 91.455 43.5034 92.055C43.5034 92.655 43.6284 93.19 43.8784 93.66C44.1384 94.13 44.4884 94.495 44.9284 94.755C45.3784 95.005 45.8834 95.13 46.4434 95.13ZM59.4927 92.385H52.8927C52.9527 93.205 53.2677 93.87 53.8377 94.38C54.4077 94.88 55.1277 95.13 55.9977 95.13C56.4877 95.13 56.9377 95.045 57.3477 94.875C57.7577 94.695 58.1127 94.435 58.4127 94.095L59.0127 94.785C58.6627 95.205 58.2227 95.525 57.6927 95.745C57.1727 95.965 56.5977 96.075 55.9677 96.075C55.1577 96.075 54.4377 95.905 53.8077 95.565C53.1877 95.215 52.7027 94.735 52.3527 94.125C52.0027 93.515 51.8277 92.825 51.8277 92.055C51.8277 91.285 51.9927 90.595 52.3227 89.985C52.6627 89.375 53.1227 88.9 53.7027 88.56C54.2927 88.22 54.9527 88.05 55.6827 88.05C56.4127 88.05 57.0677 88.22 57.6477 88.56C58.2277 88.9 58.6827 89.375 59.0127 89.985C59.3427 90.585 59.5077 91.275 59.5077 92.055L59.4927 92.385ZM55.6827 88.965C54.9227 88.965 54.2827 89.21 53.7627 89.7C53.2527 90.18 52.9627 90.81 52.8927 91.59H58.4877C58.4177 90.81 58.1227 90.18 57.6027 89.7C57.0927 89.21 56.4527 88.965 55.6827 88.965ZM65.6954 88.05C66.6854 88.05 67.4704 88.34 68.0504 88.92C68.6404 89.49 68.9354 90.325 68.9354 91.425V96H67.8704V91.53C67.8704 90.71 67.6654 90.085 67.2554 89.655C66.8454 89.225 66.2604 89.01 65.5004 89.01C64.6504 89.01 63.9754 89.265 63.4754 89.775C62.9854 90.275 62.7404 90.97 62.7404 91.86V96H61.6754V88.11H62.6954V89.565C62.9854 89.085 63.3854 88.715 63.8954 88.455C64.4154 88.185 65.0154 88.05 65.6954 88.05ZM78.1268 85.41C79.4668 85.41 80.6618 85.69 81.7118 86.25C82.7718 86.8 83.5968 87.58 84.1868 88.59C84.7768 89.59 85.0718 90.735 85.0718 92.025C85.0718 93.295 84.8518 94.29 84.4118 95.01C83.9718 95.72 83.3618 96.075 82.5818 96.075C82.0918 96.075 81.6918 95.93 81.3818 95.64C81.0818 95.35 80.9168 94.95 80.8868 94.44C80.5868 94.96 80.1768 95.365 79.6568 95.655C79.1368 95.935 78.5468 96.075 77.8868 96.075C77.1868 96.075 76.5518 95.91 75.9818 95.58C75.4218 95.24 74.9768 94.775 74.6468 94.185C74.3268 93.595 74.1668 92.93 74.1668 92.19C74.1668 91.45 74.3268 90.79 74.6468 90.21C74.9768 89.62 75.4218 89.16 75.9818 88.83C76.5518 88.5 77.1868 88.335 77.8868 88.335C78.5268 88.335 79.1018 88.475 79.6118 88.755C80.1318 89.025 80.5468 89.41 80.8568 89.91V88.395H81.8318V94.08C81.8318 94.48 81.9168 94.77 82.0868 94.95C82.2568 95.13 82.4818 95.22 82.7618 95.22C83.2318 95.22 83.6018 94.94 83.8718 94.38C84.1518 93.82 84.2918 93.04 84.2918 92.04C84.2918 90.88 84.0318 89.86 83.5118 88.98C82.9918 88.09 82.2618 87.4 81.3218 86.91C80.3918 86.42 79.3268 86.175 78.1268 86.175C76.9168 86.175 75.8418 86.43 74.9018 86.94C73.9718 87.44 73.2468 88.15 72.7268 89.07C72.2068 89.98 71.9468 91.02 71.9468 92.19C71.9468 93.36 72.2018 94.405 72.7118 95.325C73.2318 96.245 73.9518 96.96 74.8718 97.47C75.8018 97.98 76.8668 98.235 78.0668 98.235C78.5368 98.235 79.0268 98.18 79.5368 98.07C80.0568 97.96 80.5268 97.795 80.9468 97.575L81.2018 98.31C80.7718 98.53 80.2718 98.7 79.7018 98.82C79.1418 98.94 78.5968 99 78.0668 99C76.7068 99 75.5018 98.71 74.4518 98.13C73.4018 97.55 72.5818 96.745 71.9918 95.715C71.4118 94.675 71.1218 93.5 71.1218 92.19C71.1218 90.87 71.4168 89.7 72.0068 88.68C72.5968 87.65 73.4218 86.85 74.4818 86.28C75.5518 85.7 76.7668 85.41 78.1268 85.41ZM78.0218 95.205C78.5618 95.205 79.0468 95.08 79.4768 94.83C79.9068 94.58 80.2468 94.23 80.4968 93.78C80.7468 93.32 80.8718 92.79 80.8718 92.19C80.8718 91.6 80.7468 91.08 80.4968 90.63C80.2468 90.17 79.9068 89.82 79.4768 89.58C79.0468 89.33 78.5618 89.205 78.0218 89.205C77.4718 89.205 76.9768 89.33 76.5368 89.58C76.1068 89.83 75.7668 90.18 75.5168 90.63C75.2768 91.08 75.1568 91.6 75.1568 92.19C75.1568 92.78 75.2768 93.305 75.5168 93.765C75.7668 94.215 76.1068 94.57 76.5368 94.83C76.9768 95.08 77.4718 95.205 78.0218 95.205ZM94.1948 92.385H87.5948C87.6548 93.205 87.9698 93.87 88.5398 94.38C89.1098 94.88 89.8298 95.13 90.6998 95.13C91.1898 95.13 91.6398 95.045 92.0498 94.875C92.4598 94.695 92.8148 94.435 93.1148 94.095L93.7148 94.785C93.3648 95.205 92.9248 95.525 92.3948 95.745C91.8748 95.965 91.2998 96.075 90.6698 96.075C89.8598 96.075 89.1398 95.905 88.5098 95.565C87.8898 95.215 87.4048 94.735 87.0548 94.125C86.7048 93.515 86.5298 92.825 86.5298 92.055C86.5298 91.285 86.6948 90.595 87.0248 89.985C87.3648 89.375 87.8248 88.9 88.4048 88.56C88.9948 88.22 89.6548 88.05 90.3848 88.05C91.1148 88.05 91.7698 88.22 92.3498 88.56C92.9298 88.9 93.3848 89.375 93.7148 89.985C94.0448 90.585 94.2098 91.275 94.2098 92.055L94.1948 92.385ZM90.3848 88.965C89.6248 88.965 88.9848 89.21 88.4648 89.7C87.9548 90.18 87.6648 90.81 87.5948 91.59H93.1898C93.1198 90.81 92.8248 90.18 92.3048 89.7C91.7948 89.21 91.1548 88.965 90.3848 88.965ZM101.183 96L98.6779 92.7L96.1579 96H94.9579L98.0779 91.95L95.1079 88.11H96.3079L98.6779 91.2L101.048 88.11H102.218L99.2479 91.95L102.398 96H101.183ZM106.784 88.05C107.814 88.05 108.604 88.31 109.154 88.83C109.704 89.34 109.979 90.1 109.979 91.11V96H108.959V94.77C108.719 95.18 108.364 95.5 107.894 95.73C107.434 95.96 106.884 96.075 106.244 96.075C105.364 96.075 104.664 95.865 104.144 95.445C103.624 95.025 103.364 94.47 103.364 93.78C103.364 93.11 103.604 92.57 104.084 92.16C104.574 91.75 105.349 91.545 106.409 91.545H108.914V91.065C108.914 90.385 108.724 89.87 108.344 89.52C107.964 89.16 107.409 88.98 106.679 88.98C106.179 88.98 105.699 89.065 105.239 89.235C104.779 89.395 104.384 89.62 104.054 89.91L103.574 89.115C103.974 88.775 104.454 88.515 105.014 88.335C105.574 88.145 106.164 88.05 106.784 88.05ZM106.409 95.235C107.009 95.235 107.524 95.1 107.954 94.83C108.384 94.55 108.704 94.15 108.914 93.63V92.34H106.439C105.089 92.34 104.414 92.81 104.414 93.75C104.414 94.21 104.589 94.575 104.939 94.845C105.289 95.105 105.779 95.235 106.409 95.235ZM122.712 88.05C123.702 88.05 124.477 88.335 125.037 88.905C125.607 89.475 125.892 90.315 125.892 91.425V96H124.827V91.53C124.827 90.71 124.627 90.085 124.227 89.655C123.837 89.225 123.282 89.01 122.562 89.01C121.742 89.01 121.097 89.265 120.627 89.775C120.157 90.275 119.922 90.97 119.922 91.86V96H118.857V91.53C118.857 90.71 118.657 90.085 118.257 89.655C117.867 89.225 117.307 89.01 116.577 89.01C115.767 89.01 115.122 89.265 114.642 89.775C114.172 90.275 113.937 90.97 113.937 91.86V96H112.872V88.11H113.892V89.55C114.172 89.07 114.562 88.7 115.062 88.44C115.562 88.18 116.137 88.05 116.787 88.05C117.447 88.05 118.017 88.19 118.497 88.47C118.987 88.75 119.352 89.165 119.592 89.715C119.882 89.195 120.297 88.79 120.837 88.5C121.387 88.2 122.012 88.05 122.712 88.05ZM132.845 88.05C133.585 88.05 134.255 88.22 134.855 88.56C135.455 88.89 135.925 89.36 136.265 89.97C136.605 90.58 136.775 91.275 136.775 92.055C136.775 92.845 136.605 93.545 136.265 94.155C135.925 94.765 135.455 95.24 134.855 95.58C134.265 95.91 133.595 96.075 132.845 96.075C132.205 96.075 131.625 95.945 131.105 95.685C130.595 95.415 130.175 95.025 129.845 94.515V98.91H128.78V88.11H129.8V89.67C130.12 89.15 130.54 88.75 131.06 88.47C131.59 88.19 132.185 88.05 132.845 88.05ZM132.77 95.13C133.32 95.13 133.82 95.005 134.27 94.755C134.72 94.495 135.07 94.13 135.32 93.66C135.58 93.19 135.71 92.655 135.71 92.055C135.71 91.455 135.58 90.925 135.32 90.465C135.07 89.995 134.72 89.63 134.27 89.37C133.82 89.11 133.32 88.98 132.77 88.98C132.21 88.98 131.705 89.11 131.255 89.37C130.815 89.63 130.465 89.995 130.205 90.465C129.955 90.925 129.83 91.455 129.83 92.055C129.83 92.655 129.955 93.19 130.205 93.66C130.465 94.13 130.815 94.495 131.255 94.755C131.705 95.005 132.21 95.13 132.77 95.13ZM138.946 84.87H140.011V96H138.946V84.87ZM149.844 92.385H143.244C143.304 93.205 143.619 93.87 144.189 94.38C144.759 94.88 145.479 95.13 146.349 95.13C146.839 95.13 147.289 95.045 147.699 94.875C148.109 94.695 148.464 94.435 148.764 94.095L149.364 94.785C149.014 95.205 148.574 95.525 148.044 95.745C147.524 95.965 146.949 96.075 146.319 96.075C145.509 96.075 144.789 95.905 144.159 95.565C143.539 95.215 143.054 94.735 142.704 94.125C142.354 93.515 142.179 92.825 142.179 92.055C142.179 91.285 142.344 90.595 142.674 89.985C143.014 89.375 143.474 88.9 144.054 88.56C144.644 88.22 145.304 88.05 146.034 88.05C146.764 88.05 147.419 88.22 147.999 88.56C148.579 88.9 149.034 89.375 149.364 89.985C149.694 90.585 149.859 91.275 149.859 92.055L149.844 92.385ZM146.034 88.965C145.274 88.965 144.634 89.21 144.114 89.7C143.604 90.18 143.314 90.81 143.244 91.59H148.839C148.769 90.81 148.474 90.18 147.954 89.7C147.444 89.21 146.804 88.965 146.034 88.965ZM152.132 96.075C151.912 96.075 151.722 95.995 151.562 95.835C151.412 95.675 151.337 95.48 151.337 95.25C151.337 95.02 151.412 94.83 151.562 94.68C151.722 94.52 151.912 94.44 152.132 94.44C152.352 94.44 152.542 94.52 152.702 94.68C152.862 94.83 152.942 95.02 152.942 95.25C152.942 95.48 152.862 95.675 152.702 95.835C152.542 95.995 152.352 96.075 152.132 96.075ZM158.256 96.075C157.476 96.075 156.776 95.905 156.156 95.565C155.546 95.225 155.066 94.75 154.716 94.14C154.366 93.52 154.191 92.825 154.191 92.055C154.191 91.285 154.366 90.595 154.716 89.985C155.066 89.375 155.546 88.9 156.156 88.56C156.776 88.22 157.476 88.05 158.256 88.05C158.936 88.05 159.541 88.185 160.071 88.455C160.611 88.715 161.036 89.1 161.346 89.61L160.551 90.15C160.291 89.76 159.961 89.47 159.561 89.28C159.161 89.08 158.726 88.98 158.256 88.98C157.686 88.98 157.171 89.11 156.711 89.37C156.261 89.62 155.906 89.98 155.646 90.45C155.396 90.92 155.271 91.455 155.271 92.055C155.271 92.665 155.396 93.205 155.646 93.675C155.906 94.135 156.261 94.495 156.711 94.755C157.171 95.005 157.686 95.13 158.256 95.13C158.726 95.13 159.161 95.035 159.561 94.845C159.961 94.655 160.291 94.365 160.551 93.975L161.346 94.515C161.036 95.025 160.611 95.415 160.071 95.685C159.531 95.945 158.926 96.075 158.256 96.075ZM166.531 96.075C165.771 96.075 165.086 95.905 164.476 95.565C163.866 95.215 163.386 94.735 163.036 94.125C162.686 93.515 162.511 92.825 162.511 92.055C162.511 91.285 162.686 90.595 163.036 89.985C163.386 89.375 163.866 88.9 164.476 88.56C165.086 88.22 165.771 88.05 166.531 88.05C167.291 88.05 167.976 88.22 168.586 88.56C169.196 88.9 169.671 89.375 170.011 89.985C170.361 90.595 170.536 91.285 170.536 92.055C170.536 92.825 170.361 93.515 170.011 94.125C169.671 94.735 169.196 95.215 168.586 95.565C167.976 95.905 167.291 96.075 166.531 96.075ZM166.531 95.13C167.091 95.13 167.591 95.005 168.031 94.755C168.481 94.495 168.831 94.13 169.081 93.66C169.331 93.19 169.456 92.655 169.456 92.055C169.456 91.455 169.331 90.92 169.081 90.45C168.831 89.98 168.481 89.62 168.031 89.37C167.591 89.11 167.091 88.98 166.531 88.98C165.971 88.98 165.466 89.11 165.016 89.37C164.576 89.62 164.226 89.98 163.966 90.45C163.716 90.92 163.591 91.455 163.591 92.055C163.591 92.655 163.716 93.19 163.966 93.66C164.226 94.13 164.576 94.495 165.016 94.755C165.466 95.005 165.971 95.13 166.531 95.13ZM182.551 88.05C183.541 88.05 184.316 88.335 184.876 88.905C185.446 89.475 185.731 90.315 185.731 91.425V96H184.666V91.53C184.666 90.71 184.466 90.085 184.066 89.655C183.676 89.225 183.121 89.01 182.401 89.01C181.581 89.01 180.936 89.265 180.466 89.775C179.996 90.275 179.761 90.97 179.761 91.86V96H178.696V91.53C178.696 90.71 178.496 90.085 178.096 89.655C177.706 89.225 177.146 89.01 176.416 89.01C175.606 89.01 174.961 89.265 174.481 89.775C174.011 90.275 173.776 90.97 173.776 91.86V96H172.711V88.11H173.731V89.55C174.011 89.07 174.401 88.7 174.901 88.44C175.401 88.18 175.976 88.05 176.626 88.05C177.286 88.05 177.856 88.19 178.336 88.47C178.826 88.75 179.191 89.165 179.431 89.715C179.721 89.195 180.136 88.79 180.676 88.5C181.226 88.2 181.851 88.05 182.551 88.05Z" fill="white"/>
<defs>
<clipPath id="clip0">
<rect width="19" height="20.1389" fill="white" transform="translate(219 40.9722)"/>
</clipPath>
</defs>
</svg>
