<svg width="205" height="40" viewBox="0 0 205 40" fill="none" xmlns="http://www.w3.org/2000/svg">
<path fill-rule="evenodd" clip-rule="evenodd" d="M182.929 4.59556C184.804 2.72019 187.348 1.66663 190 1.66663H195C195.92 1.66663 196.667 2.41282 196.667 3.33329V9.99996C196.667 10.9204 195.92 11.6666 195 11.6666H190V15H195C195.513 15 195.998 15.2364 196.314 15.6409C196.63 16.0455 196.741 16.5729 196.617 17.0709L194.95 23.7375C194.765 24.4795 194.098 25 193.333 25H190V36.6666C190 37.5871 189.254 38.3333 188.333 38.3333H181.667C180.746 38.3333 180 37.5871 180 36.6666V25H176.667C175.746 25 175 24.2538 175 23.3333V16.6666C175 15.7462 175.746 15 176.667 15H180V11.6666C180 9.01446 181.054 6.47092 182.929 4.59556ZM190 4.99996C188.232 4.99996 186.536 5.70234 185.286 6.95258C184.036 8.20282 183.333 9.89852 183.333 11.6666V16.6666C183.333 17.5871 182.587 18.3333 181.667 18.3333H178.333V21.6666H181.667C182.587 21.6666 183.333 22.4128 183.333 23.3333V35H186.667V23.3333C186.667 22.4128 187.413 21.6666 188.333 21.6666H192.032L192.865 18.3333H188.333C187.413 18.3333 186.667 17.5871 186.667 16.6666V11.6666C186.667 10.7826 187.018 9.93472 187.643 9.3096C188.268 8.68448 189.116 8.33329 190 8.33329H193.333V4.99996H190Z" fill="#6C63FF"/>
<g clip-path="url(#clip0)">
<path d="M95.8333 36.5C91.5 36.5 87 35.3333 83 33C82.3333 32.6667 82 31.8333 82.1667 31.1667C82.3333 30.5 83 30 83.6667 30C86.5 30.1667 89.3333 29.5 91.8333 28.3333C85.6667 24.5 84 19.1667 83.8333 15C83.6667 10.1667 85.3333 6.16667 85.5 6C85.6667 5.5 86.1667 5 86.8333 5C87.5 5 88 5.16667 88.3333 5.66667C91.1667 9.66667 95.5 12.1667 100.333 12.5C100.333 9.83333 101.5 7.33333 103.5 5.5C107 2.5 112.167 2.5 115.667 5.5C117 5 118.333 4.33333 119.5 3.5C120 3.16667 120.833 3.16667 121.333 3.5C121.833 3.83333 122.167 4.66667 122 5.33333C121.5 7.66667 120.333 9.83333 118.667 11.6667C118.667 12 118.667 12.1667 118.667 12.5C118.667 21.6667 114.667 29.3333 107.5 33.3333C104 35.5 100 36.5 95.8333 36.5ZM90.3333 32.5C95.8333 33.8333 101.333 33.1667 106 30.5C112 27 115.5 20.3333 115.5 12.5C115.5 12.1667 115.5 11.8333 115.333 11.5C115.167 11 115.333 10.3333 115.833 10C116.167 9.66667 116.5 9.16667 116.833 8.83333C116.5 9 116 9.16667 115.667 9.16667C115 9.33333 114.333 9.16667 114 8.66667C111.833 6.33333 108.167 6 105.833 8.16667C104.333 9.16667 103.667 10.8333 103.667 12.5V14.1667C103.667 15 103 15.8333 102 15.8333C96.5 16 91.3333 13.8333 87.6667 10C86.6667 14.3333 86.3333 22.5 96 26.6667C96.5 27 97 27.5 97 28.1667C97 28.8333 96.8333 29.3333 96.3333 29.6667C94.3333 31 92.3333 32 90.3333 32.5Z" fill="#6C63FF"/>
</g>
<path fill-rule="evenodd" clip-rule="evenodd" d="M26.6667 15C24.4565 15 22.3369 15.8779 20.7741 17.4407C19.2113 19.0035 18.3333 21.1232 18.3333 23.3333V33.3333H21.6667V23.3333C21.6667 22.0072 22.1934 20.7354 23.1311 19.7978C24.0688 18.8601 25.3406 18.3333 26.6667 18.3333C27.9927 18.3333 29.2645 18.8601 30.2022 19.7978C31.1399 20.7354 31.6667 22.0072 31.6667 23.3333V33.3333H35V23.3333C35 21.1232 34.122 19.0035 32.5592 17.4407C30.9964 15.8779 28.8768 15 26.6667 15ZM26.6667 11.6666C23.5725 11.6666 20.605 12.8958 18.4171 15.0837C16.2292 17.2716 15 20.2391 15 23.3333V35C15 35.9204 15.7462 36.6666 16.6667 36.6666H23.3333C24.2538 36.6666 25 35.9204 25 35V23.3333C25 22.8913 25.1756 22.4673 25.4881 22.1548C25.8007 21.8422 26.2246 21.6666 26.6667 21.6666C27.1087 21.6666 27.5326 21.8422 27.8452 22.1548C28.1577 22.4673 28.3333 22.8913 28.3333 23.3333V35C28.3333 35.9204 29.0795 36.6666 30 36.6666H36.6667C37.5871 36.6666 38.3333 35.9204 38.3333 35V23.3333C38.3333 20.2391 37.1042 17.2716 34.9162 15.0837C32.7283 12.8958 29.7608 11.6666 26.6667 11.6666Z" fill="#6C63FF"/>
<path fill-rule="evenodd" clip-rule="evenodd" d="M1.66666 15C1.66666 14.0795 2.41285 13.3333 3.33332 13.3333H9.99999C10.9205 13.3333 11.6667 14.0795 11.6667 15V35C11.6667 35.9204 10.9205 36.6666 9.99999 36.6666H3.33332C2.41285 36.6666 1.66666 35.9204 1.66666 35V15ZM4.99999 16.6666V33.3333H8.33332V16.6666H4.99999Z" fill="#6C63FF"/>
<path fill-rule="evenodd" clip-rule="evenodd" d="M6.66666 4.99996C5.74618 4.99996 4.99999 5.74615 4.99999 6.66663C4.99999 7.5871 5.74618 8.33329 6.66666 8.33329C7.58713 8.33329 8.33332 7.5871 8.33332 6.66663C8.33332 5.74615 7.58713 4.99996 6.66666 4.99996ZM1.66666 6.66663C1.66666 3.9052 3.90523 1.66663 6.66666 1.66663C9.42808 1.66663 11.6667 3.9052 11.6667 6.66663C11.6667 9.42805 9.42808 11.6666 6.66666 11.6666C3.90523 11.6666 1.66666 9.42805 1.66666 6.66663Z" fill="#6C63FF"/>
<defs>
<clipPath id="clip0">
<rect width="40" height="40" fill="white" transform="translate(82)"/>
</clipPath>
</defs>
</svg>
